<svg width="1440" height="524" viewBox="0 0 1440 524" fill="none" xmlns="http://www.w3.org/2000/svg">
<path d="M20.6794 328.209C20.6532 328.474 20.564 328.82 20.4116 329.246C20.3006 329.652 20.1483 330.078 19.9547 330.523C19.7415 330.927 19.4773 331.331 19.1619 331.732C18.8879 332.115 18.6053 332.425 18.3139 332.664C16.9532 333.207 15.6036 333.239 14.2651 332.76C12.907 332.24 11.8252 331.236 11.0196 329.747C10.9823 330.522 10.7993 331.418 10.4707 332.432C10.1225 333.406 9.61025 334.407 8.93388 335.434C8.27927 336.401 7.43126 337.333 6.38984 338.23C5.36797 339.168 4.15491 339.97 2.75066 340.634C-0.181729 342.021 -2.86697 342.382 -5.30507 341.716C-7.70187 341.03 -9.48647 339.448 -10.6589 336.97C-11.8704 334.409 -11.9159 331.803 -10.7954 329.15C-9.67491 326.497 -6.9559 323.643 -2.63836 320.59L4.11841 315.801L2.97532 313.385C1.56843 310.411 -0.208397 308.472 -2.35516 307.566C-4.46063 306.642 -6.87631 306.824 -9.60219 308.114C-11.2955 308.915 -12.5359 310.033 -13.3233 311.467C-14.0889 312.84 -14.081 314.352 -13.2994 316.004C-12.9476 316.748 -12.3872 317.291 -11.618 317.635C-11.7552 318.307 -12.1392 319.044 -12.7698 319.848C-13.4004 320.652 -14.1299 321.3 -14.9581 321.793C-15.2623 321.684 -15.6567 321.492 -16.1412 321.216C-16.6257 320.939 -17.034 320.45 -17.3662 319.748C-17.972 318.468 -18.1669 317.094 -17.9511 315.627C-17.7352 314.161 -17.2141 312.751 -16.3876 311.4C-15.5807 310.007 -14.4999 308.713 -13.1454 307.516C-11.7909 306.319 -10.267 305.32 -8.57364 304.519C-4.60871 302.643 -1.37034 302.223 1.14147 303.258C3.63375 304.253 5.64195 306.361 7.16608 309.582L14.5229 325.132C15.3241 326.826 16.2527 327.827 17.3087 328.136C18.3453 328.404 19.3884 328.365 20.4383 328.02L20.6794 328.209ZM3.17969 336.413C5.32735 335.397 6.91013 334.041 7.92801 332.347C8.9872 330.632 9.47594 328.834 9.39424 326.952L5.17358 318.031L-2.42454 323.445C-4.45941 324.914 -5.84123 326.427 -6.57 327.985C-7.25748 329.523 -7.16156 331.221 -6.28226 333.08C-5.30525 335.145 -3.93344 336.442 -2.16682 336.971C-0.378437 337.439 1.40373 337.253 3.17969 336.413Z" fill="#3A4B18"/>
<path d="M46.8255 297.219C45.3827 293.613 43.5879 291.28 41.4412 290.22C39.2775 289.117 36.8382 289.109 34.1233 290.195C33.1477 290.586 32.2484 291.167 31.4255 291.939C30.628 292.652 29.9027 293.484 29.2495 294.434C28.6388 295.367 28.1129 296.39 27.6718 297.501C27.2138 298.571 26.8576 299.648 26.6032 300.734L35.9221 324.023C35.464 324.6 34.7726 325.147 33.8479 325.665C32.9825 326.208 32.1256 326.649 31.2772 326.989L18.2409 294.41C19.3522 293.129 20.7775 292.14 22.5167 291.444L25.0374 297.744C25.3003 296.802 25.6947 295.758 26.2206 294.613C26.7719 293.408 27.442 292.254 28.231 291.151C29.0623 290.031 30.0294 289.004 31.1323 288.07C32.2606 287.078 33.5671 286.284 35.0518 285.69C38.4878 284.315 41.6186 284.268 44.4441 285.549C47.312 286.813 49.5183 289.375 51.063 293.235L59.5926 314.551C59.1346 315.128 58.4431 315.676 57.5184 316.193C56.653 316.736 55.7962 317.178 54.9478 317.517L46.8255 297.219Z" fill="#3A4B18"/>
<path d="M91.0166 281.569C89.7765 277.888 88.1142 275.459 86.0297 274.281C83.9307 273.06 81.4956 272.916 78.7245 273.85C77.7287 274.185 76.7985 274.716 75.9339 275.441C75.0548 276.123 74.27 276.942 73.5796 277.898C72.9179 278.796 72.3359 279.787 71.8338 280.873C71.317 281.915 70.9088 282.992 70.609 284.106L78.5751 307.747C78.0857 308.297 77.3649 308.806 76.4128 309.271C75.5186 309.765 74.6385 310.158 73.7726 310.45L57.0962 260.96C57.7009 260.322 58.4071 259.771 59.2147 259.306C60.0656 258.826 60.9457 258.433 61.855 258.127L69.3396 280.339C69.6978 279.399 70.1785 278.393 70.7819 277.322C71.3852 276.251 72.1187 275.208 72.9823 274.194C73.8459 273.179 74.8399 272.266 75.9642 271.453C77.1173 270.582 78.4299 269.899 79.902 269.403C83.4092 268.221 86.5377 268.348 89.2877 269.784C92.0809 271.205 94.1413 273.886 95.469 277.826L102.801 299.584C102.311 300.134 101.59 300.642 100.638 301.108C99.744 301.602 98.8639 301.995 97.998 302.287L91.0166 281.569Z" fill="#3A4B18"/>
<path d="M158.285 276.101C158.117 276.378 157.856 276.654 157.5 276.929C157.134 277.161 156.723 277.403 156.267 277.656C155.856 277.898 155.418 278.124 154.952 278.333C154.475 278.497 154.036 278.628 153.637 278.727L130.616 247.407C131.157 250.944 131.714 254.548 132.287 258.218C132.894 261.833 133.496 265.425 134.092 268.996C134.722 272.511 135.34 275.982 135.948 279.409C136.589 282.78 137.22 286.012 137.84 289.106C137.273 289.67 136.495 290.143 135.508 290.527C134.575 290.945 133.621 291.274 132.645 291.514C131.677 283.565 130.749 275.488 129.86 267.285C128.971 259.081 128.115 250.916 127.292 242.79C127.826 242.282 128.576 241.792 129.541 241.319C130.496 240.802 131.418 240.434 132.305 240.216L155.638 272.517C156.504 266.282 157.392 259.946 158.303 253.511C159.257 247.065 160.151 240.658 160.984 234.289C161.607 233.76 162.362 233.291 163.25 232.885C164.182 232.467 165.092 232.149 165.98 231.931L183.244 278.006C182.71 278.514 181.95 278.96 180.962 279.344C179.985 279.773 179.009 280.107 178.033 280.347L163.189 240.381C162.335 246.473 161.475 252.542 160.611 258.59C159.79 264.626 159.015 270.463 158.285 276.101Z" fill="#3A4B18"/>
<path d="M193.438 229.433C193.175 230.229 192.696 231.114 192.001 232.088C191.298 233.016 190.641 233.703 190.029 234.149C189.295 233.966 188.428 233.577 187.427 232.981C186.418 232.34 185.618 231.705 185.03 231.075C185.329 230.225 185.826 229.313 186.521 228.339C187.215 227.366 187.864 226.634 188.466 226.144C189.209 226.371 190.085 226.805 191.095 227.446C192.149 228.078 192.93 228.74 193.438 229.433ZM188.728 242.503C189.412 241.95 190.184 241.497 191.046 241.142C191.953 240.779 192.877 240.506 193.819 240.322L200.57 274.896C200.012 275.377 199.231 275.786 198.226 276.122C197.274 276.494 196.35 276.768 195.453 276.943L188.728 242.503Z" fill="#3A4B18"/>
<path d="M271.339 264.666C271.095 264.927 270.707 265.136 270.174 265.295C269.647 265.499 269.18 265.626 268.772 265.677L231.813 226.291C232.299 229.822 232.78 233.307 233.255 236.747C233.775 240.182 234.273 243.619 234.748 247.059C235.269 250.494 235.795 253.973 236.326 257.499C236.898 260.973 237.506 264.557 238.151 268.253C237.697 268.677 236.986 269.065 236.017 269.417C235.048 269.768 234.11 270 233.203 270.113C232.802 266.157 232.415 262.315 232.042 258.585C231.663 254.811 231.279 250.991 230.889 247.126C230.493 243.216 230.084 239.192 229.66 235.055C229.23 230.872 228.789 226.415 228.337 221.682C229.063 221.224 229.888 220.821 230.811 220.476C231.781 220.125 232.741 219.89 233.693 219.771L267.108 255.663C266.181 248.964 265.245 242.381 264.3 235.915C263.401 229.442 262.479 223.341 261.534 217.612C262.248 217.062 263.048 216.64 263.932 216.346C264.856 216 265.703 215.779 266.474 215.683C267.152 222.966 267.914 230.744 268.762 239.019C269.61 247.293 270.469 255.842 271.339 264.666Z" fill="#3A4B18"/>
<path d="M287.664 244.398C287.835 247.271 288.325 249.759 289.137 251.862C289.994 253.963 291.035 255.709 292.262 257.101C293.532 258.445 294.941 259.437 296.489 260.077C298.083 260.715 299.724 260.984 301.412 260.884C305.061 260.667 307.771 259.294 309.543 256.763C311.313 254.186 312.052 250.435 311.76 245.509C311.619 243.138 311.214 240.942 310.545 238.922C309.876 236.902 308.95 235.171 307.766 233.731C306.628 232.288 305.258 231.179 303.655 230.405C302.053 229.63 300.249 229.302 298.242 229.421C296.782 229.508 295.385 229.865 294.049 230.494C292.713 231.122 291.556 232.06 290.577 233.309C289.596 234.511 288.817 236.045 288.241 237.91C287.708 239.726 287.516 241.889 287.664 244.398ZM282.043 246.859C281.878 244.077 282.227 241.47 283.09 239.039C283.95 236.562 285.174 234.43 286.761 232.642C288.392 230.806 290.319 229.342 292.543 228.249C294.809 227.107 297.243 226.46 299.842 226.306C302.67 226.138 305.139 226.472 307.248 227.308C309.403 228.142 311.189 229.317 312.606 230.835C314.069 232.351 315.183 234.161 315.949 236.267C316.76 238.37 317.236 240.608 317.377 242.979C317.542 245.761 317.263 248.387 316.539 250.856C315.816 253.324 314.688 255.52 313.154 257.441C311.663 259.315 309.785 260.845 307.522 262.032C305.258 263.219 302.643 263.9 299.679 264.076C297.489 264.206 295.367 263.92 293.311 263.218C291.256 262.516 289.407 261.435 287.764 259.977C286.167 258.515 284.846 256.694 283.801 254.513C282.8 252.284 282.214 249.733 282.043 246.859Z" fill="#3A4B18"/>
<path d="M343.194 260.841C342.64 261.199 341.882 261.461 340.92 261.63C339.958 261.844 339.042 261.945 338.174 261.932C337.159 259.495 336.125 256.807 335.072 253.866C334.066 250.881 333.082 247.851 332.123 244.775C331.209 241.654 330.341 238.58 329.518 235.552C328.741 232.478 328.098 229.59 327.59 226.887C329.111 225.995 330.9 225.565 332.955 225.595C333.288 227.794 333.755 230.199 334.356 232.813C334.958 235.381 335.649 238.064 336.43 240.863C337.211 243.662 338.061 246.485 338.978 249.332C339.896 252.133 340.815 254.865 341.735 257.529C342.729 255.214 343.702 252.783 344.654 250.239C345.606 247.648 346.513 245.057 347.373 242.465C348.234 239.873 349.027 237.303 349.75 234.755C350.474 232.161 351.104 229.703 351.641 227.38C352.425 226.935 353.275 226.628 354.191 226.459C355.107 226.289 355.954 226.211 356.731 226.222C357.109 228.421 357.622 230.85 358.268 233.51C358.959 236.171 359.718 238.924 360.544 241.769C361.371 244.569 362.243 247.392 363.16 250.239C364.124 253.041 365.089 255.751 366.055 258.37C367.051 255.963 367.98 253.418 368.842 250.734C369.75 248.052 370.567 245.345 371.293 242.614C372.064 239.884 372.721 237.198 373.263 234.555C373.851 231.868 374.346 229.339 374.746 226.969C375.85 226.483 377.065 226.249 378.39 226.269C379.166 226.281 379.691 226.334 379.964 226.43C379.284 229.116 378.489 231.914 377.577 234.825C376.712 237.737 375.731 240.692 374.635 243.692C373.586 246.692 372.445 249.668 371.213 252.62C370.027 255.573 368.796 258.433 367.521 261.202C366.968 261.559 366.187 261.822 365.179 261.99C364.171 262.203 363.278 262.304 362.502 262.293C361.663 260.27 360.805 258.064 359.927 255.674C359.094 253.286 358.262 250.829 357.431 248.303C356.646 245.778 355.884 243.254 355.145 240.73C354.406 238.16 353.758 235.66 353.2 233.23C352.667 235.232 352.018 237.416 351.252 239.781C350.485 242.146 349.65 244.555 348.745 247.009C347.841 249.463 346.914 251.872 345.965 254.234C345.016 256.596 344.092 258.798 343.194 260.841Z" fill="#3A4B18"/>
<path d="M392.027 260.738C391.46 261.614 390.691 262.428 389.72 263.183C388.798 263.895 387.936 264.405 387.135 264.713C386.341 264.289 385.54 263.659 384.73 262.821C383.923 261.938 383.302 261.023 382.867 260.075C383.431 259.246 384.176 258.452 385.101 257.695C386.075 256.895 386.963 256.34 387.764 256.032C388.649 256.463 389.493 257.142 390.296 258.071C391.102 258.954 391.679 259.843 392.027 260.738Z" fill="#3A4B18"/>
<path d="M463.475 223.2C463.244 224.088 462.861 224.907 462.327 225.656C461.839 226.412 461.341 226.935 460.833 227.225C458.83 226.726 456.473 226.126 453.762 225.423C451.058 224.676 448.459 223.991 445.967 223.369L438.879 268.599C438.093 268.892 437.193 269.029 436.178 269.008C435.202 269.04 434.195 268.975 433.157 268.812L440.415 222.499C439.039 222.422 437.548 222.351 435.939 222.284C434.338 222.171 432.76 222.063 431.204 221.958C429.648 221.852 428.16 221.758 426.739 221.674C425.371 221.552 424.209 221.439 423.254 221.336C423.5 220.357 423.838 219.531 424.267 218.859C424.748 218.148 425.269 217.628 425.829 217.3L463.475 223.2Z" fill="#3A4B18"/>
<path d="M494.026 258.955C494.939 255.181 494.828 252.239 493.693 250.131C492.569 247.979 490.585 246.559 487.743 245.871C486.722 245.624 485.652 245.576 484.534 245.729C483.427 245.837 482.326 246.111 481.232 246.552C480.194 246.958 479.172 247.487 478.169 248.137C477.176 248.743 476.256 249.437 475.409 250.219L469.541 274.467C468.833 274.671 467.953 274.717 466.899 274.603C465.879 274.544 464.925 274.407 464.037 274.192L476.32 223.433C477.172 223.216 478.063 223.126 478.994 223.164C479.97 223.212 480.924 223.349 481.856 223.574L476.344 246.356C477.148 245.751 478.091 245.157 479.173 244.572C480.254 243.988 481.431 243.497 482.702 243.1C483.974 242.702 485.302 242.459 486.686 242.371C488.126 242.25 489.601 242.371 491.111 242.737C494.708 243.607 497.287 245.383 498.847 248.064C500.452 250.756 500.766 254.123 499.788 258.164L494.388 280.479C493.68 280.684 492.799 280.729 491.746 280.615C490.726 280.557 489.772 280.42 488.884 280.205L494.026 258.955Z" fill="#3A4B18"/>
<path d="M536.991 292.032C536.789 292.206 536.486 292.394 536.081 292.596C535.72 292.813 535.316 293.016 534.868 293.204C534.435 293.349 533.965 293.458 533.46 293.53C532.997 293.617 532.578 293.646 532.203 293.618C530.844 293.07 529.846 292.16 529.21 290.889C528.588 289.575 528.5 288.101 528.947 286.468C528.384 287.003 527.633 287.523 526.694 288.03C525.77 288.493 524.708 288.862 523.509 289.137C522.367 289.384 521.111 289.471 519.738 289.4C518.351 289.372 516.92 289.113 515.446 288.623C512.368 287.599 510.178 286.004 508.876 283.837C507.617 281.685 507.421 279.309 508.286 276.707C509.18 274.019 510.949 272.104 513.592 270.96C516.235 269.817 520.172 269.634 525.403 270.411L533.596 271.619L534.44 269.082C535.478 265.961 535.534 263.331 534.608 261.193C533.725 259.07 531.853 257.533 528.992 256.581C527.214 255.99 525.545 255.94 523.985 256.433C522.483 256.896 521.443 257.995 520.866 259.729C520.607 260.509 520.636 261.29 520.955 262.07C520.391 262.46 519.604 262.728 518.593 262.873C517.582 263.018 516.606 262.983 515.667 262.767C515.522 262.478 515.37 262.066 515.211 261.532C515.052 260.997 515.095 260.361 515.34 259.624C515.787 258.28 516.595 257.153 517.765 256.242C518.935 255.331 520.285 254.672 521.816 254.267C523.362 253.818 525.038 253.629 526.844 253.7C528.65 253.771 530.442 254.102 532.22 254.693C536.382 256.077 539.013 258.012 540.112 260.496C541.227 262.937 541.221 265.849 540.097 269.23L534.668 285.554C534.077 287.331 534.056 288.697 534.606 289.65C535.17 290.56 535.95 291.253 536.948 291.729L536.991 292.032ZM518.673 285.868C520.928 286.618 523.009 286.732 524.915 286.21C526.866 285.703 528.462 284.742 529.703 283.325L532.818 273.96L523.584 272.622C521.099 272.277 519.054 272.416 517.451 273.038C515.891 273.675 514.787 274.969 514.138 276.92C513.417 279.088 513.512 280.973 514.423 282.577C515.392 284.151 516.809 285.248 518.673 285.868Z" fill="#3A4B18"/>
<path d="M576.684 284.767C577.815 281.052 577.875 278.109 576.864 275.938C575.867 273.724 573.969 272.191 571.172 271.34C570.166 271.034 569.101 270.924 567.976 271.012C566.908 271.069 565.822 271.263 564.718 271.596C563.657 271.942 562.607 272.41 561.568 273.001C560.541 273.548 559.589 274.166 558.711 274.854L551.406 298.851C550.687 299.014 549.806 299.008 548.76 298.833C547.745 298.715 546.801 298.523 545.927 298.257L556.146 264.688C557.815 264.384 559.545 264.505 561.337 265.05L559.361 271.541C560.156 270.971 561.116 270.404 562.243 269.84C563.427 269.245 564.672 268.764 565.978 268.398C567.327 268.044 568.724 267.849 570.169 267.811C571.67 267.742 573.185 267.941 574.715 268.407C578.256 269.485 580.727 271.407 582.13 274.174C583.576 276.955 583.693 280.334 582.482 284.311L575.796 306.276C575.077 306.439 574.196 306.433 573.15 306.258C572.136 306.14 571.191 305.948 570.317 305.682L576.684 284.767Z" fill="#3A4B18"/>
<path d="M599.524 259.766C600.38 259.565 601.273 259.491 602.203 259.545C603.178 259.611 604.129 259.765 605.057 260.008L596.496 292.764C598.03 292.315 599.627 291.717 601.286 290.97C602.99 290.235 604.7 289.383 606.417 288.415C608.178 287.458 609.94 286.408 611.703 285.263C613.478 284.074 615.192 282.845 616.846 281.578C617.357 281.428 618.006 281.385 618.792 281.449C619.578 281.512 620.347 281.643 621.099 281.839C621.85 282.035 622.452 282.263 622.903 282.523C621.707 283.486 620.295 284.462 618.666 285.454C617.038 286.445 615.349 287.396 613.599 288.309C611.905 289.188 610.201 290.018 608.486 290.797C606.771 291.577 605.207 292.231 603.794 292.759C604.885 293.28 605.713 294.087 606.278 295.179C606.887 296.283 607.537 297.68 608.228 299.372L611.808 308.171C612.294 309.384 612.726 310.441 613.104 311.343C613.494 312.201 613.857 312.98 614.193 313.682C614.541 314.34 614.861 314.919 615.155 315.421C615.449 315.923 615.777 316.386 616.138 316.811L616.051 317.143C615.396 317.302 614.498 317.304 613.358 317.147C612.218 316.991 611.295 316.821 610.587 316.636C610.071 316.265 609.535 315.605 608.979 314.657C608.48 313.677 607.831 312.185 607.032 310.181L603.424 300.95C603.025 299.948 602.663 299.075 602.338 298.329C602.058 297.594 601.743 296.992 601.393 296.523C601.088 296.066 600.737 295.691 600.341 295.398C599.99 295.118 599.549 294.908 599.018 294.769C598.488 294.631 597.95 294.608 597.406 294.702C596.874 294.752 596.374 294.857 595.907 295.019L591.817 310.667C591.106 310.859 590.224 310.889 589.173 310.756C588.154 310.678 587.203 310.524 586.319 310.293L599.524 259.766Z" fill="#3A4B18"/>
<path d="M651.015 305.948C650.503 308.828 650.405 311.339 650.72 313.484C651.088 315.591 651.79 317.386 652.826 318.87C653.907 320.361 655.273 321.555 656.923 322.451C658.582 323.303 660.491 323.921 662.65 324.304C665.484 324.808 667.862 324.743 669.785 324.11C671.715 323.432 673.335 322.281 674.644 320.658C675.998 319.042 677.083 316.984 677.899 314.484C678.722 311.939 679.418 309.069 679.985 305.875C680.601 302.411 681.201 298.643 681.785 294.57C682.414 290.505 683.039 286.208 683.658 281.677C684.487 281.453 685.34 281.35 686.219 281.367C687.151 281.346 688.044 281.412 688.899 281.564C688.305 284.382 687.781 287.073 687.325 289.638C686.878 292.157 686.411 294.65 685.927 297.116C685.442 299.582 684.935 302.044 684.406 304.503C683.884 306.916 683.302 309.411 682.658 311.988C681.741 315.584 680.5 318.519 678.936 320.794C677.379 323.023 675.611 324.751 673.629 325.977C671.656 327.157 669.467 327.859 667.06 328.081C664.699 328.311 662.236 328.198 659.672 327.743C657.288 327.319 655.076 326.578 653.037 325.52C651.042 324.469 649.359 323.103 647.987 321.421C646.624 319.693 645.665 317.644 645.112 315.271C644.567 312.854 644.57 310.094 645.122 306.99L650.625 276.017C652.298 275.479 654.215 275.402 656.374 275.785L651.015 305.948Z" fill="#3A4B18"/>
<path d="M687.774 323.799C688.206 323.202 688.861 322.676 689.738 322.219C690.66 321.768 691.603 321.548 692.566 321.561C692.633 323.912 693.537 325.963 695.278 327.714C697.068 329.425 699.463 330.442 702.461 330.767C705.323 331.077 707.501 330.693 708.997 329.614C710.543 328.495 711.417 327.004 711.619 325.141C711.82 323.279 711.319 321.754 710.115 320.567C708.956 319.384 706.852 318.237 703.801 317.125L699.892 315.668C698.477 315.147 697.204 314.595 696.073 314.013C694.986 313.436 694.046 312.782 693.252 312.053C692.508 311.283 691.958 310.419 691.602 309.461C691.246 308.504 691.14 307.366 691.283 306.049C691.435 304.641 691.946 303.317 692.816 302.079C693.69 300.795 694.82 299.699 696.205 298.792C697.636 297.89 699.223 297.235 700.968 296.827C702.763 296.378 704.66 296.261 706.658 296.478C708.703 296.699 710.402 297.136 711.756 297.788C713.115 298.395 714.209 299.111 715.039 299.937C715.919 300.721 716.519 301.545 716.839 302.407C717.205 303.273 717.376 304.027 717.352 304.668C716.966 305.27 716.359 305.778 715.533 306.194C714.711 306.565 713.841 306.746 712.923 306.739C712.792 304.978 712.069 303.383 710.753 301.954C709.437 300.525 707.326 299.652 704.418 299.337C703.464 299.234 702.496 299.267 701.512 299.436C700.579 299.565 699.722 299.84 698.941 300.261C698.16 300.682 697.503 301.231 696.97 301.908C696.442 302.541 696.127 303.334 696.023 304.287C695.856 305.832 696.266 307.14 697.253 308.212C698.244 309.239 700.069 310.218 702.725 311.149L706.771 312.621C710.614 314.049 713.293 315.626 714.806 317.352C716.37 319.038 717.024 321.062 716.768 323.424C716.606 324.923 716.105 326.363 715.266 327.743C714.432 329.077 713.295 330.241 711.855 331.234C710.419 332.181 708.713 332.869 706.736 333.299C704.755 333.773 702.538 333.878 700.085 333.612C697.95 333.381 696.117 332.906 694.586 332.189C693.05 331.517 691.759 330.711 690.712 329.77C689.71 328.834 688.966 327.858 688.479 326.84C687.996 325.776 687.762 324.763 687.774 323.799Z" fill="#3A4B18"/>
<path d="M748.07 333.004C751.77 332.859 755.608 332.667 759.582 332.429C763.557 332.191 768.034 331.906 773.013 331.574C772.925 332.625 772.675 333.563 772.266 334.386C771.857 335.164 771.401 335.69 770.899 335.966L742.457 336.033L742.341 287.373C743.893 286.547 745.765 286.131 747.958 286.126L748.07 333.004Z" fill="#3A4B18"/>
<path d="M810.492 329.407C810.378 329.648 810.177 329.943 809.89 330.293C809.649 330.638 809.362 330.988 809.03 331.342C808.693 331.651 808.308 331.941 807.876 332.213C807.489 332.481 807.118 332.678 806.764 332.805C805.3 332.858 804.018 332.433 802.919 331.532C801.816 330.585 801.135 329.275 800.878 327.601C800.582 328.319 800.108 329.1 799.457 329.945C798.801 330.745 797.982 331.514 796.999 332.254C796.057 332.944 794.944 333.536 793.662 334.03C792.384 334.569 790.971 334.915 789.425 335.067C786.197 335.386 783.547 334.821 781.476 333.373C779.45 331.92 778.303 329.829 778.033 327.101C777.755 324.282 778.59 321.812 780.539 319.692C782.488 317.571 786.009 315.8 791.102 314.379L799.077 312.146L798.815 309.486C798.492 306.212 797.472 303.787 795.755 302.212C794.084 300.632 791.748 299.991 788.747 300.287C786.883 300.471 785.339 301.105 784.114 302.19C782.931 303.225 782.429 304.652 782.609 306.471C782.689 307.29 783.034 307.99 783.643 308.573C783.287 309.159 782.677 309.724 781.813 310.269C780.948 310.813 780.043 311.178 779.097 311.363C778.847 311.158 778.541 310.844 778.178 310.421C777.815 309.997 777.595 309.399 777.518 308.626C777.379 307.217 777.658 305.858 778.356 304.549C779.053 303.241 780.018 302.09 781.252 301.096C782.481 300.056 783.934 299.201 785.613 298.53C787.291 297.86 789.062 297.432 790.927 297.248C795.292 296.817 798.482 297.512 800.499 299.334C802.51 301.109 803.691 303.77 804.041 307.317L805.731 324.436C805.915 326.301 806.452 327.556 807.342 328.203C808.228 328.804 809.223 329.119 810.328 329.148L810.492 329.407ZM791.251 331.237C793.616 331.004 795.562 330.261 797.092 329.008C798.666 327.751 799.732 326.222 800.289 324.422L799.32 314.601L790.342 317.14C787.931 317.837 786.121 318.796 784.91 320.018C783.744 321.235 783.263 322.866 783.465 324.912C783.689 327.186 784.544 328.869 786.029 329.962C787.555 331.005 789.296 331.43 791.251 331.237Z" fill="#3A4B18"/>
<path d="M806.964 299.025C807.23 298.464 807.707 297.91 808.395 297.362C809.119 296.762 809.953 296.373 810.896 296.196L813.051 295.792L811.233 286.092C811.842 285.373 812.593 284.791 813.486 284.345C814.415 283.845 815.328 283.511 816.227 283.343L818.373 294.795L831.576 292.32C831.674 293.091 831.572 293.785 831.269 294.399C831.002 294.961 830.577 295.296 829.993 295.406L818.878 297.489L823.02 319.584C823.289 321.021 823.665 322.159 824.148 322.998C824.667 323.784 825.265 324.369 825.941 324.754C826.618 325.139 827.355 325.349 828.152 325.386C828.949 325.422 829.752 325.365 830.56 325.213C832.042 324.935 833.222 324.412 834.101 323.643C834.979 322.874 835.674 322.116 836.185 321.37C836.847 321.431 837.323 321.737 837.612 322.287C837.455 322.689 837.184 323.228 836.799 323.904C836.415 324.581 835.873 325.286 835.174 326.022C834.467 326.712 833.59 327.365 832.543 327.979C831.496 328.594 830.276 329.032 828.884 329.293C827.627 329.528 826.407 329.594 825.226 329.49C824.044 329.386 822.959 329.055 821.971 328.497C821.028 327.93 820.196 327.086 819.475 325.966C818.753 324.846 818.224 323.388 817.888 321.592L813.557 298.487L807.09 299.699L806.964 299.025Z" fill="#3A4B18"/>
<path d="M842.447 307.436C843.243 309.776 844.246 311.749 845.454 313.356C846.694 314.907 848.052 316.117 849.529 316.985C851.005 317.853 852.577 318.386 854.245 318.584C855.946 318.726 857.654 318.557 859.37 318.077C861.526 317.474 863.294 316.671 864.674 315.669C866.098 314.654 867.276 313.352 868.208 311.763C868.861 311.723 869.396 312.024 869.813 312.667C869.64 313.237 869.3 313.972 868.793 314.873C868.33 315.762 867.618 316.696 866.659 317.676C865.743 318.644 864.555 319.569 863.094 320.452C861.689 321.366 859.952 322.113 857.884 322.691C855.684 323.306 853.527 323.482 851.414 323.219C849.3 322.956 847.33 322.273 845.504 321.17C843.677 320.068 842.039 318.533 840.588 316.567C839.18 314.588 838.089 312.213 837.314 309.44C836.601 306.888 836.371 304.367 836.623 301.877C836.864 299.343 837.498 297.03 838.527 294.94C839.6 292.837 841.013 291.019 842.766 289.485C844.552 287.895 846.61 286.774 848.942 286.122C851.451 285.421 853.636 285.261 855.497 285.641C857.359 286.022 858.937 286.744 860.23 287.806C861.567 288.855 862.633 290.123 863.428 291.608C864.267 293.082 864.895 294.567 865.313 296.063C865.109 296.689 864.754 297.286 864.249 297.855C863.787 298.411 863.236 298.897 862.593 299.314L842.447 307.436ZM848.057 289.572C846.692 289.953 845.484 290.552 844.431 291.368C843.378 292.184 842.554 293.221 841.956 294.479C841.359 295.738 840.996 297.239 840.867 298.983C840.782 300.714 841.031 302.708 841.614 304.965L859.692 297.847C859.675 297.615 859.635 297.389 859.574 297.169C859.512 296.949 859.457 296.751 859.408 296.575C859.026 295.211 858.5 294.006 857.828 292.96C857.156 291.915 856.329 291.078 855.348 290.451C854.41 289.812 853.323 289.404 852.088 289.228C850.896 289.039 849.553 289.154 848.057 289.572Z" fill="#3A4B18"/>
<path d="M867.798 282.154C868.944 280.904 870.417 279.947 872.218 279.283L875.631 288.544C875.586 287.099 875.714 285.664 876.016 284.238C876.303 282.769 876.773 281.403 877.427 280.139C878.124 278.859 878.999 277.733 880.053 276.761C881.091 275.745 882.36 274.961 883.861 274.408C885.018 273.981 886.097 273.803 887.096 273.873C888.08 273.9 888.953 274.089 889.716 274.441C890.463 274.75 891.092 275.2 891.602 275.791C892.155 276.366 892.571 276.968 892.851 277.595C892.729 278.322 892.319 279.057 891.619 279.802C890.963 280.531 890.243 281.088 889.46 281.474C888.819 280.396 887.968 279.541 886.907 278.909C885.847 278.277 884.459 278.278 882.744 278.91C881.501 279.368 880.478 280.159 879.675 281.283C878.914 282.391 878.372 283.759 878.047 285.389C877.707 286.975 877.611 288.763 877.76 290.753C877.952 292.728 878.379 294.811 879.04 297.002L884.658 312.242C884.184 312.806 883.478 313.335 882.539 313.827C881.659 314.346 880.79 314.763 879.933 315.079L867.798 282.154Z" fill="#3A4B18"/>
<path d="M908.861 300.192C908.752 301.229 908.436 302.304 907.912 303.416C907.413 304.469 906.876 305.314 906.302 305.952C905.402 305.934 904.402 305.735 903.3 305.356C902.181 304.934 901.213 304.4 900.396 303.752C900.522 302.757 900.826 301.712 901.308 300.618C901.814 299.463 902.354 298.567 902.928 297.929C903.912 297.911 904.972 298.135 906.109 298.598C907.228 299.02 908.146 299.551 908.861 300.192Z" fill="#3A4B18"/>
<path d="M913.858 249.24C915.257 247.757 917.011 246.119 919.123 244.325C921.234 242.531 923.714 240.907 926.563 239.455C929.331 238.043 931.807 237.166 933.991 236.822C936.175 236.478 938.085 236.504 939.723 236.9C941.361 237.295 942.746 238 943.878 239.013C945.009 240.026 945.897 241.163 946.54 242.425C947.267 243.849 947.697 245.297 947.831 246.767C947.985 248.176 947.914 249.546 947.618 250.876C947.301 252.166 946.8 253.396 946.114 254.566C945.429 255.736 944.609 256.795 943.656 257.742C947.632 256.587 950.972 256.5 953.677 257.48C956.382 258.46 958.419 260.293 959.789 262.98C960.847 265.056 961.324 267.198 961.219 269.405C961.092 271.572 960.455 273.692 959.307 275.765C958.158 277.838 956.518 279.802 954.387 281.658C952.318 283.534 949.858 285.198 947.009 286.65C944.933 287.709 942.907 288.614 940.93 289.365C938.954 290.116 937.069 290.743 935.275 291.248L913.858 249.24ZM936.717 264.049C935.211 264.817 933.888 265.543 932.75 266.226C931.631 266.848 930.644 267.479 929.791 268.119L938.756 285.704C940.123 285.468 941.622 285.089 943.253 284.565C944.904 283.98 946.441 283.324 947.866 282.598C949.616 281.706 951.1 280.693 952.317 279.559C953.575 278.405 954.536 277.172 955.2 275.859C955.843 274.505 956.149 273.093 956.117 271.622C956.105 270.089 955.684 268.509 954.854 266.881C953.941 265.09 952.807 263.77 951.451 262.923C950.096 262.075 948.601 261.606 946.965 261.517C945.35 261.366 943.665 261.533 941.912 262.016C940.158 262.5 938.427 263.178 936.717 264.049ZM937.544 260.089C938.786 259.405 939.852 258.579 940.743 257.612C941.614 256.604 942.25 255.536 942.649 254.409C943.069 253.221 943.233 251.983 943.141 250.696C943.07 249.348 942.681 247.982 941.975 246.598C940.502 243.708 938.424 241.947 935.742 241.314C933.101 240.66 929.827 241.329 925.919 243.322C924.576 244.006 923.356 244.731 922.258 245.496C921.14 246.22 920.165 246.922 919.332 247.603L928.359 265.31C929.355 264.648 930.525 263.924 931.867 263.137C933.21 262.35 934.797 261.49 936.629 260.556L937.544 260.089Z" fill="#3A4B18"/>
<path d="M1000.37 254.142C1000.36 254.408 1000.29 254.757 1000.16 255.19C1000.07 255.602 999.935 256.035 999.764 256.49C999.572 256.904 999.328 257.32 999.034 257.737C998.779 258.133 998.513 258.458 998.234 258.711C996.903 259.322 995.556 259.423 994.195 259.013C992.813 258.562 991.681 257.614 990.801 256.168C990.803 256.944 990.666 257.848 990.389 258.878C990.091 259.868 989.63 260.893 989.007 261.954C988.402 262.953 987.603 263.926 986.608 264.875C985.635 265.864 984.464 266.726 983.096 267.461C980.238 268.995 977.574 269.492 975.105 268.95C972.677 268.387 970.814 266.898 969.517 264.483C968.177 261.987 968 259.386 968.984 256.679C969.968 253.973 972.539 250.985 976.696 247.716L983.2 242.59L981.936 240.235C980.38 237.337 978.507 235.49 976.317 234.695C974.167 233.879 971.764 234.184 969.107 235.61C967.457 236.496 966.275 237.675 965.561 239.148C964.866 240.558 964.951 242.068 965.815 243.678C966.205 244.403 966.792 244.917 967.577 245.222C967.475 245.899 967.129 246.655 966.54 247.49C965.951 248.325 965.255 249.01 964.453 249.544C964.144 249.451 963.74 249.278 963.242 249.027C962.744 248.776 962.311 248.308 961.944 247.624C961.274 246.376 961.01 245.014 961.151 243.538C961.292 242.062 961.741 240.628 962.497 239.237C963.233 237.805 964.246 236.457 965.538 235.193C966.83 233.929 968.301 232.854 969.952 231.967C973.816 229.893 977.029 229.309 979.59 230.215C982.13 231.082 984.243 233.085 985.928 236.225L994.065 251.381C994.952 253.032 995.93 253.984 997 254.24C998.049 254.454 999.089 254.363 1000.12 253.965L1000.37 254.142ZM983.31 263.223C985.403 262.099 986.915 260.665 987.845 258.921C988.816 257.155 989.213 255.335 989.036 253.459L984.368 244.764L977.054 250.557C975.097 252.127 973.793 253.708 973.145 255.301C972.536 256.872 972.718 258.564 973.691 260.375C974.771 262.388 976.207 263.614 977.998 264.052C979.808 264.429 981.579 264.153 983.31 263.223Z" fill="#3A4B18"/>
<path d="M1021.63 221.786C1019.85 218.334 1017.84 216.182 1015.61 215.331C1013.35 214.439 1010.92 214.663 1008.32 216.003C1007.39 216.485 1006.55 217.149 1005.8 217.996C1005.07 218.781 1004.43 219.678 1003.87 220.686C1003.35 221.674 1002.93 222.741 1002.59 223.89C1002.24 224.998 1001.99 226.104 1001.84 227.21L1013.33 249.506C1012.93 250.124 1012.29 250.735 1011.42 251.338C1010.61 251.961 1009.8 252.482 1008.99 252.9L992.911 221.71C993.895 220.329 995.22 219.209 996.885 218.351L999.993 224.382C1000.17 223.419 1000.46 222.343 1000.87 221.152C1001.31 219.9 1001.86 218.688 1002.55 217.515C1003.27 216.321 1004.13 215.207 1005.14 214.172C1006.17 213.077 1007.39 212.163 1008.82 211.43C1012.11 209.734 1015.22 209.389 1018.15 210.396C1021.13 211.381 1023.57 213.721 1025.47 217.417L1035.99 237.825C1035.59 238.443 1034.95 239.054 1034.08 239.657C1033.27 240.28 1032.46 240.801 1031.65 241.219L1021.63 221.786Z" fill="#3A4B18"/>
<path d="M1062.99 202.307C1061.4 198.765 1059.51 196.51 1057.32 195.541C1055.11 194.531 1052.67 194.626 1050.01 195.825C1049.05 196.257 1048.17 196.875 1047.38 197.682C1046.58 198.446 1045.88 199.338 1045.28 200.356C1044.71 201.315 1044.23 202.358 1043.83 203.488C1043.42 204.575 1043.12 205.688 1042.93 206.825L1053.17 229.575C1052.73 230.171 1052.07 230.747 1051.16 231.303C1050.32 231.882 1049.49 232.359 1048.65 232.734L1027.22 185.109C1027.76 184.415 1028.41 183.798 1029.17 183.256C1029.97 182.696 1030.81 182.219 1031.68 181.825L1041.3 203.2C1041.56 202.229 1041.94 201.181 1042.44 200.056C1042.94 198.931 1043.56 197.822 1044.33 196.728C1045.09 195.635 1045.99 194.628 1047.03 193.71C1048.09 192.731 1049.33 191.922 1050.74 191.285C1054.12 189.766 1057.25 189.587 1060.12 190.748C1063.04 191.89 1065.35 194.356 1067.06 198.148L1076.48 219.086C1076.05 219.681 1075.38 220.257 1074.48 220.814C1073.64 221.393 1072.8 221.87 1071.96 222.245L1062.99 202.307Z" fill="#3A4B18"/>
<path d="M1131.97 191.339C1131.82 191.622 1131.57 191.909 1131.23 192.2C1130.87 192.447 1130.47 192.707 1130.03 192.98C1129.63 193.24 1129.2 193.484 1128.74 193.713C1128.27 193.898 1127.84 194.049 1127.45 194.164L1103.08 163.876C1103.78 167.387 1104.49 170.962 1105.22 174.604C1105.99 178.189 1106.74 181.752 1107.5 185.293C1108.28 188.778 1109.05 192.219 1109.8 195.615C1110.59 198.955 1111.36 202.158 1112.12 205.222C1111.57 205.809 1110.82 206.316 1109.85 206.743C1108.93 207.201 1107.99 207.571 1107.03 207.853C1105.72 199.954 1104.44 191.925 1103.19 183.768C1101.95 175.611 1100.74 167.491 1099.56 159.409C1100.07 158.878 1100.8 158.356 1101.74 157.841C1102.68 157.283 1103.58 156.875 1104.46 156.618L1129.17 187.874C1129.77 181.606 1130.38 175.238 1131.01 168.77C1131.68 162.288 1132.3 155.848 1132.85 149.449C1133.45 148.893 1134.18 148.392 1135.05 147.947C1135.97 147.489 1136.86 147.132 1137.74 146.875L1156.99 192.156C1156.48 192.686 1155.74 193.165 1154.77 193.591C1153.81 194.062 1152.85 194.439 1151.89 194.721L1135.32 155.439C1134.73 161.562 1134.14 167.663 1133.54 173.743C1132.98 179.809 1132.46 185.674 1131.97 191.339Z" fill="#3A4B18"/>
<path d="M1167.31 143.645C1167.06 144.443 1166.58 145.331 1165.89 146.308C1165.2 147.241 1164.54 147.932 1163.93 148.381C1163.2 148.203 1162.33 147.819 1161.32 147.229C1160.31 146.594 1159.51 145.964 1158.92 145.337C1159.21 144.486 1159.7 143.571 1160.39 142.593C1161.08 141.616 1161.72 140.88 1162.32 140.386C1163.07 140.609 1163.95 141.038 1164.96 141.673C1166.02 142.298 1166.8 142.956 1167.31 143.645ZM1162.68 156.743C1163.36 156.187 1164.13 155.729 1164.99 155.369C1165.9 155 1166.82 154.721 1167.76 154.531L1174.72 189.064C1174.17 189.549 1173.39 189.962 1172.38 190.304C1171.43 190.682 1170.51 190.961 1169.62 191.142L1162.68 156.743Z" fill="#3A4B18"/>
<path d="M1245.22 180.36C1244.97 180.612 1244.57 180.809 1244.03 180.95C1243.5 181.136 1243.03 181.248 1242.62 181.285L1206.99 140.695C1207.36 144.24 1207.72 147.739 1208.08 151.193C1208.49 154.643 1208.87 158.095 1209.23 161.549C1209.64 164.999 1210.05 168.494 1210.46 172.035C1210.92 175.526 1211.41 179.129 1211.93 182.844C1211.46 183.253 1210.74 183.618 1209.76 183.936C1208.78 184.255 1207.83 184.456 1206.92 184.539C1206.65 180.572 1206.39 176.719 1206.14 172.979C1205.89 169.194 1205.63 165.364 1205.37 161.488C1205.11 157.567 1204.83 153.531 1204.54 149.382C1204.25 145.188 1203.96 140.718 1203.67 135.974C1204.41 135.539 1205.24 135.165 1206.18 134.85C1207.16 134.531 1208.13 134.328 1209.08 134.241L1241.29 171.221C1240.58 164.495 1239.87 157.885 1239.14 151.391C1238.45 144.892 1237.73 138.764 1236.98 133.006C1237.71 132.48 1238.52 132.085 1239.42 131.82C1240.35 131.506 1241.21 131.313 1241.98 131.243C1242.42 138.544 1242.92 146.343 1243.49 154.641C1244.07 162.939 1244.64 171.512 1245.22 180.36Z" fill="#3A4B18"/>
<path d="M1263.31 160.921C1263.33 163.799 1263.68 166.31 1264.38 168.453C1265.13 170.596 1266.07 172.395 1267.23 173.85C1268.42 175.259 1269.78 176.325 1271.29 177.046C1272.85 177.768 1274.47 178.123 1276.16 178.113C1279.82 178.09 1282.6 176.863 1284.5 174.429C1286.4 171.95 1287.34 168.243 1287.31 163.309C1287.3 160.933 1287.01 158.719 1286.45 156.666C1285.89 154.614 1285.05 152.837 1283.95 151.336C1282.89 149.834 1281.58 148.654 1280.02 147.796C1278.46 146.937 1276.68 146.514 1274.66 146.527C1273.2 146.536 1271.79 146.819 1270.42 147.375C1269.05 147.932 1267.85 148.808 1266.8 150.002C1265.76 151.151 1264.9 152.641 1264.23 154.473C1263.6 156.259 1263.29 158.408 1263.31 160.921ZM1257.56 163.081C1257.55 160.294 1258.03 157.709 1259.02 155.327C1260.01 152.899 1261.35 150.835 1263.03 149.134C1264.76 147.387 1266.76 146.027 1269.04 145.054C1271.36 144.034 1273.82 143.516 1276.43 143.5C1279.26 143.483 1281.71 143.947 1283.77 144.894C1285.88 145.841 1287.6 147.11 1288.93 148.701C1290.31 150.291 1291.33 152.158 1291.98 154.302C1292.68 156.445 1293.04 158.705 1293.05 161.08C1293.07 163.867 1292.65 166.474 1291.8 168.901C1290.95 171.328 1289.7 173.46 1288.07 175.298C1286.48 177.09 1284.53 178.518 1282.2 179.584C1279.88 180.649 1277.23 181.191 1274.26 181.209C1272.07 181.222 1269.96 180.824 1267.95 180.014C1265.93 179.204 1264.14 178.027 1262.58 176.483C1261.06 174.939 1259.84 173.05 1258.91 170.817C1258.03 168.538 1257.58 165.959 1257.56 163.081Z" fill="#3A4B18"/>
<path d="M1317.94 180.378C1317.37 180.705 1316.6 180.927 1315.63 181.044C1314.66 181.206 1313.74 181.258 1312.87 181.199C1311.99 178.711 1311.1 175.971 1310.2 172.979C1309.36 169.944 1308.54 166.866 1307.74 163.743C1307 160.578 1306.3 157.461 1305.64 154.394C1305.02 151.283 1304.54 148.365 1304.17 145.638C1305.74 144.829 1307.55 144.495 1309.6 144.635C1309.82 146.848 1310.15 149.276 1310.61 151.918C1311.08 154.514 1311.62 157.23 1312.25 160.067C1312.88 162.904 1313.58 165.768 1314.35 168.66C1315.11 171.506 1315.88 174.284 1316.66 176.993C1317.78 174.734 1318.88 172.359 1319.96 169.869C1321.05 167.333 1322.1 164.794 1323.1 162.251C1324.09 159.709 1325.02 157.185 1325.88 154.679C1326.74 152.128 1327.5 149.707 1328.16 147.416C1328.97 147.013 1329.84 146.752 1330.76 146.632C1331.68 146.512 1332.53 146.479 1333.31 146.532C1333.57 148.748 1333.95 151.201 1334.45 153.892C1335 156.586 1335.61 159.375 1336.29 162.261C1336.96 165.1 1337.68 167.966 1338.45 170.858C1339.26 173.707 1340.08 176.465 1340.9 179.132C1342.02 176.782 1343.09 174.29 1344.09 171.656C1345.14 169.026 1346.1 166.367 1346.97 163.679C1347.89 160.994 1348.69 158.346 1349.37 155.737C1350.1 153.085 1350.73 150.586 1351.26 148.24C1352.39 147.814 1353.61 147.646 1354.93 147.736C1355.71 147.789 1356.23 147.871 1356.5 147.981C1355.67 150.626 1354.73 153.378 1353.67 156.236C1352.65 159.098 1351.51 161.997 1350.25 164.933C1349.05 167.873 1347.75 170.784 1346.36 173.666C1345.02 176.551 1343.64 179.342 1342.21 182.038C1341.64 182.366 1340.85 182.586 1339.83 182.7C1338.81 182.859 1337.92 182.912 1337.14 182.859C1336.41 180.794 1335.68 178.546 1334.93 176.113C1334.22 173.683 1333.52 171.185 1332.83 168.619C1332.18 166.056 1331.55 163.494 1330.95 160.934C1330.35 158.328 1329.84 155.797 1329.41 153.341C1328.77 155.312 1328 157.458 1327.11 159.778C1326.22 162.099 1325.26 164.46 1324.22 166.862C1323.19 169.265 1322.14 171.62 1321.06 173.928C1319.99 176.236 1318.95 178.386 1317.94 180.378Z" fill="#3A4B18"/>
<path d="M1365.82 182.538C1365.22 183.39 1364.41 184.172 1363.41 184.887C1362.46 185.561 1361.58 186.036 1360.77 186.311C1359.99 185.856 1359.22 185.193 1358.44 184.323C1357.67 183.408 1357.09 182.469 1356.69 181.504C1357.29 180.698 1358.07 179.935 1359.02 179.216C1360.03 178.456 1360.94 177.938 1361.75 177.663C1362.62 178.129 1363.43 178.842 1364.2 179.802C1364.97 180.717 1365.51 181.629 1365.82 182.538Z" fill="#3A4B18"/>
<path d="M1437.07 146.299C1436.83 147.185 1436.44 148 1435.89 148.744C1435.4 149.495 1434.9 150.014 1434.38 150.299C1432.39 149.781 1430.04 149.158 1427.33 148.429C1424.63 147.656 1422.04 146.946 1419.56 146.301L1412.03 191.46C1411.25 191.745 1410.34 191.873 1409.33 191.843C1408.35 191.866 1407.35 191.791 1406.31 191.618L1414.01 145.377C1412.64 145.287 1411.15 145.201 1409.54 145.118C1407.94 144.991 1406.36 144.867 1404.81 144.747C1403.25 144.627 1401.77 144.518 1400.35 144.42C1398.98 144.285 1397.82 144.162 1396.86 144.049C1397.12 143.072 1397.47 142.25 1397.9 141.581C1398.39 140.875 1398.92 140.361 1399.48 140.038L1437.07 146.299Z" fill="#3A4B18"/>
<path d="M1465.55 180.637C1466.34 176.834 1466.13 173.898 1464.93 171.828C1463.73 169.714 1461.71 168.36 1458.84 167.765C1457.81 167.552 1456.74 167.539 1455.63 167.728C1454.53 167.873 1453.44 168.183 1452.36 168.659C1451.33 169.099 1450.33 169.661 1449.35 170.344C1448.38 170.982 1447.48 171.706 1446.66 172.515L1441.59 196.941C1440.89 197.169 1440.01 197.244 1438.95 197.164C1437.93 197.139 1436.97 197.033 1436.08 196.848L1446.69 145.714C1447.54 145.469 1448.42 145.35 1449.36 145.357C1450.33 145.373 1451.29 145.478 1452.23 145.673L1447.47 168.623C1448.25 167.993 1449.17 167.368 1450.23 166.748C1451.3 166.129 1452.46 165.599 1453.71 165.161C1454.97 164.722 1456.29 164.436 1457.67 164.302C1459.11 164.133 1460.58 164.207 1462.11 164.523C1465.73 165.275 1468.37 166.965 1470.01 169.594C1471.71 172.232 1472.13 175.586 1471.28 179.657L1466.62 202.137C1465.92 202.365 1465.04 202.44 1463.98 202.36C1462.96 202.335 1462 202.229 1461.11 202.044L1465.55 180.637Z" fill="#3A4B18"/>
</svg>
