<svg width="51" height="51" viewBox="0 0 51 51" fill="none" xmlns="http://www.w3.org/2000/svg">
<circle cx="25.5" cy="25.5" r="25.5" fill="#FEF5F7"/>
<path d="M25.25 34.25L17.2188 26.2187C16.5781 25.5781 16.151 24.8333 15.9375 23.9844C15.7292 23.1354 15.7318 22.2917 15.9453 21.4531C16.1589 20.6094 16.5833 19.875 17.2188 19.25C17.8698 18.6094 18.612 18.1849 19.4453 17.9766C20.2839 17.763 21.1198 17.763 21.9531 17.9766C22.7917 18.1901 23.5365 18.6146 24.1875 19.25L25.25 20.2812L26.3125 19.25C26.9688 18.6146 27.7135 18.1901 28.5469 17.9766C29.3802 17.763 30.2135 17.763 31.0469 17.9766C31.8854 18.1849 32.6302 18.6094 33.2813 19.25C33.9167 19.875 34.3411 20.6094 34.5547 21.4531C34.7682 22.2917 34.7682 23.1354 34.5547 23.9844C34.3464 24.8333 33.9219 25.5781 33.2813 26.2187L25.25 34.25Z" fill="#F13A61"/>
</svg>
