<svg width="1440" height="235" viewBox="0 0 1440 235" fill="none" xmlns="http://www.w3.org/2000/svg">
<path d="M1058 78C1227.6 78 1396.33 173.333 1459.5 221V136.5C1393.83 91.3333 1221.6 1 1058 1C797 1 575 148.083 356.5 161.5C219.7 169.9 49.1667 133.333 -19 117.5V191C8 202 252 241.5 356.5 233C665.5 207.866 756 78 1058 78Z" fill="#A6CA60" stroke="white" stroke-width="1.5"/>
<path d="M23.2595 151.261C22.9507 151.591 22.5073 151.858 21.9295 152.061C21.3516 152.265 20.7019 152.325 19.9804 152.242C20.0171 151.591 19.9672 150.902 19.8309 150.177C19.7271 149.433 19.4647 148.716 19.0438 148.025C18.6486 147.34 18.075 146.705 17.3232 146.118C16.597 145.537 15.6299 145.086 14.4219 144.762C13.3423 144.473 12.2043 144.402 11.0077 144.55C9.81805 144.673 8.66237 145.079 7.54067 145.771C6.41897 146.462 5.37578 147.477 4.4111 148.817C3.479 150.137 2.73076 151.851 2.16636 153.959C1.60884 156.041 1.39601 157.967 1.52787 159.738C1.65972 161.509 2.06602 163.077 2.74679 164.444C3.43443 165.785 4.34513 166.911 5.47887 167.82C6.63832 168.737 7.96345 169.395 9.45424 169.794C11.1764 170.255 12.7043 170.361 14.0381 170.112C15.4045 169.845 16.6262 169.345 17.7034 168.615C17.8439 168.707 17.9963 168.858 18.1606 169.068C18.3249 169.277 18.4121 169.466 18.4222 169.634C18.1203 169.938 17.6657 170.299 17.0585 170.715C16.4513 171.13 15.6804 171.489 14.746 171.789C13.8441 172.071 12.7538 172.234 11.4751 172.277C10.2152 172.353 8.77558 172.174 7.15626 171.74C5.56265 171.314 4.09616 170.618 2.75679 169.653C1.4243 168.663 0.334598 167.434 -0.512323 165.968C-1.35236 164.476 -1.88536 162.763 -2.11131 160.829C-2.33038 158.87 -2.12675 156.721 -1.5004 154.382C-0.949772 152.326 -0.0608557 150.498 1.16634 148.898C2.40043 147.273 3.82616 145.96 5.44353 144.961C7.08661 143.969 8.84676 143.311 10.724 142.987C12.6269 142.67 14.5294 142.766 16.4314 143.276C17.9736 143.689 19.2131 144.255 20.1499 144.974C21.1125 145.7 21.8324 146.457 22.3098 147.246C22.8129 148.042 23.1164 148.812 23.2202 149.556C23.3565 150.281 23.3696 150.849 23.2595 151.261Z" fill="white"/>
<path d="M27.7482 155.488C28.7082 155.255 29.7312 155.271 30.8173 155.534L29.462 161.12C29.9088 160.407 30.4368 159.754 31.0458 159.163C31.661 158.546 32.3319 158.038 33.0584 157.639C33.8108 157.246 34.5996 156.986 35.4248 156.858C36.2563 156.703 37.1245 156.736 38.0296 156.956C38.7278 157.125 39.3072 157.389 39.7679 157.747C40.2349 158.08 40.5957 158.455 40.8503 158.872C41.1111 159.264 41.269 159.686 41.3237 160.137C41.4043 160.595 41.4105 161.021 41.3423 161.415C41.0475 161.727 40.6102 161.949 40.0303 162.082C39.4763 162.222 38.9473 162.258 38.4434 162.19C38.4835 161.461 38.3497 160.771 38.0419 160.121C37.734 159.472 37.0629 159.021 36.0286 158.77C35.2787 158.588 34.5272 158.639 33.774 158.921C33.0468 159.21 32.3402 159.696 31.6544 160.379C30.9748 161.035 30.3482 161.869 29.7743 162.879C29.2264 163.897 28.7567 165.042 28.3654 166.316L26.1349 175.509C25.7227 175.628 25.2098 175.654 24.5962 175.587C24.0022 175.553 23.4466 175.473 22.9295 175.347L27.7482 155.488Z" fill="white"/>
<path d="M50.2844 179.856C51.5307 180.136 52.7387 180.039 53.9086 179.565C55.0843 179.065 56.0686 178.263 56.8617 177.159L60.0333 163.022C60.5271 162.888 61.0453 162.827 61.5879 162.839C62.1564 162.858 62.7133 162.928 63.2585 163.05L58.7675 183.068C58.3574 183.195 57.871 183.235 57.3083 183.191C56.7658 183.178 56.2348 183.114 55.7156 182.997L56.5456 179.297C56.187 179.681 55.7186 180.066 55.1406 180.455C54.5944 180.823 53.9631 181.145 53.2468 181.421C52.5363 181.67 51.7495 181.835 50.8863 181.914C50.0492 181.999 49.1503 181.933 48.1896 181.718C47.229 181.502 46.3523 181.156 45.5596 180.678C44.7928 180.206 44.1648 179.601 43.6757 178.864C43.1924 178.101 42.8709 177.225 42.7113 176.235C42.5575 175.218 42.6233 174.074 42.9087 172.802L45.8183 159.833C46.3121 159.698 46.8303 159.637 47.3728 159.65C47.9414 159.669 48.4982 159.739 49.0435 159.861L46.2475 172.324C45.9854 173.492 45.9069 174.511 46.0119 175.38C46.1169 176.249 46.3607 176.985 46.7434 177.589C47.126 178.193 47.6157 178.685 48.2123 179.064C48.8408 179.423 49.5315 179.687 50.2844 179.856Z" fill="white"/>
<path d="M64.732 180.349C65.0162 180.028 65.4253 179.76 65.9592 179.544C66.5191 179.335 67.0781 179.26 67.636 179.322C67.5423 180.689 67.9506 181.928 68.8608 183.042C69.8024 184.134 71.133 184.859 72.8525 185.216C74.4938 185.557 75.7783 185.457 76.706 184.916C77.6652 184.354 78.2558 183.539 78.4777 182.471C78.6996 181.403 78.495 180.491 77.864 179.735C77.259 178.984 76.1037 178.2 74.398 177.384L72.2142 176.319C71.4238 175.937 70.717 175.546 70.0937 175.145C69.4965 174.749 68.9883 174.317 68.5691 173.849C68.1813 173.361 67.9113 172.829 67.759 172.254C67.6067 171.679 67.6091 171.014 67.766 170.258C67.9338 169.451 68.3046 168.712 68.8784 168.043C69.4576 167.348 70.1742 166.777 71.0282 166.329C71.9082 165.887 72.8654 165.597 73.8997 165.458C74.9655 165.299 76.0715 165.339 77.2178 165.577C78.3902 165.821 79.3504 166.17 80.0985 166.624C80.852 167.052 81.446 167.529 81.8805 168.054C82.3464 168.558 82.6479 169.07 82.7849 169.587C82.948 170.11 83.0047 170.557 82.955 170.927C82.6969 171.254 82.3166 171.515 81.8141 171.709C81.3171 171.878 80.8027 171.934 80.2708 171.878C80.2941 170.85 79.9647 169.885 79.2825 168.982C78.6004 168.079 77.4256 167.455 75.7583 167.108C75.2112 166.995 74.6478 166.959 74.0682 167.002C73.5201 167.024 73.0079 167.135 72.5315 167.335C72.0551 167.535 71.6434 167.816 71.2962 168.179C70.9545 168.515 70.7268 168.957 70.6132 169.504C70.4292 170.39 70.5929 171.172 71.1045 171.849C71.6216 172.5 72.6238 173.17 74.1112 173.859L76.3732 174.941C78.5207 175.985 79.9844 177.05 80.7644 178.136C81.5758 179.201 81.8407 180.411 81.5593 181.766C81.3807 182.626 81.0094 183.432 80.4454 184.184C79.8868 184.911 79.1621 185.521 78.2713 186.016C77.3858 186.484 76.3581 186.787 75.1881 186.924C74.0127 187.088 72.7216 187.023 71.3148 186.731C70.0903 186.477 69.0546 186.098 68.2077 185.596C67.3554 185.12 66.6523 184.58 66.0984 183.976C65.5706 183.377 65.1941 182.769 64.9691 182.151C64.7495 181.508 64.6705 180.907 64.732 180.349Z" fill="white"/>
<path d="M86.9409 169.652C87.2057 169.406 87.583 169.208 88.0728 169.059C88.5937 168.889 89.1284 168.858 89.677 168.965L90.9307 169.208L92.0277 163.566C92.5116 163.308 93.0431 163.154 93.6221 163.104C94.2322 163.033 94.7985 163.048 95.3209 163.15L94.0259 169.81L101.705 171.303C101.593 171.742 101.388 172.096 101.092 172.363C100.828 172.61 100.525 172.7 100.186 172.634L93.7212 171.377L91.2226 184.228C91.0601 185.064 91.0195 185.761 91.1007 186.319C91.2132 186.856 91.4113 187.301 91.695 187.654C91.9787 188.008 92.3324 188.28 92.7561 188.471C93.1798 188.661 93.6268 188.802 94.0969 188.894C94.9589 189.061 95.7102 189.031 96.3508 188.804C96.9915 188.576 97.5302 188.315 97.967 188.02C98.3123 188.196 98.5043 188.463 98.5427 188.823C98.3715 189.007 98.1092 189.24 97.7559 189.524C97.4025 189.808 96.9578 190.074 96.4216 190.322C95.8905 190.544 95.2756 190.709 94.5769 190.817C93.8782 190.925 93.124 190.9 92.3143 190.743C91.5829 190.601 90.9085 190.375 90.2911 190.065C89.6736 189.755 89.1574 189.343 88.7424 188.829C88.3535 188.319 88.0839 187.684 87.9337 186.923C87.7835 186.162 87.81 185.259 88.0131 184.214L90.626 170.776L86.8647 170.044L86.9409 169.652Z" fill="white"/>
<path d="M107.562 171.951C107.687 173.352 107.859 174.871 108.077 176.506C108.325 178.119 108.609 179.766 108.927 181.446C109.271 183.13 109.63 184.805 110.006 186.468C110.407 188.136 110.827 189.699 111.266 191.158C113.472 188.231 115.323 185.402 116.817 182.671C118.317 179.914 119.605 177.28 120.681 174.771C121.049 174.675 121.435 174.637 121.837 174.656C122.27 174.653 122.67 174.685 123.037 174.751C123.168 174.775 123.299 174.798 123.43 174.822C123.587 174.85 123.728 174.89 123.855 174.939C122.695 177.163 121.192 179.717 119.345 182.601C117.503 185.458 115.456 188.401 113.205 191.427C112.237 192.74 111.348 193.917 110.537 194.96C109.753 196.008 109.011 196.969 108.312 197.843C107.613 198.717 106.939 199.528 106.29 200.276C105.641 201.024 104.992 201.772 104.343 202.52C104.057 202.603 103.659 202.639 103.147 202.628C102.657 202.647 102.15 202.609 101.626 202.515C101.128 202.425 100.717 202.31 100.39 202.169L100.419 202.012C101.751 200.928 103.143 199.734 104.596 198.428C106.049 197.123 107.543 195.595 109.076 193.844C108.542 192.314 108.012 190.609 107.487 188.73C106.962 186.85 106.481 184.951 106.044 183.033C105.633 181.12 105.256 179.24 104.914 177.394C104.603 175.526 104.382 173.836 104.25 172.325C104.721 172.113 105.258 171.98 105.863 171.927C106.498 171.853 107.065 171.861 107.562 171.951Z" fill="white"/>
<path d="M140.333 183.453C139.987 185.688 139.959 187.703 140.247 189.498C140.561 191.297 141.1 192.861 141.863 194.191C142.631 195.494 143.599 196.546 144.768 197.346C145.963 198.15 147.271 198.662 148.691 198.881C151.715 199.349 154.216 198.672 156.194 196.851C158.198 195.034 159.521 192.048 160.164 187.893C160.477 185.868 160.51 184.002 160.262 182.294C160.019 180.56 159.526 179.044 158.785 177.744C158.074 176.423 157.123 175.347 155.932 174.516C154.767 173.69 153.396 173.155 151.818 172.911C150.556 172.716 149.296 172.763 148.04 173.053C146.81 173.348 145.67 173.926 144.622 174.787C143.603 175.625 142.713 176.767 141.952 178.211C141.194 179.628 140.654 181.376 140.333 183.453ZM136.627 184.172C136.973 181.937 137.669 179.958 138.717 178.235C139.794 176.49 141.081 175.047 142.577 173.905C144.099 172.767 145.772 171.962 147.595 171.49C149.444 171.022 151.329 170.937 153.249 171.234C155.326 171.555 157.099 172.193 158.567 173.147C160.061 174.105 161.25 175.298 162.133 176.727C163.016 178.156 163.601 179.768 163.889 181.563C164.181 183.331 164.174 185.201 163.869 187.173C163.532 189.356 162.901 191.345 161.977 193.141C161.053 194.937 159.879 196.438 158.454 197.645C157.029 198.851 155.372 199.726 153.484 200.269C151.622 200.815 149.587 200.918 147.378 200.576C145.616 200.304 143.997 199.717 142.521 198.816C141.071 197.918 139.85 196.76 138.858 195.341C137.87 193.896 137.157 192.238 136.72 190.366C136.313 188.472 136.282 186.408 136.627 184.172Z" fill="white"/>
<path d="M175.701 202.343C176.967 202.514 178.162 202.312 179.286 201.739C180.414 201.139 181.325 200.255 182.02 199.086L183.953 184.727C184.434 184.55 184.945 184.445 185.486 184.41C186.054 184.379 186.615 184.401 187.169 184.476L184.431 204.808C184.033 204.969 183.552 205.052 182.988 205.056C182.446 205.091 181.912 205.073 181.384 205.002L181.89 201.244C181.566 201.657 181.133 202.081 180.591 202.519C180.079 202.933 179.478 203.308 178.788 203.645C178.102 203.955 177.332 204.187 176.479 204.341C175.652 204.498 174.751 204.511 173.776 204.38C172.8 204.248 171.896 203.979 171.065 203.572C170.26 203.168 169.582 202.62 169.031 201.928C168.484 201.21 168.087 200.365 167.842 199.392C167.601 198.393 167.567 197.248 167.741 195.955L169.515 182.783C169.995 182.606 170.506 182.5 171.048 182.466C171.616 182.435 172.177 182.457 172.731 182.531L171.026 195.189C170.866 196.376 170.876 197.398 171.056 198.254C171.236 199.111 171.543 199.823 171.977 200.392C172.41 200.96 172.941 201.408 173.568 201.734C174.225 202.037 174.936 202.24 175.701 202.343Z" fill="white"/>
<path d="M190.972 186.6C191.218 186.335 191.58 186.11 192.058 185.925C192.565 185.718 193.096 185.647 193.651 185.713L194.919 185.864L195.598 180.157C196.062 179.864 196.581 179.671 197.154 179.578C197.758 179.463 198.323 179.436 198.852 179.499L198.05 186.237L205.818 187.161C205.738 187.607 205.56 187.975 205.285 188.264C205.039 188.529 204.744 188.641 204.401 188.601L197.861 187.822L196.314 200.822C196.213 201.667 196.224 202.365 196.346 202.916C196.497 203.443 196.728 203.872 197.037 204.204C197.346 204.536 197.718 204.781 198.155 204.94C198.591 205.099 199.048 205.207 199.523 205.264C200.395 205.367 201.142 205.282 201.764 205.008C202.387 204.734 202.905 204.434 203.319 204.108C203.676 204.257 203.887 204.51 203.952 204.866C203.794 205.062 203.55 205.314 203.219 205.623C202.887 205.932 202.463 206.23 201.947 206.517C201.433 206.777 200.832 206.987 200.143 207.146C199.454 207.305 198.7 207.336 197.881 207.239C197.141 207.151 196.452 206.975 195.814 206.711C195.175 206.448 194.63 206.075 194.178 205.592C193.753 205.113 193.438 204.499 193.232 203.751C193.026 203.003 192.986 202.101 193.112 201.044L194.73 187.449L190.925 186.996L190.972 186.6Z" fill="white"/>
<path d="M207.282 203.6C207.532 203.251 207.912 202.943 208.422 202.675C208.958 202.41 209.506 202.279 210.067 202.284C210.112 203.653 210.644 204.846 211.662 205.861C212.709 206.853 214.106 207.44 215.853 207.621C217.52 207.795 218.788 207.565 219.656 206.933C220.554 206.278 221.059 205.407 221.172 204.322C221.285 203.237 220.989 202.35 220.285 201.662C219.607 200.976 218.379 200.313 216.599 199.673L214.319 198.834C213.494 198.534 212.751 198.216 212.091 197.88C211.457 197.546 210.907 197.168 210.443 196.745C210.008 196.299 209.686 195.797 209.476 195.24C209.266 194.684 209.201 194.021 209.281 193.254C209.367 192.433 209.661 191.661 210.164 190.938C210.67 190.188 211.326 189.547 212.13 189.016C212.961 188.487 213.884 188.101 214.899 187.859C215.943 187.593 217.047 187.521 218.212 187.642C219.403 187.766 220.393 188.016 221.184 188.392C221.977 188.742 222.616 189.157 223.101 189.635C223.615 190.09 223.967 190.568 224.156 191.069C224.371 191.573 224.472 192.012 224.46 192.385C224.236 192.736 223.884 193.034 223.404 193.278C222.927 193.496 222.421 193.604 221.886 193.602C221.805 192.577 221.38 191.65 220.61 190.821C219.84 189.992 218.608 189.489 216.914 189.313C216.359 189.255 215.795 189.276 215.222 189.377C214.679 189.455 214.181 189.617 213.727 189.864C213.273 190.111 212.892 190.432 212.583 190.828C212.277 191.198 212.096 191.661 212.038 192.216C211.944 193.116 212.186 193.877 212.763 194.499C213.344 195.094 214.408 195.66 215.958 196.196L218.317 197.043C220.559 197.865 222.123 198.776 223.009 199.778C223.924 200.756 224.31 201.933 224.166 203.31C224.076 204.183 223.788 205.022 223.303 205.828C222.82 206.607 222.161 207.288 221.324 207.869C220.491 208.425 219.499 208.83 218.349 209.085C217.196 209.366 215.905 209.433 214.476 209.284C213.232 209.155 212.163 208.883 211.27 208.469C210.374 208.081 209.62 207.615 209.008 207.07C208.422 206.527 207.986 205.96 207.7 205.369C207.417 204.751 207.277 204.161 207.282 203.6Z" fill="white"/>
<path d="M236.059 183.463C235.782 183.866 235.37 184.282 234.823 184.714C234.279 185.119 233.799 185.396 233.385 185.545C233.004 185.324 232.583 184.965 232.12 184.468C231.66 183.946 231.317 183.46 231.09 183.012C231.396 182.586 231.822 182.157 232.369 181.726C232.916 181.294 233.398 180.991 233.814 180.815C234.193 181.063 234.612 181.448 235.072 181.971C235.559 182.496 235.888 182.994 236.059 183.463ZM231.297 190.005C231.769 189.807 232.275 189.679 232.815 189.621C233.381 189.566 233.942 189.563 234.499 189.614L232.644 210.045C232.254 210.224 231.75 210.325 231.134 210.349C230.541 210.402 229.98 210.405 229.45 210.357L231.297 190.005Z" fill="white"/>
<path d="M255.192 209.41C254.87 209.786 254.482 210.157 254.028 210.524C253.574 210.89 253.029 211.209 252.395 211.482C251.788 211.757 251.091 211.972 250.306 212.127C249.521 212.282 248.65 212.323 247.695 212.252C246.527 212.165 245.429 211.869 244.399 211.366C243.369 210.862 242.461 210.167 241.673 209.281C240.914 208.37 240.328 207.286 239.915 206.028C239.53 204.745 239.398 203.294 239.519 201.675C239.638 200.083 240.043 198.593 240.734 197.203C241.453 195.79 242.371 194.577 243.487 193.567C244.603 192.556 245.874 191.784 247.302 191.25C248.756 190.718 250.279 190.511 251.871 190.63C252.932 190.71 253.825 190.91 254.548 191.23C255.299 191.527 255.94 191.881 256.469 192.295L257.23 182.105C257.699 181.9 258.203 181.764 258.742 181.698C259.307 181.633 259.868 181.622 260.425 181.663L258.155 212.072C257.767 212.257 257.266 212.366 256.649 212.4C256.058 212.463 255.496 212.474 254.966 212.435L255.192 209.41ZM249.337 210.093C250.823 210.204 252.069 209.95 253.076 209.332C254.111 208.689 254.876 207.919 255.37 207.022L256.175 196.235C255.995 195.795 255.747 195.362 255.432 194.939C255.145 194.49 254.775 194.089 254.321 193.735C253.869 193.354 253.331 193.047 252.708 192.814C252.114 192.556 251.432 192.399 250.662 192.341C249.787 192.276 248.912 192.384 248.037 192.666C247.162 192.947 246.353 193.42 245.609 194.085C244.894 194.726 244.284 195.574 243.778 196.63C243.299 197.688 243.005 198.947 242.896 200.407C242.771 202.078 242.877 203.514 243.215 204.713C243.581 205.888 244.068 206.871 244.675 207.664C245.312 208.432 246.042 209.02 246.865 209.428C247.69 209.81 248.514 210.032 249.337 210.093Z" fill="white"/>
<path d="M267.836 202.657C267.842 204.096 268.029 205.372 268.398 206.483C268.794 207.569 269.32 208.489 269.974 209.242C270.627 209.995 271.397 210.581 272.281 211C273.193 211.394 274.167 211.617 275.204 211.671C276.506 211.738 277.631 211.623 278.579 211.325C279.553 211.029 280.445 210.529 281.254 209.825C281.622 209.924 281.861 210.189 281.972 210.622C281.771 210.904 281.447 211.247 281 211.65C280.579 212.055 280.013 212.439 279.302 212.802C278.617 213.166 277.789 213.456 276.819 213.672C275.874 213.917 274.777 214.007 273.528 213.942C272.199 213.873 270.976 213.57 269.858 213.033C268.74 212.496 267.779 211.753 266.975 210.806C266.172 209.858 265.552 208.707 265.115 207.353C264.706 205.999 264.544 204.485 264.631 202.811C264.71 201.27 265.051 199.835 265.652 198.508C266.255 197.153 267.034 195.995 267.99 195.031C268.972 194.07 270.09 193.328 271.342 192.807C272.623 192.26 273.967 192.023 275.376 192.096C276.89 192.174 278.126 192.491 279.084 193.047C280.041 193.602 280.778 194.293 281.294 195.119C281.838 195.947 282.191 196.844 282.354 197.812C282.544 198.781 282.616 199.717 282.569 200.621C282.34 200.929 282.033 201.193 281.649 201.412C281.291 201.634 280.896 201.8 280.464 201.911L267.836 202.657ZM274.247 193.836C273.423 193.793 272.645 193.9 271.912 194.155C271.18 194.41 270.532 194.83 269.969 195.413C269.406 195.997 268.927 196.758 268.532 197.697C268.164 198.637 267.931 199.784 267.834 201.138L279.135 200.563C279.168 200.432 279.188 200.299 279.195 200.167C279.202 200.034 279.208 199.914 279.214 199.808C279.256 198.984 279.189 198.221 279.012 197.519C278.835 196.817 278.534 196.202 278.108 195.674C277.709 195.147 277.185 194.721 276.536 194.394C275.913 194.069 275.15 193.883 274.247 193.836Z" fill="white"/>
<path d="M291.862 212.399C291.551 212.92 291.121 213.411 290.572 213.871C290.051 214.305 289.561 214.621 289.101 214.817C288.63 214.588 288.15 214.238 287.661 213.768C287.172 213.272 286.791 212.753 286.517 212.21C286.828 211.715 287.244 211.238 287.766 210.777C288.315 210.29 288.82 209.948 289.28 209.752C289.804 209.983 290.31 210.36 290.797 210.883C291.286 211.38 291.641 211.885 291.862 212.399Z" fill="white"/>
<path d="M311.689 214.103C311.263 214.34 310.756 214.497 310.171 214.575C309.611 214.679 309.026 214.729 308.414 214.726L308.541 186.707C308.915 186.496 309.395 186.312 309.981 186.155C310.593 185.998 311.206 185.908 311.818 185.884C312.457 185.86 313.401 185.851 314.652 185.857C315.929 185.836 317.3 185.816 318.763 185.796C320.227 185.776 321.69 185.769 323.154 185.776C324.618 185.756 325.868 185.748 326.906 185.753C326.85 186.285 326.702 186.777 326.46 187.228C326.245 187.679 325.978 187.971 325.658 188.102C324.727 188.098 323.676 188.08 322.505 188.048C321.334 188.016 320.124 187.984 318.873 187.952C317.623 187.893 316.386 187.847 315.162 187.815C313.938 187.756 312.821 187.698 311.81 187.64L311.757 199.335L324.211 199.152C324.155 199.631 324.02 200.069 323.806 200.467C323.591 200.865 323.35 201.091 323.084 201.143C321.168 201.107 319.279 201.085 317.417 201.077C315.554 201.068 313.665 201.033 311.749 200.971L311.689 214.103Z" fill="white"/>
<path d="M330.731 184.274C331.179 184.027 331.668 183.845 332.199 183.73C332.755 183.614 333.313 183.551 333.872 183.541L334.395 214.031C334.026 214.25 333.536 214.405 332.926 214.495C332.342 214.612 331.785 214.674 331.252 214.683L330.731 184.274Z" fill="white"/>
<path d="M358.937 212.047C358.863 212.183 358.736 212.348 358.557 212.542C358.405 212.734 358.226 212.928 358.021 213.122C357.815 213.29 357.581 213.446 357.321 213.589C357.087 213.732 356.864 213.834 356.654 213.895C355.801 213.876 355.07 213.585 354.462 213.023C353.853 212.435 353.502 211.65 353.41 210.668C353.213 211.075 352.911 211.514 352.504 211.982C352.095 212.425 351.592 212.844 350.996 213.24C350.424 213.609 349.757 213.915 348.995 214.158C348.233 214.428 347.4 214.581 346.496 214.617C344.609 214.692 343.087 214.272 341.933 213.359C340.805 212.445 340.209 211.191 340.146 209.596C340.081 207.947 340.651 206.54 341.856 205.374C343.062 204.207 345.169 203.298 348.179 202.647L352.892 201.621L352.831 200.066C352.755 198.152 352.245 196.707 351.301 195.733C350.384 194.757 349.048 194.304 347.293 194.373C346.203 194.416 345.283 194.732 344.534 195.321C343.811 195.883 343.47 196.695 343.512 197.758C343.531 198.237 343.707 198.656 344.041 199.016C343.815 199.344 343.441 199.652 342.919 199.939C342.398 200.226 341.859 200.407 341.303 200.482C341.165 200.355 340.998 200.161 340.801 199.903C340.604 199.644 340.497 199.289 340.479 198.837C340.447 198.013 340.655 197.232 341.105 196.496C341.556 195.759 342.156 195.123 342.907 194.587C343.657 194.025 344.532 193.577 345.53 193.245C346.529 192.912 347.574 192.724 348.664 192.681C351.216 192.58 353.047 193.094 354.157 194.221C355.266 195.323 355.861 196.91 355.944 198.984L356.34 208.994C356.383 210.085 356.652 210.833 357.148 211.239C357.642 211.619 358.21 211.836 358.851 211.891L358.937 212.047ZM347.689 212.453C349.071 212.398 350.229 212.032 351.161 211.356C352.119 210.679 352.791 209.827 353.176 208.8L352.949 203.057L347.643 204.226C346.218 204.548 345.132 205.044 344.386 205.713C343.667 206.38 343.331 207.312 343.379 208.509C343.431 209.838 343.87 210.846 344.697 211.532C345.548 212.191 346.546 212.498 347.689 212.453Z" fill="white"/>
<path d="M370.711 211.84C370.415 212.085 369.983 212.304 369.415 212.497C368.873 212.687 368.377 212.806 367.927 212.852C367.086 211.709 366.178 210.319 365.205 208.682C364.229 207.018 363.274 205.298 362.34 203.523C361.403 201.721 360.536 199.952 359.74 198.215C358.97 196.476 358.34 194.924 357.85 193.557C358.27 193.219 358.724 192.957 359.213 192.773C359.726 192.559 360.26 192.423 360.816 192.365C361.24 193.605 361.774 195.007 362.418 196.572C363.089 198.134 363.819 199.743 364.607 201.4C365.392 203.031 366.202 204.645 367.038 206.243C367.899 207.839 368.746 209.289 369.578 210.594C370.709 207.586 371.637 204.427 372.362 201.114C373.111 197.772 373.635 194.587 373.935 191.56C374.209 191.371 374.54 191.202 374.926 191.055C375.311 190.908 375.703 190.814 376.1 190.772C376.232 190.758 376.365 190.745 376.497 190.731C376.629 190.717 376.763 190.716 376.898 190.729C376.64 192.361 376.298 194.082 375.871 195.893C375.444 197.703 374.953 199.533 374.397 201.383C373.864 203.205 373.277 205.018 372.636 206.824C372.019 208.6 371.377 210.272 370.711 211.84Z" fill="white"/>
<path d="M382.721 199.566C382.99 201.221 383.422 202.633 384.017 203.804C384.638 204.97 385.345 205.919 386.138 206.653C386.954 207.356 387.829 207.847 388.764 208.127C389.725 208.402 390.692 208.46 391.664 208.302C393.765 207.96 395.254 207.004 396.13 205.432C397.003 203.835 397.208 201.618 396.747 198.781C396.525 197.415 396.16 196.167 395.653 195.037C395.145 193.906 394.506 192.959 393.734 192.194C392.989 191.426 392.13 190.865 391.156 190.511C390.182 190.157 389.117 190.074 387.961 190.262C387.121 190.399 386.332 190.689 385.595 191.132C384.859 191.576 384.244 192.188 383.751 192.969C383.254 193.724 382.894 194.659 382.67 195.773C382.469 196.857 382.486 198.122 382.721 199.566ZM379.611 201.326C379.35 199.724 379.398 198.193 379.753 196.733C380.105 195.247 380.687 193.939 381.501 192.809C382.337 191.649 383.366 190.686 384.59 189.921C385.835 189.125 387.206 188.606 388.703 188.362C390.332 188.097 391.782 188.145 393.053 188.504C394.351 188.859 395.456 189.434 396.367 190.23C397.304 191.021 398.057 192.003 398.626 193.178C399.22 194.348 399.629 195.616 399.851 196.982C400.112 198.584 400.106 200.122 399.833 201.595C399.56 203.068 399.037 204.407 398.262 205.611C397.51 206.785 396.513 207.783 395.271 208.605C394.03 209.427 392.556 209.977 390.849 210.254C389.588 210.459 388.342 210.419 387.109 210.135C385.877 209.85 384.741 209.334 383.703 208.586C382.691 207.834 381.818 206.857 381.083 205.656C380.371 204.424 379.88 202.98 379.611 201.326Z" fill="white"/>
<path d="M403.895 186.736C404.662 186.114 405.593 185.69 406.687 185.462L407.857 191.089C407.955 190.254 408.153 189.438 408.449 188.643C408.741 187.821 409.129 187.074 409.614 186.403C410.126 185.726 410.727 185.152 411.417 184.683C412.103 184.187 412.901 183.844 413.813 183.655C414.516 183.509 415.153 183.499 415.723 183.625C416.287 183.725 416.774 183.909 417.183 184.177C417.586 184.42 417.91 184.733 418.153 185.117C418.422 185.496 418.61 185.878 418.717 186.264C418.585 186.672 418.285 187.06 417.818 187.429C417.377 187.792 416.915 188.052 416.43 188.207C416.154 187.53 415.737 186.965 415.181 186.51C414.624 186.054 413.825 185.935 412.783 186.152C412.027 186.309 411.37 186.677 410.811 187.255C410.277 187.828 409.847 188.569 409.52 189.48C409.188 190.364 408.979 191.386 408.894 192.545C408.835 193.699 408.901 194.935 409.094 196.254L411.019 205.516C410.698 205.8 410.246 206.043 409.663 206.246C409.111 206.47 408.575 206.635 408.054 206.744L403.895 186.736Z" fill="white"/>
<path d="M439.66 198.97C439.304 199.304 438.851 199.58 438.302 199.798C437.785 200.035 437.229 200.226 436.635 200.373L429.856 172.857C430.62 172.175 431.622 171.682 432.862 171.376L439.66 198.97Z" fill="white"/>
<path d="M458.327 181.588C457.74 179.404 456.863 177.931 455.694 177.171C454.518 176.384 453.108 176.212 451.464 176.654C450.873 176.813 450.313 177.087 449.784 177.477C449.274 177.835 448.797 178.266 448.354 178.77C447.937 179.268 447.562 179.823 447.231 180.436C446.893 181.023 446.613 181.622 446.391 182.232L450.181 196.34C449.876 196.642 449.439 196.912 448.869 197.147C448.331 197.402 447.805 197.598 447.291 197.737L441.989 178.001C442.72 177.336 443.612 176.862 444.666 176.579L445.691 180.395C445.908 179.868 446.207 179.292 446.59 178.666C446.992 178.007 447.458 177.385 447.99 176.802C448.548 176.211 449.178 175.684 449.88 175.22C450.601 174.723 451.411 174.354 452.31 174.112C454.392 173.553 456.205 173.741 457.751 174.675C459.323 175.603 460.423 177.237 461.051 179.575L464.52 192.488C464.216 192.79 463.778 193.059 463.208 193.295C462.67 193.55 462.144 193.746 461.63 193.884L458.327 181.588Z" fill="white"/>
<path d="M469.095 187.127C469.196 186.71 469.431 186.281 469.801 185.841C470.198 185.393 470.656 185.065 471.178 184.858C471.736 186.109 472.679 187.012 474.004 187.568C475.349 188.091 476.864 188.107 478.55 187.616C480.159 187.148 481.247 186.457 481.812 185.544C482.396 184.598 482.535 183.601 482.23 182.553C481.925 181.506 481.317 180.796 480.404 180.425C479.518 180.045 478.13 179.895 476.241 179.974L473.813 180.058C472.935 180.092 472.128 180.078 471.389 180.016C470.676 179.946 470.025 179.803 469.435 179.587C468.864 179.338 468.376 178.995 467.971 178.558C467.567 178.122 467.257 177.533 467.041 176.792C466.811 176 466.792 175.174 466.985 174.314C467.17 173.429 467.535 172.588 468.079 171.792C468.649 170.989 469.358 170.284 470.207 169.676C471.073 169.036 472.069 168.552 473.193 168.224C474.342 167.89 475.354 167.747 476.228 167.798C477.094 167.822 477.842 167.965 478.472 168.225C479.121 168.452 479.627 168.762 479.99 169.154C480.38 169.54 480.639 169.908 480.769 170.258C480.694 170.668 480.481 171.076 480.128 171.484C479.769 171.866 479.341 172.157 478.844 172.357C478.383 171.438 477.639 170.74 476.613 170.263C475.587 169.786 474.257 169.785 472.622 170.261C472.085 170.418 471.571 170.65 471.079 170.96C470.606 171.237 470.205 171.575 469.878 171.975C469.552 172.375 469.32 172.817 469.183 173.3C469.04 173.757 469.046 174.255 469.202 174.791C469.455 175.66 469.966 176.273 470.736 176.631C471.498 176.963 472.697 177.085 474.334 176.996L476.839 176.89C479.225 176.805 481.018 177.059 482.216 177.652C483.432 178.212 484.234 179.157 484.621 180.485C484.866 181.328 484.917 182.214 484.772 183.144C484.619 184.047 484.265 184.926 483.711 185.781C483.148 186.61 482.383 187.359 481.414 188.029C480.452 188.725 479.282 189.274 477.902 189.676C476.702 190.025 475.61 190.177 474.626 190.131C473.65 190.11 472.776 189.963 472.003 189.689C471.256 189.408 470.638 189.048 470.15 188.608C469.654 188.143 469.303 187.649 469.095 187.127Z" fill="white"/>
<path d="M488.629 157.485C488.524 157.962 488.299 158.503 487.955 159.108C487.602 159.688 487.262 160.125 486.935 160.419C486.499 160.357 485.973 160.183 485.358 159.897C484.735 159.586 484.234 159.266 483.856 158.936C483.979 158.425 484.212 157.868 484.557 157.262C484.901 156.657 485.233 156.195 485.553 155.875C485.997 155.962 486.531 156.162 487.154 156.473C487.802 156.777 488.294 157.114 488.629 157.485ZM486.677 165.337C487.041 164.976 487.461 164.667 487.939 164.411C488.443 164.146 488.962 163.933 489.497 163.77L495.463 183.399C495.169 183.711 494.74 183.994 494.178 184.249C493.649 184.521 493.13 184.734 492.62 184.889L486.677 165.337Z" fill="white"/>
<path d="M515.244 174.688C515.085 175.157 514.862 175.645 514.576 176.154C514.29 176.663 513.903 177.161 513.415 177.649C512.953 178.13 512.385 178.587 511.713 179.022C511.041 179.457 510.248 179.818 509.335 180.106C508.218 180.458 507.088 180.59 505.945 180.504C504.802 180.418 503.7 180.109 502.64 179.578C501.598 179.013 500.651 178.223 499.802 177.208C498.969 176.159 498.309 174.86 497.822 173.312C497.342 171.789 497.166 170.254 497.292 168.708C497.437 167.128 497.84 165.662 498.502 164.31C499.164 162.958 500.059 161.769 501.187 160.745C502.34 159.712 503.679 158.956 505.201 158.476C506.217 158.156 507.119 158.012 507.91 158.042C508.718 158.038 509.444 158.13 510.089 158.318L507.02 148.572C507.38 148.208 507.797 147.895 508.273 147.633C508.774 147.364 509.291 147.145 509.824 146.978L518.983 176.063C518.692 176.378 518.266 176.666 517.706 176.926C517.18 177.203 516.663 177.422 516.155 177.581L515.244 174.688ZM510.06 177.492C511.481 177.045 512.545 176.347 513.251 175.4C513.974 174.419 514.399 173.42 514.525 172.404L511.276 162.087C510.945 161.745 510.555 161.435 510.105 161.158C509.673 160.848 509.18 160.613 508.627 160.452C508.066 160.266 507.454 160.18 506.788 160.194C506.141 160.175 505.449 160.281 504.713 160.513C503.875 160.777 503.102 161.201 502.394 161.787C501.686 162.373 501.11 163.112 500.666 164.005C500.239 164.865 499.986 165.879 499.908 167.048C499.855 168.208 500.048 169.486 500.488 170.882C500.991 172.481 501.622 173.775 502.38 174.764C503.155 175.719 503.972 176.453 504.83 176.963C505.706 177.441 506.601 177.717 507.517 177.791C508.426 177.84 509.273 177.74 510.06 177.492Z" fill="white"/>
<path d="M524.203 163.888C524.724 165.229 525.357 166.353 526.1 167.258C526.86 168.129 527.68 168.799 528.561 169.268C529.442 169.736 530.37 170.007 531.345 170.08C532.338 170.12 533.328 169.979 534.314 169.658C535.554 169.253 536.563 168.742 537.341 168.124C538.144 167.498 538.797 166.711 539.299 165.764C539.678 165.724 539.997 165.886 540.256 166.25C540.169 166.586 539.99 167.022 539.717 167.559C539.47 168.087 539.079 168.649 538.545 169.243C538.037 169.828 537.368 170.396 536.54 170.947C535.746 171.514 534.754 171.991 533.565 172.379C532.3 172.792 531.049 172.948 529.813 172.848C528.577 172.747 527.414 172.399 526.323 171.803C525.233 171.207 524.242 170.355 523.348 169.247C522.48 168.131 521.786 166.776 521.266 165.182C520.788 163.715 520.591 162.254 520.676 160.799C520.752 159.318 521.064 157.957 521.61 156.715C522.182 155.465 522.959 154.372 523.941 153.436C524.94 152.466 526.11 151.762 527.451 151.325C528.893 150.854 530.16 150.707 531.253 150.882C532.345 151.057 533.281 151.437 534.06 152.023C534.864 152.6 535.516 153.311 536.016 154.156C536.54 154.992 536.943 155.841 537.224 156.701C537.12 157.07 536.929 157.427 536.649 157.77C536.394 158.105 536.085 158.402 535.722 158.66L524.203 163.888ZM527.021 153.354C526.237 153.61 525.549 153.989 524.957 154.49C524.364 154.991 523.91 155.615 523.594 156.362C523.278 157.109 523.104 157.991 523.073 159.009C523.066 160.019 523.261 161.173 523.656 162.471L533.998 157.879C533.982 157.745 533.953 157.614 533.912 157.487C533.871 157.361 533.833 157.247 533.8 157.146C533.545 156.362 533.208 155.674 532.791 155.082C532.374 154.49 531.872 154.024 531.285 153.684C530.724 153.336 530.081 153.125 529.358 153.053C528.66 152.973 527.881 153.073 527.021 153.354Z" fill="white"/>
<path d="M550.24 164.444C550.13 165.041 549.898 165.651 549.544 166.273C549.206 166.862 548.857 167.329 548.494 167.673C547.973 167.622 547.401 167.461 546.778 167.191C546.148 166.896 545.61 166.542 545.164 166.129C545.283 165.557 545.506 164.964 545.835 164.35C546.181 163.703 546.535 163.207 546.897 162.862C547.47 162.897 548.075 163.074 548.714 163.395C549.345 163.69 549.854 164.04 550.24 164.444Z" fill="white"/>
<path d="M564.119 161.833C564.234 159.434 564.352 156.88 564.474 154.17C564.587 151.435 564.709 148.724 564.84 146.04C564.987 143.321 565.126 140.703 565.257 138.187C565.405 135.637 565.529 133.347 565.629 131.319C565.989 130.972 566.404 130.663 566.874 130.392C567.344 130.12 567.831 129.899 568.335 129.728L587.531 153.443C587.347 153.646 587.066 153.854 586.688 154.066C586.319 154.303 585.857 154.516 585.303 154.703C585.177 154.746 585.051 154.789 584.925 154.831C584.824 154.865 584.706 154.891 584.572 154.909L578.909 147.892L566.812 151.988C566.842 154.983 566.931 157.819 567.079 160.494C566.894 160.697 566.622 160.887 566.261 161.066C565.934 161.261 565.581 161.422 565.203 161.55C564.976 161.627 564.77 161.683 564.585 161.717C564.409 161.777 564.253 161.815 564.119 161.833ZM567.165 133.243C567.06 135.835 566.972 138.562 566.901 141.423C566.847 144.25 566.814 147.099 566.802 149.968L577.652 146.295L567.165 133.243Z" fill="white"/>
<path d="M582.514 123.479C582.865 123.106 583.275 122.784 583.745 122.511C584.239 122.231 584.751 122 585.28 121.82L595.109 150.686C594.825 151.008 594.406 151.305 593.853 151.578C593.333 151.867 592.821 152.098 592.317 152.269L582.514 123.479Z" fill="white"/>
<path d="M609.466 145.708C609.233 146.013 608.869 146.305 608.374 146.586C607.888 146.893 607.406 147.127 606.927 147.29C605.893 146.153 604.799 144.881 603.645 143.475C602.508 142.035 601.375 140.566 600.246 139.068C599.133 137.535 598.054 136.019 597.009 134.52C595.981 132.987 595.062 131.529 594.254 130.146C594.913 129.359 595.81 128.772 596.943 128.386C597.557 129.526 598.284 130.754 599.126 132.07C599.959 133.36 600.865 134.696 601.841 136.078C602.818 137.46 603.837 138.842 604.898 140.223C605.951 141.579 606.991 142.897 608.017 144.178C608.108 142.713 608.166 141.19 608.189 139.608C608.203 138 608.193 136.402 608.157 134.812C608.121 133.221 608.051 131.657 607.949 130.118C607.837 128.553 607.701 127.081 607.54 125.703C607.883 125.305 608.289 124.97 608.758 124.697C609.227 124.425 609.676 124.216 610.104 124.07C610.743 125.201 611.5 126.433 612.376 127.765C613.277 129.089 614.232 130.45 615.243 131.848C616.245 133.222 617.277 134.599 618.338 135.98C619.415 137.328 620.476 138.625 621.519 139.872C621.593 138.357 621.604 136.779 621.551 135.139C621.523 133.489 621.44 131.845 621.303 130.205C621.191 128.556 621.025 126.955 620.804 125.399C620.6 123.81 620.375 122.327 620.131 120.948C620.641 120.465 621.261 120.099 621.991 119.85C622.42 119.704 622.718 119.631 622.886 119.63C623.04 121.236 623.152 122.927 623.223 124.702C623.319 126.468 623.36 128.281 623.348 130.141C623.36 131.992 623.318 133.848 623.221 135.708C623.149 137.56 623.035 139.37 622.878 141.138C622.645 141.442 622.268 141.739 621.748 142.029C621.237 142.344 620.767 142.574 620.339 142.72C619.483 141.775 618.58 140.733 617.63 139.595C616.705 138.448 615.767 137.264 614.817 136.042C613.891 134.811 612.978 133.576 612.078 132.337C611.169 131.072 610.324 129.828 609.541 128.605C609.642 129.807 609.714 131.132 609.757 132.579C609.801 134.026 609.815 135.511 609.8 137.035C609.785 138.558 609.748 140.06 609.691 141.541C609.634 143.023 609.559 144.412 609.466 145.708Z" fill="white"/>
<path d="M650.424 130.665C650.391 130.817 650.316 131.01 650.199 131.247C650.107 131.474 649.991 131.71 649.849 131.955C649.698 132.174 649.518 132.39 649.309 132.601C649.124 132.804 648.94 132.964 648.755 133.083C647.932 133.305 647.149 133.233 646.407 132.866C645.656 132.474 645.098 131.82 644.732 130.904C644.658 131.351 644.492 131.856 644.234 132.421C643.967 132.961 643.603 133.505 643.143 134.054C642.699 134.569 642.146 135.051 641.483 135.5C640.829 135.974 640.073 136.356 639.216 136.646C637.427 137.251 635.849 137.279 634.483 136.73C633.143 136.172 632.217 135.137 631.706 133.625C631.177 132.062 631.326 130.551 632.153 129.091C632.98 127.632 634.744 126.164 637.447 124.688L641.678 122.373L641.18 120.898C640.566 119.083 639.668 117.842 638.487 117.174C637.332 116.497 635.922 116.44 634.258 117.003C633.225 117.352 632.432 117.916 631.88 118.692C631.345 119.435 631.248 120.31 631.589 121.319C631.742 121.772 632.03 122.125 632.452 122.375C632.327 122.754 632.055 123.155 631.637 123.578C631.218 124 630.752 124.326 630.24 124.556C630.071 124.472 629.856 124.334 629.594 124.142C629.333 123.95 629.129 123.639 628.984 123.211C628.72 122.429 628.7 121.622 628.923 120.788C629.147 119.954 629.543 119.174 630.112 118.447C630.673 117.696 631.385 117.02 632.249 116.419C633.113 115.817 634.062 115.342 635.095 114.992C637.515 114.174 639.417 114.149 640.8 114.917C642.175 115.66 643.195 117.014 643.86 118.981L647.069 128.471C647.419 129.504 647.888 130.146 648.479 130.396C649.06 130.62 649.666 130.668 650.297 130.539L650.424 130.665ZM639.748 134.233C641.059 133.79 642.066 133.112 642.769 132.2C643.497 131.28 643.901 130.273 643.98 129.179L642.139 123.734L637.379 126.355C636.103 127.067 635.202 127.849 634.676 128.702C634.174 129.545 634.116 130.534 634.499 131.669C634.925 132.929 635.632 133.771 636.618 134.196C637.621 134.587 638.665 134.6 639.748 134.233Z" fill="white"/>
<path d="M650.115 110.352C650.898 111.521 651.778 112.77 652.755 114.099C653.748 115.394 654.788 116.702 655.874 118.023C656.986 119.335 658.106 120.63 659.234 121.908C660.387 123.178 661.507 124.347 662.593 125.415C663.121 121.788 663.384 118.418 663.383 115.305C663.373 112.166 663.237 109.238 662.974 106.52C663.252 106.259 663.571 106.04 663.933 105.864C664.312 105.653 664.678 105.489 665.031 105.371C665.157 105.329 665.283 105.286 665.41 105.244C665.561 105.194 665.704 105.16 665.839 105.143C665.89 107.651 665.799 110.612 665.566 114.029C665.323 117.42 664.943 120.984 664.423 124.72C664.205 126.336 663.991 127.796 663.781 129.1C663.597 130.396 663.408 131.595 663.215 132.698C663.023 133.8 662.821 134.835 662.611 135.803C662.401 136.771 662.192 137.739 661.982 138.706C661.771 138.917 661.439 139.14 660.985 139.376C660.564 139.628 660.102 139.839 659.597 140.008C659.117 140.168 658.701 140.265 658.348 140.299L658.297 140.147C658.944 138.557 659.591 136.84 660.238 134.996C660.885 133.153 661.46 131.096 661.964 128.824C660.76 127.739 659.476 126.498 658.112 125.102C656.748 123.706 655.414 122.272 654.109 120.8C652.829 119.32 651.595 117.852 650.408 116.397C649.238 114.909 648.232 113.533 647.389 112.272C647.701 111.859 648.108 111.484 648.613 111.148C649.135 110.777 649.635 110.512 650.115 110.352Z" fill="white"/>
<path d="M673.762 119.971C673.848 119.551 674.069 119.114 674.424 118.661C674.805 118.2 675.253 117.858 675.767 117.633C676.367 118.864 677.339 119.735 678.683 120.247C680.044 120.724 681.559 120.689 683.227 120.142C684.82 119.619 685.884 118.892 686.418 117.96C686.97 116.995 687.075 115.994 686.735 114.958C686.395 113.921 685.763 113.232 684.839 112.892C683.94 112.542 682.548 112.439 680.663 112.582L678.238 112.747C677.363 112.81 676.555 112.823 675.815 112.786C675.1 112.741 674.444 112.62 673.847 112.424C673.268 112.194 672.769 111.867 672.35 111.445C671.931 111.022 671.602 110.444 671.361 109.711C671.104 108.927 671.057 108.102 671.221 107.236C671.377 106.345 671.713 105.493 672.23 104.679C672.773 103.857 673.458 103.128 674.285 102.492C675.13 101.823 676.108 101.306 677.221 100.941C678.359 100.567 679.365 100.391 680.24 100.412C681.107 100.408 681.859 100.525 682.498 100.764C683.153 100.969 683.669 101.261 684.046 101.642C684.448 102.014 684.72 102.373 684.861 102.718C684.8 103.13 684.601 103.546 684.262 103.965C683.915 104.359 683.497 104.664 683.008 104.881C682.516 103.978 681.749 103.305 680.708 102.863C679.667 102.421 678.337 102.465 676.719 102.996C676.188 103.17 675.682 103.42 675.201 103.746C674.737 104.038 674.348 104.39 674.035 104.801C673.721 105.212 673.505 105.661 673.385 106.148C673.256 106.611 673.279 107.107 673.453 107.638C673.735 108.498 674.267 109.093 675.048 109.425C675.821 109.732 677.024 109.813 678.657 109.669L681.157 109.479C683.539 109.313 685.339 109.507 686.556 110.06C687.791 110.579 688.624 111.496 689.055 112.81C689.329 113.645 689.409 114.529 689.295 115.462C689.173 116.37 688.849 117.261 688.323 118.133C687.789 118.981 687.049 119.756 686.104 120.458C685.166 121.186 684.015 121.774 682.65 122.221C681.461 122.611 680.375 122.8 679.39 122.787C678.414 122.799 677.536 122.681 676.754 122.434C675.998 122.178 675.369 121.838 674.866 121.415C674.354 120.967 673.986 120.485 673.762 119.971Z" fill="white"/>
<path d="M719.857 79.4515C719.976 81.4227 720.007 83.687 719.949 86.2444C719.909 88.7684 719.803 91.3966 719.633 94.1289C719.455 96.8359 719.218 99.5335 718.922 102.222C718.626 104.91 718.279 107.391 717.881 109.665C717.64 109.964 717.261 110.265 716.743 110.569C716.258 110.889 715.749 111.133 715.216 111.301C713.627 109.626 711.998 107.824 710.329 105.896C708.678 103.933 707.044 101.938 705.427 99.9089C703.828 97.8465 702.266 95.7722 700.743 93.6858C699.245 91.5915 697.877 89.5539 696.638 87.5731C697.282 86.784 698.213 86.1973 699.431 85.813C701.736 89.494 704.359 93.2981 707.301 97.225C710.259 101.119 713.346 104.846 716.563 108.407C716.832 106.341 717.035 104.156 717.173 101.853C717.311 99.5491 717.395 97.2067 717.425 94.8255C717.473 92.411 717.452 90.0038 717.365 87.604C717.303 85.1961 717.176 82.8924 716.984 80.6929C717.462 80.263 718.107 79.9199 718.919 79.6637C719.325 79.5356 719.638 79.4648 719.857 79.4515Z" fill="white"/>
<path d="M728.785 78.4084C728.681 78.8857 728.458 79.4274 728.115 80.0336C727.764 80.6144 727.426 81.0523 727.099 81.3475C726.662 81.2865 726.136 81.1139 725.52 80.8298C724.896 80.5202 724.395 80.201 724.016 79.872C724.137 79.3615 724.37 78.8031 724.712 78.1969C725.055 77.5907 725.386 77.1273 725.705 76.8067C726.149 76.8932 726.683 77.0912 727.307 77.4007C727.956 77.7025 728.449 78.0384 728.785 78.4084ZM726.854 86.2655C727.216 85.9039 727.636 85.5941 728.114 85.3362C728.617 85.0706 729.135 84.8558 729.67 84.6918L735.688 104.305C735.394 104.618 734.967 104.902 734.405 105.158C733.877 105.431 733.358 105.646 732.849 105.802L726.854 86.2655Z" fill="white"/>
<path d="M741.782 92.0178C742.269 93.3719 742.873 94.5108 743.593 95.4345C744.331 96.3251 745.134 97.0157 746.002 97.5063C746.87 97.997 747.791 98.2915 748.765 98.3898C749.756 98.455 750.749 98.3392 751.743 98.0425C752.993 97.6697 754.014 97.1845 754.808 96.5867C755.627 95.9814 756.3 95.2114 756.826 94.2768C757.206 94.2468 757.52 94.4168 757.769 94.7867C757.675 95.1204 757.484 95.5521 757.198 96.0818C756.937 96.6039 756.532 97.1551 755.984 97.7354C755.46 98.3081 754.778 98.8588 753.936 99.3877C753.127 99.9344 752.123 100.387 750.925 100.744C749.65 101.125 748.396 101.249 747.163 101.117C745.929 100.985 744.775 100.608 743.701 99.984C742.626 99.3605 741.656 98.4836 740.791 97.3533C739.952 96.2153 739.293 94.8431 738.813 93.2367C738.372 91.7578 738.213 90.2921 738.335 88.8395C738.449 87.3615 738.795 86.0086 739.373 84.781C739.976 83.5458 740.781 82.4728 741.786 81.5619C742.81 80.6178 743.997 79.9442 745.348 79.541C746.802 79.1073 748.072 78.992 749.16 79.195C750.248 79.398 751.174 79.802 751.938 80.4072C752.727 81.0048 753.361 81.7321 753.839 82.5892C754.342 83.4386 754.723 84.2968 754.982 85.1638C754.869 85.5306 754.668 85.882 754.38 86.218C754.117 86.5464 753.8 86.8352 753.43 87.0844L741.782 92.0178ZM744.868 81.5588C744.077 81.7947 743.379 82.1555 742.775 82.6414C742.17 83.1273 741.7 83.7396 741.365 84.4782C741.03 85.2168 740.834 86.0945 740.776 87.1114C740.744 88.1206 740.909 89.2792 741.272 90.5872L751.727 86.2599C751.714 86.1248 751.689 85.9935 751.651 85.8661C751.613 85.7386 751.578 85.6238 751.548 85.5218C751.312 84.7314 750.993 84.0351 750.592 83.433C750.19 82.8309 749.7 82.3523 749.122 81.9972C748.569 81.6345 747.933 81.4079 747.211 81.3177C746.516 81.2198 745.734 81.3002 744.868 81.5588Z" fill="white"/>
<path d="M756.563 78.343C756.687 78.0029 756.933 77.6554 757.302 77.3004C757.689 76.9125 758.151 76.6414 758.688 76.4872L759.916 76.1348L758.33 70.6104C758.644 70.1604 759.047 69.7816 759.54 69.474C760.051 69.1334 760.563 68.8897 761.074 68.7429L762.946 75.2648L770.466 73.1062C770.565 73.5483 770.544 73.9559 770.401 74.3289C770.278 74.669 770.049 74.8867 769.717 74.9822L763.387 76.7993L766.999 89.3827C767.234 90.2011 767.515 90.8404 767.84 91.3006C768.185 91.7278 768.563 92.0343 768.977 92.2202C769.39 92.4061 769.828 92.4878 770.293 92.4653C770.757 92.4427 771.219 92.3654 771.679 92.2333C772.523 91.991 773.179 91.6228 773.646 91.1288C774.113 90.6348 774.475 90.1573 774.73 89.6965C775.117 89.696 775.41 89.8473 775.608 90.1504C775.539 90.3918 775.411 90.719 775.225 91.1323C775.039 91.5455 774.764 91.9845 774.399 92.4491C774.027 92.8882 773.554 93.3146 772.981 93.7284C772.407 94.1421 771.724 94.4628 770.931 94.6904C770.215 94.8959 769.512 95.001 768.821 95.0055C768.13 95.01 767.483 94.8774 766.88 94.6077C766.302 94.3307 765.773 93.8872 765.294 93.2775C764.814 92.6677 764.427 91.8513 764.134 90.8282L760.356 77.6694L756.673 78.7266L756.563 78.343Z" fill="white"/>
<path d="M792.062 75.3832C791.465 73.2016 790.581 71.7332 789.409 70.978C788.229 70.1971 786.819 70.0314 785.176 70.4808C784.586 70.6423 784.027 70.9193 783.5 71.3118C782.991 71.6716 782.517 72.1049 782.076 72.6116C781.661 73.1114 781.289 73.6683 780.961 74.2823C780.625 74.8707 780.348 75.4707 780.129 76.0823L783.984 90.1728C783.681 90.4765 783.245 90.7475 782.675 90.986C782.139 91.2432 781.614 91.442 781.1 91.5824L775.708 71.8711C776.435 71.203 777.325 70.7251 778.378 70.4372L779.42 74.2485C779.635 73.7209 779.932 73.1431 780.312 72.515C780.71 71.8542 781.174 71.2308 781.703 70.6446C782.258 70.0513 782.886 69.5211 783.585 69.0538C784.304 68.5538 785.112 68.1809 786.011 67.9351C788.089 67.3664 789.904 67.5458 791.454 68.4734C793.03 69.394 794.138 71.0221 794.777 73.3576L798.305 86.2547C798.002 86.5583 797.566 86.8294 796.997 87.0679C796.46 87.325 795.935 87.5238 795.422 87.6643L792.062 75.3832Z" fill="white"/>
<path d="M822.264 78.8598C822.22 79.0085 822.131 79.1962 821.997 79.4229C821.888 79.643 821.754 79.8697 821.594 80.103C821.428 80.3105 821.232 80.5118 821.007 80.7068C820.808 80.8952 820.612 81.0416 820.419 81.146C819.581 81.306 818.806 81.1753 818.094 80.7537C817.375 80.3063 816.867 79.6125 816.571 78.672C816.464 79.1115 816.26 79.6033 815.96 80.1472C815.654 80.6654 815.25 81.1809 814.75 81.6939C814.269 82.1744 813.681 82.6136 812.987 83.0116C812.299 83.4353 811.516 83.7595 810.64 83.9843C808.81 84.4538 807.235 84.3634 805.914 83.7132C804.62 83.0564 803.774 81.9548 803.377 80.4083C802.967 78.8103 803.229 77.3147 804.163 75.9214C805.096 74.5281 806.966 73.1968 809.772 71.9276L814.165 69.9355L813.778 68.4277C813.302 66.5719 812.5 65.2667 811.373 64.5121C810.271 63.7509 808.869 63.5884 807.168 64.0248C806.111 64.2959 805.279 64.798 804.67 65.531C804.081 66.2316 803.918 67.0974 804.183 68.1284C804.302 68.5923 804.562 68.965 804.964 69.2465C804.811 69.6153 804.51 69.9947 804.061 70.3847C803.612 70.7747 803.123 71.0649 802.595 71.2553C802.433 71.1594 802.229 71.0058 801.982 70.7943C801.736 70.5829 801.556 70.2581 801.444 69.8199C801.239 69.0209 801.279 68.2139 801.564 67.399C801.85 66.5841 802.304 65.8359 802.925 65.1544C803.541 64.4472 804.302 63.8262 805.208 63.2914C806.115 62.7567 807.097 62.3537 808.153 62.0827C810.628 61.4479 812.526 61.5654 813.848 62.435C815.163 63.2788 816.079 64.7059 816.594 66.7163L819.084 76.4204C819.355 77.4771 819.775 78.1522 820.345 78.4456C820.908 78.7132 821.509 78.8063 822.147 78.7249L822.264 78.8598ZM811.352 81.6179C812.692 81.2741 813.747 80.6739 814.516 79.8173C815.311 78.954 815.789 77.9798 815.95 76.8946L814.522 71.3273L809.579 73.5842C808.254 74.199 807.296 74.9115 806.708 75.7218C806.145 76.5256 806.012 77.5073 806.309 78.6672C806.64 79.9559 807.281 80.849 808.233 81.3466C809.204 81.8118 810.243 81.9022 811.352 81.6179Z" fill="white"/>
<path d="M838.539 63.5959C838.045 61.4705 837.254 60.0016 836.164 59.1892C835.094 58.345 833.768 58.1063 832.187 58.4733C830.943 58.7621 829.915 59.3966 829.105 60.3769C828.295 61.3572 827.737 62.429 827.434 63.5921L830.764 77.9388C830.449 78.2304 830.003 78.4842 829.425 78.7003C828.878 78.9364 828.346 79.1146 827.828 79.2349L823.207 59.3284C823.96 58.6892 824.868 58.2463 825.931 57.9996L826.77 61.6155C826.953 61.1086 827.211 60.5708 827.543 60.002C827.895 59.4012 828.324 58.8372 828.83 58.3101C829.362 57.7769 829.977 57.3064 830.674 56.8987C831.366 56.465 832.152 56.1459 833.033 55.9413C834.64 55.5683 836.049 55.6922 837.258 56.3129C838.487 56.9017 839.422 57.7501 840.061 58.8582C840.276 58.3713 840.56 57.8274 840.912 57.2267C841.284 56.5939 841.73 55.9851 842.25 55.4C842.77 54.815 843.372 54.2927 844.058 53.8331C844.769 53.3675 845.566 53.0324 846.447 52.8279C848.417 52.3706 850.155 52.6227 851.662 53.5841C853.189 54.5135 854.229 56.1706 854.783 58.5552L857.824 71.6577C857.509 71.9493 857.063 72.2032 856.485 72.4193C855.939 72.6554 855.406 72.8335 854.888 72.9539L851.991 60.4734C851.023 56.3003 848.918 54.5898 845.678 55.3418C844.616 55.5885 843.663 56.192 842.821 57.1524C841.998 58.0809 841.399 59.1487 841.024 60.3558L844.372 74.7802C844.057 75.0718 843.611 75.3256 843.032 75.5418C842.486 75.7778 841.954 75.956 841.436 76.0763L838.539 63.5959Z" fill="white"/>
<path d="M864.97 60.0073C865.336 61.3989 865.838 62.5865 866.473 63.5699C867.13 64.5218 867.869 65.2804 868.691 65.8454C869.513 66.4105 870.405 66.7848 871.366 66.9682C872.347 67.1203 873.347 67.0923 874.363 66.8841C875.641 66.6226 876.701 66.2289 877.544 65.7032C878.413 65.1722 879.151 64.4643 879.757 63.5796C880.138 63.5831 880.437 63.7801 880.652 64.1705C880.528 64.4946 880.301 64.9079 879.969 65.4104C879.663 65.9075 879.212 66.421 878.614 66.9508C878.042 67.4753 877.314 67.9639 876.429 68.4167C875.575 68.8903 874.536 69.2525 873.311 69.5034C872.007 69.7703 870.747 69.7838 869.53 69.5441C868.313 69.3044 867.197 68.8268 866.181 68.1113C865.165 67.3958 864.276 66.437 863.514 65.235C862.778 64.0277 862.242 62.6029 861.906 60.9606C861.596 59.4486 861.566 57.9745 861.815 56.5383C862.059 55.076 862.523 53.7588 863.206 52.5868C863.916 51.4094 864.811 50.4112 865.893 49.5921C866.995 48.7417 868.237 48.175 869.619 47.8921C871.105 47.5879 872.381 47.5847 873.447 47.8825C874.513 48.1803 875.399 48.6642 876.107 49.3341C876.841 49.9988 877.408 50.7789 877.809 51.6747C878.235 52.5651 878.539 53.4535 878.721 54.3398C878.576 54.6953 878.346 55.0277 878.029 55.3371C877.738 55.6411 877.397 55.9009 877.007 56.1167L864.97 60.0073ZM868.963 49.8599C868.155 50.0254 867.428 50.3235 866.783 50.7544C866.138 51.1853 865.616 51.7539 865.217 52.4602C864.819 53.1665 864.546 54.0236 864.399 55.0314C864.279 56.0339 864.341 57.2026 864.587 58.5374L875.382 55.1456C875.381 55.01 875.368 54.877 875.341 54.7466C875.314 54.6163 875.29 54.499 875.269 54.3947C875.104 53.5866 874.847 52.865 874.5 52.2299C874.153 51.5948 873.707 51.075 873.162 50.6705C872.644 50.2606 872.029 49.979 871.319 49.8257C870.634 49.667 869.849 49.6784 868.963 49.8599Z" fill="white"/>
<path d="M884.927 62.164C885.07 61.7592 885.347 61.3566 885.761 60.9562C886.201 60.551 886.691 60.2718 887.231 60.1187C887.659 61.4199 888.504 62.4148 889.766 63.1032C891.05 63.7606 892.555 63.931 894.283 63.6144C895.932 63.3121 897.084 62.7357 897.74 61.8851C898.417 61.0036 898.657 60.0262 898.46 58.9531C898.263 57.8801 897.73 57.1121 896.861 56.6492C896.018 56.1816 894.653 55.8908 892.765 55.7769L890.341 55.6125C889.465 55.5567 888.663 55.4602 887.934 55.3232C887.232 55.1814 886.599 54.9729 886.034 54.6976C885.491 54.3914 885.041 54.0005 884.683 53.525C884.325 53.0495 884.077 52.4323 883.938 51.6733C883.789 50.8619 883.855 50.0384 884.134 49.2026C884.409 48.3406 884.858 47.5415 885.48 46.8052C886.129 46.0641 886.906 45.4347 887.812 44.9169C888.74 44.3682 889.779 43.9883 890.931 43.7772C892.109 43.5614 893.13 43.523 893.994 43.6622C894.853 43.7752 895.583 43.9931 896.183 44.3159C896.805 44.6078 897.276 44.9677 897.598 45.3956C897.946 45.8188 898.167 46.2111 898.26 46.5728C898.144 46.9728 897.89 47.3575 897.498 47.727C897.101 48.0702 896.646 48.316 896.132 48.4643C895.766 47.5033 895.098 46.7332 894.126 46.1538C893.154 45.5745 891.83 45.4384 890.155 45.7454C889.606 45.8461 889.07 46.0254 888.55 46.2832C888.05 46.51 887.617 46.8057 887.251 47.1704C886.885 47.535 886.61 47.9507 886.425 48.4175C886.235 48.8581 886.191 49.3532 886.291 49.9028C886.455 50.7927 886.901 51.4549 887.629 51.8894C888.354 52.2977 889.534 52.5411 891.172 52.6197L893.675 52.7696C896.057 52.9281 897.814 53.3635 898.946 54.0759C900.099 54.7573 900.8 55.7785 901.049 57.1395C901.208 58.0032 901.167 58.8898 900.928 59.7993C900.684 60.6826 900.243 61.521 899.604 62.3144C898.96 63.0817 898.122 63.7493 897.09 64.3172C896.062 64.9113 894.842 65.3379 893.429 65.5969C892.199 65.8224 891.097 65.862 890.123 65.7159C889.154 65.5959 888.3 65.3603 887.559 65.0091C886.844 64.6531 886.267 64.2315 885.826 63.7442C885.38 63.2308 885.08 62.7041 884.927 62.164Z" fill="white"/>
<path d="M908.108 51.863C908.414 53.2693 908.863 54.4775 909.455 55.4876C910.07 56.4672 910.776 57.2571 911.572 57.8574C912.369 58.4577 913.243 58.8703 914.195 59.0954C915.17 59.29 916.169 59.3054 917.194 59.1416C918.481 58.9358 919.558 58.5887 920.423 58.1001C921.314 57.6074 922.082 56.9322 922.726 56.0747C923.107 56.0948 923.396 56.3045 923.595 56.7039C923.457 57.0223 923.212 57.4253 922.858 57.9129C922.531 58.3963 922.058 58.8897 921.438 59.393C920.844 59.8921 920.095 60.3487 919.191 60.7626C918.318 61.1986 917.263 61.5153 916.028 61.7127C914.715 61.9226 913.455 61.8814 912.25 61.5891C911.044 61.2967 909.95 60.771 908.966 60.012C907.982 59.253 907.136 58.2565 906.427 57.0226C905.744 55.7844 905.27 54.3376 905.006 52.6823C904.762 51.1583 904.796 49.6843 905.107 48.2602C905.414 46.8099 905.935 45.5141 906.669 44.3729C907.429 43.2274 908.367 42.2691 909.483 41.4978C910.621 40.6961 911.887 40.184 913.28 39.9614C914.777 39.722 916.052 39.7743 917.104 40.1181C918.156 40.462 919.021 40.984 919.699 41.684C920.403 42.3799 920.935 43.184 921.297 44.0963C921.685 45.0044 921.95 45.9052 922.093 46.7986C921.933 47.1475 921.688 47.4696 921.358 47.7648C921.054 48.0559 920.702 48.3007 920.303 48.4993L908.108 51.863ZM912.538 41.8988C911.724 42.029 910.985 42.2953 910.322 42.6977C909.658 43.1001 909.112 43.6455 908.683 44.3338C908.254 45.0221 907.945 45.8665 907.754 46.8671C907.59 47.8634 907.602 49.0337 907.79 50.3779L918.722 47.4585C918.727 47.323 918.719 47.1895 918.698 47.0581C918.677 46.9267 918.658 46.8085 918.642 46.7034C918.511 45.8888 918.287 45.1568 917.967 44.5072C917.648 43.8577 917.225 43.319 916.698 42.8911C916.198 42.4591 915.597 42.151 914.894 41.967C914.217 41.7787 913.432 41.756 912.538 41.8988Z" fill="white"/>
<path d="M933.921 56.7005C933.705 57.2684 933.368 57.8268 932.908 58.3757C932.471 58.8944 932.043 59.2909 931.625 59.5651C931.121 59.4215 930.587 59.1612 930.023 58.7842C929.456 58.3808 928.989 57.9362 928.625 57.4503C928.844 56.9087 929.17 56.3653 929.604 55.8202C930.06 55.245 930.497 54.8203 930.915 54.5461C931.471 54.6823 932.036 54.9652 932.607 55.3949C933.175 55.7983 933.613 56.2335 933.921 56.7005Z" fill="white"/>
<path d="M969.898 30.7442C969.729 31.1635 969.411 31.5718 968.945 31.969C968.478 32.3662 967.893 32.6556 967.19 32.8371C966.991 32.2161 966.697 31.5916 966.309 30.9637C965.946 30.3065 965.443 29.7309 964.802 29.2369C964.188 28.7401 963.424 28.3527 962.512 28.0747C961.626 27.7939 960.561 27.7193 959.317 27.8511C958.206 27.9687 957.118 28.3114 956.055 28.8789C954.988 29.42 954.055 30.2144 953.257 31.2623C952.458 32.3102 951.849 33.6323 951.429 35.2287C951.033 36.7958 950.95 38.6643 951.18 40.8341C951.407 42.9774 951.899 44.8518 952.658 46.4572C953.417 48.0626 954.359 49.3809 955.485 50.4123C956.608 51.4172 957.862 52.1406 959.247 52.5827C960.658 53.0219 962.131 53.1602 963.666 52.9977C965.439 52.81 966.903 52.3606 968.059 51.6495C969.238 50.9092 970.199 50.0047 970.942 48.936C971.106 48.9721 971.303 49.0583 971.531 49.1947C971.76 49.331 971.909 49.4758 971.979 49.6289C971.806 50.0218 971.511 50.5213 971.094 51.1274C970.676 51.7335 970.085 52.3446 969.321 52.9607C968.581 53.5475 967.621 54.0906 966.443 54.59C965.295 55.113 963.887 55.4628 962.22 55.6393C960.579 55.8131 958.961 55.6901 957.364 55.2705C955.765 54.8244 954.307 54.0691 952.99 53.0044C951.671 51.9133 950.558 50.5059 949.653 48.7822C948.745 47.0321 948.164 44.953 947.909 42.5451C947.685 40.4282 947.858 38.403 948.43 36.4694C948.998 34.5095 949.858 32.7728 951.009 31.2595C952.186 29.7434 953.593 28.4974 955.228 27.5214C956.891 26.5427 958.701 25.9496 960.659 25.7422C962.247 25.5741 963.607 25.6575 964.739 25.9925C965.898 26.3246 966.842 26.7732 967.571 27.3382C968.326 27.9004 968.886 28.5101 969.25 29.1672C969.637 29.7951 969.854 30.3208 969.898 30.7442Z" fill="white"/>
<path d="M976.916 33.288C977.759 32.7719 978.737 32.4724 979.851 32.3896L980.277 38.1214C980.483 37.3056 980.785 36.5227 981.183 35.7728C981.579 34.9963 982.062 34.3067 982.631 33.7041C983.226 33.0996 983.897 32.6095 984.643 32.2339C985.387 31.8318 986.223 31.5963 987.152 31.5273C987.868 31.4741 988.501 31.5472 989.049 31.7466C989.596 31.9195 990.054 32.1656 990.425 32.4849C990.793 32.7778 991.073 33.1305 991.264 33.5433C991.481 33.9541 991.618 34.3575 991.674 34.7536C991.489 35.1408 991.141 35.4868 990.63 35.7916C990.146 36.0944 989.653 36.2911 989.153 36.3816C988.967 35.675 988.628 35.0598 988.136 34.536C987.643 34.0123 986.866 33.7898 985.805 33.8686C985.035 33.9258 984.335 34.2046 983.706 34.7049C983.102 35.2033 982.579 35.8826 982.136 36.7426C981.691 37.5761 981.35 38.562 981.115 39.7001C980.906 40.8363 980.811 42.0708 980.83 43.4035L981.53 52.837C981.174 53.0769 980.694 53.2593 980.09 53.3842C979.514 53.5337 978.961 53.6282 978.43 53.6676L976.916 33.288Z" fill="white"/>
<path d="M1006.31 50.063C1007.58 50.0088 1008.72 49.6008 1009.73 48.839C1010.73 48.0507 1011.48 47.0204 1011.96 45.7484L1011.34 31.2728C1011.78 31.0144 1012.27 30.8207 1012.79 30.6918C1013.35 30.5618 1013.9 30.4849 1014.46 30.4612L1015.33 50.9583C1014.97 51.1868 1014.51 51.3527 1013.96 51.4562C1013.43 51.5851 1012.9 51.6608 1012.37 51.6834L1012.21 47.895C1011.96 48.3582 1011.61 48.8526 1011.15 49.378C1010.72 49.8757 1010.19 50.3508 1009.57 50.8032C1008.95 51.229 1008.24 51.5924 1007.42 51.8932C1006.64 52.1929 1005.75 52.3636 1004.77 52.4053C1003.78 52.4471 1002.85 52.3404 1001.96 52.0851C1001.09 51.8288 1000.33 51.4084 999.667 50.8241C999.002 50.2131 998.463 49.4503 998.052 48.5356C997.639 47.5943 997.405 46.4723 997.35 45.1697L996.786 31.8904C997.228 31.632 997.712 31.4383 998.24 31.3094C998.793 31.1794 999.349 31.1025 999.908 31.0789L1000.45 43.8397C1000.5 45.036 1000.69 46.04 1001.02 46.8518C1001.34 47.6635 1001.77 48.3112 1002.3 48.7949C1002.82 49.2786 1003.42 49.6259 1004.1 49.837C1004.8 50.0203 1005.54 50.0957 1006.31 50.063Z" fill="white"/>
<path d="M1021.27 46.9022C1021.48 46.5281 1021.82 46.1797 1022.3 45.857C1022.8 45.5341 1023.34 45.3441 1023.89 45.2869C1024.09 46.6426 1024.75 47.7688 1025.87 48.6655C1027.02 49.5354 1028.48 49.9641 1030.23 49.9516C1031.91 49.9396 1033.14 49.5716 1033.94 48.8475C1034.76 48.0965 1035.16 47.1756 1035.16 46.0847C1035.15 44.9937 1034.76 44.145 1033.98 43.5385C1033.23 42.9319 1031.94 42.4089 1030.1 41.9696L1027.74 41.3878C1026.88 41.181 1026.11 40.947 1025.42 40.6858C1024.75 40.4245 1024.16 40.1094 1023.65 39.7405C1023.17 39.3448 1022.8 38.8818 1022.53 38.3515C1022.26 37.8212 1022.12 37.1703 1022.11 36.3986C1022.11 35.5738 1022.32 34.774 1022.74 33.9993C1023.16 33.198 1023.74 32.4887 1024.48 31.8714C1025.24 31.254 1026.12 30.7687 1027.1 30.4158C1028.11 30.0361 1029.2 29.842 1030.37 29.8337C1031.57 29.8252 1032.58 29.9643 1033.41 30.2511C1034.23 30.5113 1034.91 30.8524 1035.45 31.2743C1036.01 31.6695 1036.41 32.1056 1036.66 32.5829C1036.93 33.0599 1037.07 33.4846 1037.1 33.857C1036.92 34.2308 1036.6 34.5657 1036.15 34.8616C1035.7 35.1309 1035.21 35.2941 1034.68 35.3511C1034.49 34.3413 1033.96 33.4669 1033.1 32.728C1032.25 31.989 1030.97 31.6256 1029.27 31.6377C1028.71 31.6417 1028.15 31.7255 1027.59 31.8892C1027.06 32.026 1026.58 32.2423 1026.16 32.538C1025.73 32.8337 1025.39 33.1954 1025.13 33.623C1024.86 34.0241 1024.74 34.504 1024.74 35.0627C1024.75 35.9674 1025.07 36.6969 1025.71 37.2511C1026.36 37.7787 1027.48 38.2231 1029.08 38.5842L1031.51 39.1655C1033.83 39.7344 1035.49 40.4677 1036.48 41.3653C1037.5 42.2362 1038.01 43.3634 1038.02 44.7471C1038.03 45.6251 1037.83 46.4913 1037.44 47.3457C1037.05 48.1734 1036.47 48.9226 1035.7 49.5933C1034.93 50.2374 1033.99 50.7497 1032.88 51.1302C1031.76 51.5372 1030.49 51.7459 1029.05 51.7562C1027.8 51.7651 1026.71 51.6132 1025.77 51.3006C1024.84 51.0145 1024.04 50.6344 1023.37 50.1602C1022.73 49.6858 1022.23 49.1704 1021.88 48.6141C1021.53 48.0312 1021.33 47.4605 1021.27 46.9022Z" fill="white"/>
<path d="M1041.61 31.8551C1041.83 31.5675 1042.17 31.3095 1042.63 31.0808C1043.11 30.8263 1043.64 30.7056 1044.19 30.719L1045.47 30.7495L1045.61 25.0036C1046.04 24.6679 1046.54 24.427 1047.1 24.2807C1047.69 24.1085 1048.25 24.0287 1048.79 24.0414L1048.62 30.8248L1056.44 31.0116C1056.41 31.4632 1056.26 31.8457 1056.02 32.1592C1055.8 32.4468 1055.51 32.5864 1055.17 32.5781L1048.58 32.4209L1048.27 45.5088C1048.25 46.36 1048.33 47.0539 1048.5 47.5903C1048.7 48.1008 1048.97 48.5065 1049.31 48.8074C1049.65 49.1083 1050.04 49.3173 1050.49 49.4345C1050.94 49.5517 1051.41 49.6161 1051.89 49.6275C1052.76 49.6485 1053.5 49.493 1054.09 49.1612C1054.69 48.8294 1055.17 48.4817 1055.56 48.1182C1055.93 48.2335 1056.16 48.4653 1056.26 48.8137C1056.12 49.0233 1055.9 49.2975 1055.6 49.6363C1055.3 49.9752 1054.9 50.3118 1054.42 50.6462C1053.93 50.9539 1053.35 51.2196 1052.68 51.4431C1052.01 51.6666 1051.26 51.7686 1050.44 51.7489C1049.69 51.7311 1048.99 51.6211 1048.33 51.419C1047.67 51.2169 1047.09 50.897 1046.6 50.4593C1046.13 50.0223 1045.76 49.4411 1045.48 48.7159C1045.21 47.9907 1045.08 47.096 1045.11 46.032L1045.43 32.3456L1041.6 32.2541L1041.61 31.8551Z" fill="white"/>
<path d="M1063.78 30.8887C1064.07 32.2649 1064.42 33.7512 1064.84 35.3476C1065.28 36.9189 1065.76 38.5191 1066.28 40.1482C1066.83 41.7787 1067.39 43.3968 1067.96 45.0023C1068.56 46.6094 1069.17 48.1102 1069.78 49.5048C1071.62 46.332 1073.11 43.2995 1074.26 40.4074C1075.42 37.4886 1076.38 34.7186 1077.14 32.0972C1077.49 31.9577 1077.87 31.8728 1078.27 31.8426C1078.7 31.7874 1079.1 31.7705 1079.48 31.7918C1079.61 31.7995 1079.74 31.8071 1079.87 31.8148C1080.03 31.8239 1080.18 31.8456 1080.31 31.8798C1079.43 34.2279 1078.25 36.9451 1076.76 40.0315C1075.28 43.0913 1073.61 46.2599 1071.74 49.5374C1070.94 50.9572 1070.2 52.234 1069.52 53.3677C1068.87 54.5029 1068.25 55.5467 1067.66 56.4991C1067.07 57.4514 1066.5 58.3381 1065.95 59.1592C1065.39 59.9802 1064.84 60.8013 1064.29 61.6223C1064.01 61.7398 1063.62 61.8239 1063.11 61.8746C1062.63 61.9534 1062.12 61.9774 1061.59 61.9469C1061.08 61.9179 1060.66 61.8536 1060.32 61.754L1060.33 61.5946C1061.52 60.3571 1062.76 59.0023 1064.04 57.5303C1065.33 56.0583 1066.62 54.3605 1067.93 52.4369C1067.22 50.9831 1066.49 49.3551 1065.74 47.5529C1064.99 45.7507 1064.28 43.9243 1063.61 42.0735C1062.97 40.2243 1062.37 38.404 1061.81 36.6125C1061.27 34.7959 1060.85 33.1457 1060.53 31.6616C1060.98 31.3939 1061.49 31.1971 1062.09 31.0713C1062.71 30.9205 1063.27 30.8597 1063.78 30.8887Z" fill="white"/>
<path d="M1099.9 39.2331C1099.64 41.4806 1099.7 43.495 1100.06 45.2763C1100.45 47.0606 1101.05 48.6014 1101.87 49.8986C1102.69 51.1694 1103.7 52.1804 1104.9 52.9317C1106.13 53.686 1107.46 54.1436 1108.88 54.3046C1111.92 54.6476 1114.39 53.8685 1116.3 51.9675C1118.22 50.0695 1119.42 47.0316 1119.89 42.8539C1120.12 40.8179 1120.08 38.9519 1119.76 37.2559C1119.45 35.5334 1118.89 34.0383 1118.1 32.7705C1117.33 31.4793 1116.34 30.4433 1115.12 29.6626C1113.92 28.8848 1112.53 28.4065 1110.94 28.2276C1109.67 28.0845 1108.41 28.1838 1107.17 28.5255C1105.95 28.8703 1104.84 29.4943 1103.83 30.3977C1102.84 31.2776 1102 32.4546 1101.3 33.9285C1100.6 35.376 1100.13 37.1442 1099.9 39.2331ZM1096.23 40.1042C1096.48 37.8567 1097.09 35.8507 1098.07 34.0863C1099.07 32.2984 1100.3 30.8033 1101.75 29.6009C1103.22 28.4015 1104.86 27.5285 1106.66 26.982C1108.49 26.4384 1110.37 26.2755 1112.3 26.4932C1114.39 26.7288 1116.19 27.293 1117.69 28.1858C1119.23 29.0816 1120.46 30.2253 1121.4 31.6167C1122.34 33.0082 1123 34.5945 1123.36 36.3759C1123.72 38.1307 1123.79 39.9997 1123.57 41.9828C1123.32 44.1774 1122.77 46.1909 1121.92 48.0231C1121.07 49.8553 1119.96 51.4035 1118.59 52.6677C1117.21 53.9319 1115.59 54.874 1113.73 55.4939C1111.89 56.1167 1109.86 56.3029 1107.64 56.0524C1105.87 55.8527 1104.23 55.3328 1102.72 54.4928C1101.23 53.6559 1099.96 52.5489 1098.91 51.172C1097.87 49.7686 1097.09 48.1409 1096.57 46.2888C1096.09 44.4132 1095.97 42.3517 1096.23 40.1042Z" fill="white"/>
<path d="M1136.81 57.5865C1138.07 57.7804 1139.27 57.6011 1140.4 57.0485C1141.54 56.4696 1142.47 55.6025 1143.18 54.4472L1145.38 40.1265C1145.87 39.9585 1146.38 39.8623 1146.92 39.8379C1147.49 39.8175 1148.05 39.8497 1148.6 39.9346L1145.49 60.2123C1145.09 60.3661 1144.61 60.4401 1144.04 60.4342C1143.5 60.4586 1142.96 60.4304 1142.44 60.3496L1143.01 56.6018C1142.68 57.0085 1142.24 57.4253 1141.69 57.8523C1141.17 58.2571 1140.56 58.6214 1139.87 58.9452C1139.18 59.2428 1138.4 59.4605 1137.55 59.5982C1136.72 59.7401 1135.82 59.7362 1134.84 59.5868C1133.87 59.4373 1132.97 59.1513 1132.15 58.7287C1131.35 58.3101 1130.68 57.7499 1130.14 57.048C1129.61 56.3198 1129.23 55.4672 1129 54.4901C1128.78 53.4868 1128.77 52.3407 1128.97 51.052L1130.98 37.9149C1131.47 37.7468 1131.98 37.6506 1132.52 37.6262C1133.09 37.6058 1133.65 37.6381 1134.2 37.7229L1132.26 50.3472C1132.08 51.5307 1132.07 52.5523 1132.24 53.4121C1132.4 54.2718 1132.7 54.9899 1133.12 55.5664C1133.54 56.1429 1134.06 56.5999 1134.68 56.9376C1135.34 57.2531 1136.04 57.4694 1136.81 57.5865Z" fill="white"/>
<path d="M1153.86 42.5C1154.12 42.2507 1154.5 42.0494 1154.99 41.8959C1155.5 41.7211 1156.04 41.6843 1156.59 41.7856L1157.84 42.0173L1158.89 36.365C1159.37 36.102 1159.9 35.9427 1160.48 35.887C1161.09 35.81 1161.65 35.8198 1162.18 35.9163L1160.95 42.5891L1168.64 44.0077C1168.53 44.4477 1168.33 44.803 1168.04 45.0736C1167.77 45.3229 1167.47 45.4161 1167.13 45.3534L1160.66 44.1591L1158.28 57.0337C1158.13 57.8711 1158.09 58.5683 1158.18 59.1254C1158.3 59.6612 1158.5 60.1044 1158.79 60.455C1159.07 60.8056 1159.43 61.0742 1159.86 61.2609C1160.28 61.4476 1160.73 61.5844 1161.2 61.6712C1162.06 61.8305 1162.82 61.7931 1163.45 61.5591C1164.09 61.325 1164.63 61.0586 1165.06 60.7598C1165.41 60.932 1165.6 61.1979 1165.65 61.5574C1165.48 61.7426 1165.22 61.9788 1164.87 62.2659C1164.52 62.553 1164.07 62.8232 1163.54 63.0765C1163.01 63.3037 1162.4 63.4747 1161.7 63.5896C1161 63.7044 1160.25 63.6871 1159.44 63.5375C1158.7 63.4024 1158.03 63.1829 1157.41 62.8791C1156.79 62.5753 1156.27 62.1682 1155.85 61.6579C1155.45 61.1523 1155.18 60.5197 1155.02 59.7601C1154.86 59.0005 1154.88 58.0974 1155.07 57.0507L1157.55 43.5873L1153.79 42.8925L1153.86 42.5Z" fill="white"/>
<path d="M1169.57 60.6551C1169.86 60.335 1170.27 60.0685 1170.8 59.8557C1171.37 59.6484 1171.93 59.5768 1172.48 59.6408C1172.38 61.007 1172.79 62.2486 1173.69 63.3658C1174.63 64.4625 1175.95 65.1933 1177.67 65.5583C1179.31 65.9066 1180.6 65.8123 1181.53 65.2755C1182.49 64.7181 1183.08 63.9058 1183.31 62.8387C1183.54 61.7715 1183.34 60.8584 1182.71 60.0994C1182.11 59.346 1180.96 58.5572 1179.25 57.7332L1177.07 56.6582C1176.29 56.2731 1175.58 55.8785 1174.96 55.4744C1174.36 55.0759 1173.86 54.6419 1173.44 54.1725C1173.05 53.6825 1172.79 53.1496 1172.64 52.5738C1172.49 51.9979 1172.49 51.3326 1172.65 50.5778C1172.82 49.7709 1173.2 49.0343 1173.78 48.3679C1174.36 47.6756 1175.08 47.1075 1175.93 46.6636C1176.82 46.2253 1177.77 45.9393 1178.81 45.8055C1179.88 45.6512 1180.98 45.6957 1182.13 45.939C1183.3 46.1879 1184.26 46.5411 1185 46.9988C1185.75 47.4305 1186.35 47.9099 1186.78 48.4369C1187.24 48.9435 1187.54 49.4559 1187.68 49.9741C1187.84 50.4979 1187.89 50.9448 1187.84 51.3147C1187.58 51.6404 1187.2 51.8994 1186.69 52.0917C1186.2 52.258 1185.68 52.3119 1185.15 52.2534C1185.18 51.2256 1184.85 50.2588 1184.18 49.3531C1183.5 48.4474 1182.33 47.8176 1180.66 47.4637C1180.11 47.3476 1179.55 47.3096 1178.97 47.3496C1178.42 47.3692 1177.91 47.4779 1177.43 47.6757C1176.95 47.8735 1176.54 48.153 1176.19 48.5142C1175.85 48.8493 1175.62 49.2902 1175.5 49.8368C1175.32 50.7217 1175.48 51.5039 1175.98 52.1832C1176.5 52.8364 1177.5 53.5111 1178.98 54.2073L1181.24 55.2989C1183.38 56.3525 1184.84 57.4241 1185.62 58.5137C1186.42 59.5827 1186.68 60.794 1186.39 62.1474C1186.21 63.0064 1185.84 63.8108 1185.27 64.5608C1184.71 65.2847 1183.98 65.8918 1183.09 66.3822C1182.2 66.8465 1181.17 67.1448 1180 67.2769C1178.82 67.4351 1177.53 67.3649 1176.13 67.0663C1174.9 66.8065 1173.87 66.4236 1173.03 65.9177C1172.18 65.4379 1171.48 64.8946 1170.92 64.2879C1170.4 63.6867 1170.03 63.0768 1169.8 62.4583C1169.59 61.8138 1169.51 61.2128 1169.57 60.6551Z" fill="white"/>
<path d="M1201.08 44.21C1200.75 44.5695 1200.28 44.9244 1199.68 45.2747C1199.08 45.5991 1198.57 45.8061 1198.14 45.8959C1197.79 45.6231 1197.42 45.2086 1197.04 44.6523C1196.65 44.0702 1196.38 43.5414 1196.22 43.066C1196.58 42.6867 1197.07 42.322 1197.67 41.9717C1198.27 41.6214 1198.79 41.3884 1199.23 41.2728C1199.57 41.5715 1199.93 42.0119 1200.31 42.594C1200.72 43.1823 1200.97 43.7209 1201.08 44.21ZM1195.44 50.0181C1195.94 49.8887 1196.46 49.8333 1197 49.8517C1197.57 49.8762 1198.12 49.9526 1198.67 50.0807L1193.96 70.0496C1193.55 70.1714 1193.04 70.2009 1192.43 70.1383C1191.83 70.1077 1191.28 70.0313 1190.76 69.9093L1195.44 50.0181Z" fill="white"/>
<path d="M1215.93 73.098C1215.54 73.4099 1215.1 73.705 1214.58 73.9832C1214.07 74.2615 1213.48 74.4775 1212.8 74.6313C1212.16 74.7919 1211.43 74.8773 1210.63 74.8877C1209.83 74.8981 1208.97 74.782 1208.04 74.5393C1206.91 74.2426 1205.88 73.7535 1204.96 73.072C1204.04 72.3904 1203.27 71.5428 1202.65 70.5291C1202.07 69.4964 1201.69 68.3239 1201.51 67.0117C1201.37 65.6806 1201.5 64.2299 1201.91 62.6597C1202.32 61.1153 1202.98 59.7222 1203.91 58.4806C1204.88 57.2199 1206 56.1934 1207.28 55.401C1208.56 54.6085 1209.95 54.0788 1211.45 53.8116C1212.97 53.5511 1214.51 53.6232 1216.05 54.0277C1217.08 54.2974 1217.93 54.6554 1218.58 55.1016C1219.26 55.5288 1219.83 55.9933 1220.28 56.4953L1222.87 46.6109C1223.36 46.4938 1223.88 46.4513 1224.43 46.4832C1224.99 46.5218 1225.55 46.6119 1226.09 46.7535L1218.36 76.2522C1217.95 76.3637 1217.43 76.3806 1216.82 76.3027C1216.23 76.2574 1215.67 76.1673 1215.16 76.0324L1215.93 73.098ZM1210.05 72.7126C1211.49 73.0902 1212.76 73.0657 1213.86 72.6392C1215 72.1937 1215.89 71.5744 1216.53 70.7813L1219.28 60.3178C1219.18 59.852 1219.01 59.3822 1218.78 58.9084C1218.58 58.4157 1218.29 57.9542 1217.9 57.5239C1217.53 57.0679 1217.05 56.669 1216.48 56.327C1215.95 55.966 1215.3 55.6877 1214.56 55.4922C1213.71 55.2697 1212.83 55.2179 1211.92 55.3367C1211 55.4556 1210.12 55.7749 1209.27 56.2946C1208.45 56.7953 1207.7 57.5194 1207.01 58.4669C1206.35 59.4211 1205.83 60.6061 1205.46 62.0218C1205.04 63.6435 1204.88 65.0745 1205 66.315C1205.14 67.5365 1205.45 68.5918 1205.9 69.4811C1206.39 70.3514 1207 71.0618 1207.74 71.6122C1208.48 72.1368 1209.25 72.5036 1210.05 72.7126Z" fill="white"/>
<path d="M1230.76 69.4207C1230.43 70.8202 1230.31 72.1035 1230.4 73.2707C1230.53 74.4201 1230.82 75.4381 1231.28 76.3246C1231.74 77.2112 1232.34 77.9626 1233.1 78.5788C1233.9 79.1771 1234.79 79.625 1235.79 79.9224C1237.03 80.2961 1238.16 80.4507 1239.15 80.3862C1240.16 80.3293 1241.15 80.0546 1242.1 79.5619C1242.44 79.7452 1242.6 80.0598 1242.61 80.5058C1242.35 80.7329 1241.95 80.9893 1241.42 81.2752C1240.92 81.5687 1240.28 81.8075 1239.5 81.9916C1238.75 82.1833 1237.87 82.2694 1236.88 82.2498C1235.9 82.2633 1234.82 82.0908 1233.62 81.7324C1232.34 81.3511 1231.23 80.767 1230.27 79.9802C1229.31 79.1934 1228.55 78.2446 1228 77.1339C1227.44 76.0231 1227.11 74.7579 1227.01 73.3384C1226.93 71.9265 1227.13 70.4175 1227.61 68.8114C1228.05 67.3329 1228.72 66.0198 1229.62 64.8722C1230.53 63.6991 1231.56 62.7578 1232.72 62.0484C1233.9 61.3466 1235.16 60.8906 1236.5 60.6806C1237.87 60.4527 1239.24 60.5408 1240.59 60.945C1242.04 61.3797 1243.17 61.9803 1243.97 62.7468C1244.76 63.5134 1245.32 64.3591 1245.62 65.284C1245.95 66.2166 1246.09 67.1722 1246.01 68.151C1245.97 69.1374 1245.82 70.0639 1245.56 70.9307C1245.26 71.1756 1244.9 71.3594 1244.48 71.482C1244.08 71.6123 1243.65 71.6802 1243.21 71.6857L1230.76 69.4207ZM1239.08 62.3684C1238.29 62.1319 1237.51 62.051 1236.74 62.1255C1235.96 62.2 1235.23 62.4542 1234.55 62.888C1233.86 63.3218 1233.22 63.948 1232.61 64.7666C1232.03 65.5928 1231.53 66.6522 1231.12 67.9447L1242.24 70.0616C1242.3 69.9418 1242.35 69.8181 1242.39 69.6907C1242.43 69.5632 1242.46 69.4485 1242.49 69.3465C1242.73 68.5563 1242.84 67.7992 1242.84 67.0754C1242.83 66.3516 1242.68 65.6827 1242.4 65.0686C1242.13 64.4623 1241.72 63.9235 1241.17 63.4525C1240.64 62.989 1239.95 62.6276 1239.08 62.3684Z" fill="white"/>
<path d="M1252.05 85.0822C1251.61 85.4983 1251.06 85.8522 1250.4 86.1439C1249.78 86.4185 1249.22 86.5873 1248.73 86.6505C1248.34 86.3004 1247.97 85.8323 1247.63 85.2462C1247.3 84.6348 1247.07 84.0308 1246.96 83.4343C1247.39 83.0435 1247.93 82.6982 1248.55 82.3983C1249.22 82.0813 1249.79 81.8912 1250.29 81.8281C1250.73 82.1946 1251.11 82.6962 1251.44 83.3329C1251.77 83.9443 1251.98 84.5274 1252.05 85.0822Z" fill="white"/>
<path d="M1270.49 92.756C1270.01 92.8348 1269.48 92.8112 1268.9 92.6852C1268.34 92.5933 1267.77 92.4423 1267.19 92.2322L1276.81 65.9159C1277.24 65.8439 1277.75 65.8334 1278.36 65.8844C1278.99 65.9446 1279.59 66.0672 1280.18 66.2523C1280.78 66.4466 1281.68 66.7584 1282.85 67.1877C1284.06 67.6012 1285.36 68.0467 1286.74 68.5241C1288.12 69.0016 1289.5 69.4915 1290.88 69.994C1292.26 70.4714 1293.44 70.8883 1294.41 71.2445C1294.18 71.7261 1293.88 72.1382 1293.5 72.4808C1293.14 72.8326 1292.79 73.0162 1292.44 73.0315C1291.57 72.7118 1290.59 72.3384 1289.5 71.9115C1288.41 71.4846 1287.28 71.0439 1286.11 70.5896C1284.96 70.1102 1283.81 69.648 1282.67 69.2028C1281.54 68.7326 1280.5 68.2989 1279.57 67.9018L1275.56 78.8856L1287.34 82.936C1287.12 83.3676 1286.85 83.7342 1286.51 84.036C1286.17 84.3378 1285.87 84.468 1285.6 84.4267C1283.81 83.7439 1282.04 83.0829 1280.29 82.4434C1278.54 81.8039 1276.78 81.1303 1275 80.4226L1270.49 92.756Z" fill="white"/>
<path d="M1300.58 72.2578C1301.09 72.2008 1301.61 72.2204 1302.14 72.3165C1302.7 72.4223 1303.24 72.5777 1303.76 72.7825L1292.58 101.153C1292.16 101.215 1291.65 101.17 1291.05 101.02C1290.46 100.905 1289.92 100.749 1289.43 100.554L1300.58 72.2578Z" fill="white"/>
<path d="M1316.6 109.847C1316.47 109.939 1316.29 110.034 1316.04 110.133C1315.83 110.243 1315.58 110.342 1315.31 110.431C1315.05 110.496 1314.78 110.537 1314.48 110.557C1314.21 110.586 1313.96 110.584 1313.75 110.551C1312.98 110.171 1312.44 109.597 1312.13 108.83C1311.83 108.039 1311.85 107.18 1312.18 106.252C1311.83 106.537 1311.37 106.805 1310.8 107.056C1310.24 107.283 1309.61 107.449 1308.9 107.555C1308.23 107.646 1307.49 107.64 1306.7 107.536C1305.9 107.457 1305.08 107.242 1304.24 106.891C1302.5 106.157 1301.3 105.131 1300.65 103.814C1300.01 102.508 1300.01 101.119 1300.63 99.6478C1301.27 98.1277 1302.38 97.0956 1303.97 96.5517C1305.55 96.0078 1307.85 96.0799 1310.85 96.768L1315.55 97.841L1316.16 96.4066C1316.9 94.6413 1317.05 93.117 1316.61 91.8338C1316.2 90.561 1315.18 89.5834 1313.56 88.9011C1312.56 88.4773 1311.59 88.3729 1310.66 88.588C1309.77 88.7889 1309.11 89.3797 1308.7 90.3605C1308.52 90.8018 1308.5 91.2561 1308.65 91.7235C1308.3 91.9246 1307.83 92.0445 1307.24 92.0829C1306.64 92.1213 1306.08 92.0565 1305.54 91.8885C1305.47 91.7142 1305.4 91.4683 1305.34 91.1507C1305.27 90.8332 1305.32 90.466 1305.5 90.0492C1305.82 89.2891 1306.34 88.6711 1307.06 88.1951C1307.78 87.7192 1308.59 87.3982 1309.5 87.2322C1310.42 87.0416 1311.4 87.0078 1312.45 87.131C1313.49 87.2541 1314.52 87.5276 1315.52 87.9514C1317.88 88.9439 1319.31 90.1862 1319.84 91.6786C1320.38 93.1464 1320.24 94.8365 1319.44 96.749L1315.54 105.98C1315.12 106.986 1315.05 107.777 1315.32 108.356C1315.61 108.91 1316.03 109.347 1316.59 109.669L1316.6 109.847ZM1306.24 105.438C1307.52 105.975 1308.72 106.136 1309.85 105.919C1311.01 105.713 1311.98 105.227 1312.76 104.461L1315 99.165L1309.69 97.9698C1308.27 97.6567 1307.07 97.6445 1306.11 97.9332C1305.18 98.2322 1304.48 98.9334 1304.02 100.037C1303.5 101.263 1303.47 102.362 1303.92 103.334C1304.42 104.292 1305.19 104.993 1306.24 105.438Z" fill="white"/>
<path d="M1328.48 116.411C1328.1 116.471 1327.61 116.44 1327.03 116.317C1326.46 116.205 1325.98 116.055 1325.57 115.866C1325.42 114.454 1325.35 112.796 1325.34 110.891C1325.35 108.962 1325.4 106.995 1325.5 104.991C1325.61 102.964 1325.77 101 1325.96 99.0999C1326.18 97.2111 1326.43 95.5537 1326.71 94.1275C1327.24 94.05 1327.76 94.056 1328.28 94.1458C1328.83 94.2224 1329.36 94.3772 1329.87 94.61C1329.6 95.893 1329.35 97.3721 1329.1 99.0472C1328.89 100.733 1328.7 102.49 1328.53 104.317C1328.38 106.12 1328.26 107.923 1328.16 109.724C1328.09 111.536 1328.08 113.215 1328.14 114.761C1330.64 112.748 1333.05 110.499 1335.36 108.016C1337.7 105.519 1339.77 103.044 1341.57 100.59C1341.9 100.567 1342.27 100.59 1342.68 100.66C1343.09 100.729 1343.47 100.847 1343.83 101.014C1343.95 101.069 1344.08 101.124 1344.2 101.18C1344.32 101.235 1344.43 101.303 1344.54 101.383C1343.49 102.656 1342.32 103.964 1341.03 105.305C1339.74 106.647 1338.39 107.973 1336.97 109.283C1335.58 110.58 1334.16 111.843 1332.69 113.071C1331.25 114.287 1329.85 115.4 1328.48 116.411Z" fill="white"/>
<path d="M1346.91 113.289C1346.16 114.788 1345.68 116.186 1345.48 117.483C1345.3 118.792 1345.32 119.976 1345.53 121.035C1345.78 122.083 1346.2 122.993 1346.79 123.767C1347.41 124.553 1348.16 125.166 1349.04 125.607C1350.95 126.56 1352.71 126.657 1354.34 125.896C1355.99 125.112 1357.45 123.435 1358.74 120.865C1359.36 119.628 1359.79 118.403 1360.04 117.189C1360.29 115.975 1360.33 114.833 1360.15 113.762C1360 112.703 1359.63 111.745 1359.05 110.887C1358.47 110.03 1357.65 109.34 1356.6 108.815C1355.84 108.434 1355.03 108.207 1354.18 108.135C1353.32 108.063 1352.46 108.2 1351.61 108.544C1350.76 108.865 1349.92 109.412 1349.09 110.185C1348.29 110.946 1347.56 111.981 1346.91 113.289ZM1343.36 112.894C1344.08 111.443 1345.02 110.23 1346.16 109.255C1347.32 108.256 1348.55 107.537 1349.88 107.097C1351.23 106.646 1352.63 106.468 1354.07 106.565C1355.55 106.649 1356.96 107.031 1358.32 107.71C1359.79 108.448 1360.94 109.336 1361.76 110.372C1362.61 111.419 1363.16 112.532 1363.44 113.711C1363.73 114.901 1363.77 116.138 1363.54 117.423C1363.34 118.72 1362.93 119.987 1362.31 121.225C1361.58 122.676 1360.68 123.919 1359.59 124.953C1358.51 125.988 1357.3 126.767 1355.97 127.289C1354.67 127.8 1353.28 128.026 1351.79 127.965C1350.3 127.905 1348.79 127.487 1347.24 126.713C1346.1 126.141 1345.11 125.378 1344.28 124.426C1343.44 123.473 1342.83 122.39 1342.42 121.176C1342.04 119.974 1341.91 118.671 1342.02 117.267C1342.16 115.851 1342.61 114.393 1343.36 112.894Z" fill="white"/>
<path d="M1372.5 116.225C1373.49 116.247 1374.47 116.524 1375.45 117.057L1372.71 122.108C1373.33 121.534 1374 121.039 1374.74 120.623C1375.5 120.184 1376.28 119.865 1377.08 119.666C1377.91 119.479 1378.74 119.43 1379.57 119.518C1380.41 119.582 1381.24 119.836 1382.06 120.28C1382.69 120.623 1383.18 121.027 1383.54 121.491C1383.9 121.932 1384.16 122.387 1384.29 122.856C1384.45 123.302 1384.49 123.75 1384.43 124.2C1384.39 124.663 1384.29 125.076 1384.12 125.44C1383.75 125.666 1383.27 125.768 1382.68 125.748C1382.11 125.741 1381.59 125.64 1381.12 125.446C1381.34 124.751 1381.39 124.05 1381.26 123.343C1381.13 122.636 1380.6 122.029 1379.66 121.521C1378.98 121.153 1378.24 121.009 1377.44 121.089C1376.67 121.182 1375.86 121.47 1375.02 121.954C1374.19 122.414 1373.38 123.059 1372.56 123.889C1371.77 124.732 1371.02 125.719 1370.32 126.85L1365.81 135.163C1365.38 135.173 1364.87 135.067 1364.3 134.845C1363.73 134.659 1363.22 134.439 1362.75 134.185L1372.5 116.225Z" fill="white"/>
<path d="M1392.51 150.292C1392.02 150.28 1391.51 150.158 1390.97 149.927C1390.43 149.732 1389.9 149.478 1389.38 149.165L1403.89 124.826C1404.91 124.878 1405.97 125.231 1407.07 125.885L1392.51 150.292Z" fill="white"/>
<path d="M1419.06 152.616C1420.28 150.71 1420.78 149.07 1420.55 147.694C1420.34 146.295 1419.52 145.137 1418.08 144.219C1417.57 143.89 1416.99 143.661 1416.34 143.533C1415.74 143.397 1415.1 143.335 1414.42 143.347C1413.77 143.375 1413.11 143.472 1412.44 143.64C1411.77 143.785 1411.14 143.982 1410.54 144.229L1402.67 156.535C1402.24 156.513 1401.75 156.371 1401.19 156.109C1400.64 155.883 1400.14 155.627 1399.69 155.34L1410.7 138.125C1411.69 138.217 1412.64 138.558 1413.56 139.145L1411.43 142.474C1411.96 142.279 1412.59 142.113 1413.31 141.973C1414.07 141.826 1414.84 141.753 1415.63 141.752C1416.45 141.767 1417.26 141.877 1418.08 142.083C1418.93 142.281 1419.75 142.631 1420.53 143.132C1422.35 144.294 1423.43 145.761 1423.78 147.533C1424.15 149.32 1423.69 151.233 1422.38 153.273L1415.18 164.536C1414.75 164.515 1414.26 164.373 1413.7 164.11C1413.15 163.884 1412.65 163.628 1412.2 163.341L1419.06 152.616Z" fill="white"/>
<path d="M1421.84 164.291C1422.23 164.107 1422.71 164.021 1423.29 164.033C1423.88 164.06 1424.43 164.211 1424.92 164.487C1424.29 165.707 1424.18 167.008 1424.58 168.389C1425.02 169.764 1425.95 170.953 1427.4 171.957C1428.77 172.916 1429.99 173.329 1431.06 173.196C1432.16 173.057 1433.02 172.54 1433.65 171.645C1434.27 170.75 1434.44 169.83 1434.16 168.887C1433.9 167.959 1433.14 166.784 1431.89 165.363L1430.31 163.525C1429.73 162.864 1429.23 162.226 1428.82 161.612C1428.42 161.013 1428.13 160.417 1427.92 159.822C1427.76 159.221 1427.72 158.626 1427.81 158.037C1427.89 157.448 1428.16 156.837 1428.6 156.204C1429.07 155.528 1429.7 154.994 1430.49 154.605C1431.3 154.194 1432.18 153.95 1433.14 153.874C1434.12 153.813 1435.12 153.922 1436.12 154.202C1437.17 154.474 1438.17 154.946 1439.13 155.615C1440.11 156.3 1440.86 156.998 1441.37 157.71C1441.89 158.4 1442.25 159.072 1442.44 159.725C1442.67 160.372 1442.75 160.961 1442.67 161.491C1442.62 162.036 1442.49 162.469 1442.3 162.79C1441.94 162.989 1441.48 163.079 1440.94 163.06C1440.42 163.02 1439.93 162.869 1439.46 162.609C1439.88 161.673 1439.96 160.656 1439.69 159.557C1439.42 158.459 1438.58 157.423 1437.18 156.449C1436.73 156.13 1436.22 155.876 1435.67 155.687C1435.16 155.492 1434.65 155.393 1434.13 155.389C1433.61 155.386 1433.12 155.483 1432.66 155.68C1432.21 155.855 1431.83 156.172 1431.51 156.63C1430.99 157.372 1430.84 158.155 1431.04 158.979C1431.26 159.781 1431.92 160.791 1433.02 162.01L1434.67 163.893C1436.24 165.697 1437.16 167.252 1437.45 168.557C1437.78 169.856 1437.55 171.072 1436.76 172.208C1436.25 172.928 1435.6 173.523 1434.78 173.993C1433.98 174.442 1433.08 174.718 1432.06 174.823C1431.07 174.905 1430 174.78 1428.87 174.446C1427.73 174.135 1426.56 173.568 1425.39 172.746C1424.36 172.031 1423.56 171.276 1422.97 170.481C1422.38 169.709 1421.94 168.936 1421.67 168.162C1421.42 167.404 1421.31 166.697 1421.35 166.041C1421.4 165.363 1421.57 164.779 1421.84 164.291Z" fill="white"/>
<path d="M1458.22 162.218C1457.77 162.416 1457.2 162.555 1456.51 162.637C1455.83 162.697 1455.28 162.682 1454.85 162.592C1454.64 162.204 1454.47 161.678 1454.33 161.013C1454.22 160.327 1454.18 159.733 1454.22 159.233C1454.7 159.03 1455.29 158.887 1455.98 158.806C1456.67 158.725 1457.24 158.718 1457.69 158.786C1457.88 159.196 1458.04 159.744 1458.16 160.43C1458.3 161.132 1458.32 161.728 1458.22 162.218ZM1450.74 165.299C1451.24 165.378 1451.74 165.534 1452.23 165.767C1452.74 166.016 1453.22 166.308 1453.67 166.642L1441.39 183.081C1440.97 183.029 1440.49 182.851 1439.95 182.549C1439.42 182.284 1438.94 181.993 1438.51 181.674L1450.74 165.299Z" fill="white"/>
</svg>
