<svg width="53" height="53" viewBox="0 0 53 53" fill="none" xmlns="http://www.w3.org/2000/svg">
<circle cx="26.5" cy="26.5" r="26.5" fill="#A6CA60"/>
<g clip-path="url(#clip0_65_164)">
<path d="M16.7091 14.9379C14.9076 14.9288 13.135 15.8168 12.0646 17.2625C11.5115 18.0114 11.2433 18.6038 11.0718 19.4504C10.9446 20.0954 10.943 20.1738 11.045 20.5404C11.1616 20.9688 11.4702 21.3871 11.8258 21.6242C12.0246 21.7531 12.0389 21.782 11.9649 21.9321C11.9155 22.0212 11.8467 22.2838 11.8104 22.513C11.7314 22.9704 11.8088 23.3979 12.0414 23.8021L12.1642 24.0218L12.0055 24.1691C11.3469 24.7803 11.0168 25.7743 11.2087 26.5708C11.3008 26.9552 11.2925 26.9996 11.1467 26.9723C10.8997 26.9261 10.2983 27.1611 9.9932 27.4254C9.26417 28.0627 9.07579 29.175 9.45373 30.5899C9.60483 31.1493 9.69321 31.3428 10.0807 31.9005C10.4515 32.442 10.6218 32.6181 11.0721 32.945C12.0508 33.6723 11.0443 33.4447 24.7225 36.0032C38.407 38.5628 37.3735 38.4089 38.5616 38.0869C39.1135 37.9409 39.3221 37.8422 39.8647 37.4651C40.4062 37.0942 40.5811 36.9302 40.9155 36.4748C41.7821 35.3123 42.0057 34.187 41.5563 33.3292C41.3673 32.9726 40.8916 32.5361 40.6445 32.4898C40.4988 32.4626 40.5071 32.4182 40.7319 32.0931C41.1988 31.4198 41.2502 30.3737 40.8571 29.5658L40.7624 29.371L40.9563 29.2106C41.3268 28.9127 41.5558 28.5293 41.6451 28.087C41.6878 27.859 41.7174 27.5956 41.7035 27.4947C41.6887 27.328 41.7125 27.3062 41.9445 27.2578C42.3618 27.1654 42.8007 26.8868 43.0643 26.5296C43.2918 26.2246 43.3187 26.151 43.4332 25.5036C43.8554 23.0712 42.5271 20.5671 40.1867 19.408L39.7071 19.1675L28.4641 17.0514C19.0128 15.277 17.1415 14.9401 16.7091 14.9379ZM19.3695 17.0158C19.528 17.2552 19.6754 17.5189 19.6992 17.602C19.88 18.2129 19.1865 18.6602 18.6783 18.2569C18.5928 18.1885 18.2366 17.7088 17.8813 17.1898L17.2386 16.2434L18.1573 16.4153L19.0823 16.5883L19.3695 17.0158ZM25.823 19.2524C26.5195 20.2613 27.0297 20.9338 27.1905 21.0556C27.5454 21.3318 28.1655 21.4872 28.6362 21.4244C29.1347 21.3537 29.7739 20.9159 30.02 20.4767C30.2597 20.0363 30.3327 19.4008 30.1844 18.9666L30.0742 18.6443L32.0192 19.0081L33.9579 19.3708L35.0727 20.9825C35.7692 21.9914 36.2795 22.6639 36.4403 22.7858C36.7951 23.062 37.4152 23.2173 37.886 23.1546C38.3844 23.0839 39.0237 22.6461 39.2697 22.2069C39.4909 21.7958 39.5777 21.1563 39.4564 20.7533L39.3731 20.4624L39.7164 20.6249C40.356 20.9216 40.9339 21.4428 41.4192 22.1434C41.7964 22.686 41.8963 22.8883 42.0422 23.4402C42.246 24.1734 42.2907 25.021 42.146 25.4792C42.0792 25.6962 42.0072 25.8008 41.8303 25.9054L41.6007 26.046L27.0632 23.3137L12.527 20.575L12.3891 20.3656C12.254 20.1764 12.252 20.117 12.3365 19.7001C12.4602 19.0741 12.6461 18.6761 13.1146 18.0293C13.4501 17.5675 13.6152 17.4213 14.1642 17.0454C14.6004 16.7466 14.9634 16.5588 15.2757 16.4664L15.7417 16.3241L16.7123 17.7253C17.3058 18.5838 17.78 19.2036 17.9408 19.3255C18.2957 19.6017 18.9158 19.757 19.3865 19.6943C19.8849 19.6236 20.5242 19.1858 20.7703 18.7466C21.01 18.3062 21.083 17.6707 20.9347 17.2364L20.8245 16.9142L22.7695 17.278L24.7081 17.6406L25.823 19.2524ZM28.6192 18.7459C28.7777 18.9854 28.9251 19.249 28.9489 19.3322C29.1297 19.943 28.4362 20.3903 27.9281 19.9871C27.8425 19.9186 27.4864 19.4389 27.131 18.92L26.4884 17.9736L27.407 18.1454L28.332 18.3184L28.6192 18.7459ZM37.869 20.4761C38.0274 20.7156 38.1748 20.9792 38.1986 21.0623C38.3794 21.6732 37.686 22.1205 37.1778 21.7172C37.0923 21.6488 36.7361 21.1691 36.3807 20.6501L35.7381 19.7038L36.6568 19.8756L37.5817 20.0486L37.869 20.4761ZM40.2931 27.3227C40.5042 27.631 40.4217 28.0024 40.0967 28.1974L39.8596 28.3432L26.5892 25.8479L13.32 23.3462L13.1821 23.1368C12.9286 22.7746 13.1347 22.269 13.5721 22.1737C13.6465 22.1614 19.6561 23.2658 26.928 24.6326L40.154 27.1196L40.2931 27.3227ZM16.9898 26.6883L18.0187 28.1987L15.5451 27.7163L13.0715 27.234L12.873 27.0329C12.4468 26.6122 12.3357 26.0144 12.5845 25.4905C12.725 25.1955 13.226 24.8302 13.5329 24.8024C13.6465 24.7908 14.2416 24.8694 14.8498 24.9831L15.9597 25.1842L16.9898 26.6883ZM24.5219 29.2577L21.6855 31.2058L19.745 28.3642L17.797 25.5278L22.5802 26.4225L27.3635 27.3172L24.5219 29.2577ZM29.5903 30.2058L26.7539 32.1538L26.101 31.1924L25.4405 30.2361L27.3207 28.9485L29.2008 27.6609L30.8163 27.9631L32.4318 28.2653L29.5903 30.2058ZM39.4326 29.7846C39.7899 30.153 39.8886 30.4666 39.7974 30.9544C39.7061 31.4422 39.5007 31.6989 39.0344 31.9133L38.7553 32.0381L35.0075 31.3568L31.2609 30.6691L32.765 29.639L34.2703 28.6026L36.7439 29.0849L39.2175 29.5673L39.4326 29.7846ZM20.0555 31.1566C20.6799 32.0602 21.1271 32.6488 21.2301 32.6943C21.5493 32.8458 21.7353 32.7626 23.0502 31.8676L24.3489 30.9892L25.2423 32.2776C26.1448 33.5873 26.2882 33.7322 26.6405 33.7063C26.753 33.7011 27.3827 33.314 28.2915 32.6971L29.7632 31.7003L35.0002 32.693L40.2361 33.6921L40.3636 33.8864C40.5142 34.0982 40.5286 34.4418 40.4024 34.7658L40.3154 34.9855L36.5435 34.2931L32.764 33.6058L32.5412 33.7805C32.2506 34.0016 32.2032 34.255 32.3942 34.5661L32.5388 34.8096L36.0364 35.4966L39.5276 36.1824L39.0887 36.4609C38.8441 36.6119 38.4708 36.7847 38.2693 36.8453C37.4102 37.0912 38.2449 37.2211 24.9595 34.7361C14.4173 32.7642 12.7788 32.4446 12.4774 32.303C11.3508 31.7709 10.6412 30.7268 10.5611 29.4725C10.5172 28.7955 10.7178 28.3543 11.12 28.2722C11.1944 28.2599 13.0111 28.5734 15.1461 28.9728L19.0436 29.6953L20.0555 31.1566Z" fill="black"/>
<path d="M30.2619 33.1706C30.0438 33.2151 29.7865 33.4686 29.7486 33.6713C29.7012 33.9247 29.9357 34.2833 30.2125 34.381C30.403 34.4494 30.4774 34.4371 30.6845 34.3119C30.8915 34.1867 30.9437 34.1178 30.9852 33.896C31.0267 33.6743 31.0029 33.5912 30.8603 33.4071C30.6856 33.1843 30.5216 33.1143 30.2619 33.1706Z" fill="black"/>
</g>
<defs>
<clipPath id="clip0_65_164">
<rect width="33" height="33" fill="white" transform="translate(13.3149 7.24759) rotate(10.5947)"/>
</clipPath>
</defs>
</svg>
