<svg width="53" height="53" viewBox="0 0 53 53" fill="none" xmlns="http://www.w3.org/2000/svg">
<circle cx="26.5" cy="26.5" r="26.5" fill="#A6CA60"/>
<path fill-rule="evenodd" clip-rule="evenodd" d="M25.5 16C24.1446 16.0001 22.8089 16.3244 21.6043 16.9457C20.3997 17.567 19.3611 18.4674 18.5752 19.5718C17.7894 20.6761 17.279 21.9523 17.0867 23.294C16.8944 24.6357 17.0258 26.004 17.4698 27.2846C17.9138 28.5652 18.6577 29.7211 19.6392 30.6557C20.6208 31.5904 21.8117 32.2768 23.1125 32.6576C24.4133 33.0384 25.7864 33.1026 27.117 32.8449C28.4477 32.5872 29.6975 32.015 30.762 31.176L34.414 34.828C34.6026 35.0102 34.8552 35.111 35.1174 35.1087C35.3796 35.1064 35.6304 35.0012 35.8158 34.8158C36.0012 34.6304 36.1064 34.3796 36.1087 34.1174C36.111 33.8552 36.0102 33.6026 35.828 33.414L32.176 29.762C33.164 28.5086 33.7792 27.0024 33.9511 25.4157C34.123 23.8291 33.8448 22.226 33.1482 20.7901C32.4517 19.3542 31.3649 18.1434 30.0123 17.2962C28.6597 16.4491 27.096 15.9999 25.5 16ZM19 24.5C19 22.7761 19.6848 21.1228 20.9038 19.9038C22.1228 18.6848 23.7761 18 25.5 18C27.2239 18 28.8772 18.6848 30.0962 19.9038C31.3152 21.1228 32 22.7761 32 24.5C32 26.2239 31.3152 27.8772 30.0962 29.0962C28.8772 30.3152 27.2239 31 25.5 31C23.7761 31 22.1228 30.3152 20.9038 29.0962C19.6848 27.8772 19 26.2239 19 24.5Z" fill="#3A4B18"/>
</svg>
