<svg width="1440" height="1045" viewBox="0 0 1440 1045" fill="none" xmlns="http://www.w3.org/2000/svg">
<g filter="url(#filter0_f_52_165)">
<ellipse cx="720" cy="522.467" rx="494" ry="165.5" fill="#FFF47A"/>
</g>
<path d="M20.6794 477.209C20.6532 477.474 20.564 477.82 20.4116 478.246C20.3006 478.652 20.1483 479.078 19.9547 479.523C19.7415 479.927 19.4773 480.331 19.1619 480.732C18.8879 481.115 18.6053 481.425 18.3139 481.664C16.9532 482.207 15.6036 482.239 14.2651 481.76C12.907 481.24 11.8252 480.236 11.0196 478.747C10.9823 479.522 10.7993 480.418 10.4707 481.432C10.1225 482.406 9.61025 483.407 8.93388 484.434C8.27927 485.401 7.43126 486.333 6.38984 487.23C5.36797 488.168 4.15491 488.97 2.75066 489.634C-0.181729 491.021 -2.86697 491.382 -5.30507 490.716C-7.70187 490.03 -9.48647 488.448 -10.6589 485.97C-11.8704 483.409 -11.9159 480.803 -10.7954 478.15C-9.67491 475.497 -6.9559 472.643 -2.63836 469.59L4.11841 464.801L2.97532 462.385C1.56843 459.411 -0.208397 457.472 -2.35516 456.566C-4.46063 455.642 -6.87631 455.824 -9.60219 457.114C-11.2955 457.915 -12.5359 459.033 -13.3233 460.467C-14.0889 461.84 -14.081 463.352 -13.2994 465.004C-12.9476 465.748 -12.3872 466.291 -11.618 466.635C-11.7552 467.307 -12.1392 468.044 -12.7698 468.848C-13.4004 469.652 -14.1299 470.3 -14.9581 470.793C-15.2623 470.684 -15.6567 470.492 -16.1412 470.216C-16.6257 469.939 -17.034 469.45 -17.3662 468.748C-17.972 467.468 -18.1669 466.094 -17.9511 464.627C-17.7352 463.161 -17.2141 461.751 -16.3876 460.4C-15.5807 459.007 -14.4999 457.713 -13.1454 456.516C-11.7909 455.319 -10.267 454.32 -8.57364 453.519C-4.60871 451.643 -1.37034 451.223 1.14147 452.258C3.63375 453.253 5.64195 455.361 7.16608 458.582L14.5229 474.132C15.3241 475.826 16.2527 476.827 17.3087 477.136C18.3453 477.404 19.3884 477.365 20.4383 477.02L20.6794 477.209ZM3.17969 485.413C5.32735 484.397 6.91013 483.041 7.92801 481.347C8.9872 479.632 9.47594 477.834 9.39424 475.952L5.17358 467.031L-2.42454 472.445C-4.45941 473.914 -5.84123 475.427 -6.57 476.985C-7.25748 478.523 -7.16156 480.221 -6.28226 482.08C-5.30525 484.145 -3.93344 485.442 -2.16682 485.971C-0.378437 486.439 1.40373 486.253 3.17969 485.413Z" fill="#3A4B18"/>
<path d="M46.8255 446.219C45.3827 442.613 43.5879 440.28 41.4412 439.22C39.2775 438.117 36.8382 438.109 34.1233 439.195C33.1477 439.586 32.2484 440.167 31.4255 440.939C30.628 441.652 29.9027 442.484 29.2495 443.434C28.6388 444.367 28.1129 445.39 27.6718 446.501C27.2138 447.571 26.8576 448.648 26.6032 449.734L35.9221 473.023C35.464 473.6 34.7726 474.147 33.8479 474.665C32.9825 475.208 32.1256 475.649 31.2772 475.989L18.2409 443.41C19.3522 442.129 20.7775 441.14 22.5167 440.444L25.0374 446.744C25.3003 445.802 25.6947 444.758 26.2206 443.613C26.7719 442.408 27.442 441.254 28.231 440.151C29.0623 439.031 30.0294 438.004 31.1323 437.07C32.2606 436.078 33.5671 435.284 35.0518 434.69C38.4878 433.315 41.6186 433.268 44.4441 434.549C47.312 435.813 49.5183 438.375 51.063 442.235L59.5926 463.551C59.1346 464.128 58.4431 464.676 57.5184 465.193C56.653 465.736 55.7962 466.178 54.9478 466.517L46.8255 446.219Z" fill="#3A4B18"/>
<path d="M91.0166 430.569C89.7765 426.888 88.1142 424.459 86.0297 423.281C83.9307 422.06 81.4956 421.916 78.7245 422.85C77.7287 423.185 76.7985 423.716 75.9339 424.441C75.0548 425.123 74.27 425.942 73.5796 426.898C72.9179 427.796 72.3359 428.787 71.8338 429.873C71.317 430.915 70.9088 431.992 70.609 433.106L78.5751 456.747C78.0857 457.297 77.3649 457.806 76.4128 458.271C75.5186 458.765 74.6385 459.158 73.7726 459.45L57.0962 409.96C57.7009 409.322 58.4071 408.771 59.2147 408.306C60.0656 407.826 60.9457 407.433 61.855 407.127L69.3396 429.339C69.6978 428.399 70.1785 427.393 70.7819 426.322C71.3852 425.251 72.1187 424.208 72.9823 423.194C73.8459 422.179 74.8399 421.266 75.9642 420.453C77.1173 419.582 78.4299 418.899 79.902 418.403C83.4092 417.221 86.5377 417.348 89.2877 418.784C92.0809 420.205 94.1413 422.886 95.469 426.826L102.801 448.584C102.311 449.134 101.59 449.642 100.638 450.108C99.744 450.602 98.8639 450.995 97.998 451.287L91.0166 430.569Z" fill="#3A4B18"/>
<path d="M158.285 425.101C158.117 425.378 157.856 425.654 157.5 425.929C157.134 426.161 156.723 426.403 156.267 426.656C155.856 426.898 155.418 427.124 154.952 427.333C154.475 427.497 154.036 427.628 153.637 427.727L130.616 396.407C131.157 399.944 131.714 403.548 132.287 407.218C132.894 410.833 133.496 414.425 134.092 417.996C134.722 421.511 135.34 424.982 135.948 428.409C136.589 431.78 137.22 435.012 137.84 438.106C137.273 438.67 136.495 439.143 135.508 439.527C134.575 439.945 133.621 440.274 132.645 440.514C131.677 432.565 130.749 424.488 129.86 416.285C128.971 408.081 128.115 399.916 127.292 391.79C127.826 391.282 128.576 390.792 129.541 390.319C130.496 389.802 131.418 389.434 132.305 389.216L155.638 421.517C156.504 415.282 157.392 408.946 158.303 402.511C159.257 396.065 160.151 389.658 160.984 383.289C161.607 382.76 162.362 382.291 163.25 381.885C164.182 381.467 165.092 381.149 165.98 380.931L183.244 427.006C182.71 427.514 181.95 427.96 180.962 428.344C179.985 428.773 179.009 429.107 178.033 429.347L163.189 389.381C162.335 395.473 161.475 401.542 160.611 407.59C159.79 413.626 159.015 419.463 158.285 425.101Z" fill="#3A4B18"/>
<path d="M193.438 378.433C193.175 379.229 192.696 380.114 192.001 381.088C191.298 382.016 190.641 382.703 190.029 383.149C189.295 382.966 188.428 382.577 187.427 381.981C186.418 381.34 185.618 380.705 185.03 380.075C185.329 379.225 185.826 378.313 186.521 377.339C187.215 376.366 187.864 375.634 188.466 375.144C189.209 375.371 190.085 375.805 191.095 376.446C192.149 377.078 192.93 377.74 193.438 378.433ZM188.728 391.503C189.412 390.95 190.184 390.497 191.046 390.142C191.953 389.779 192.877 389.506 193.819 389.322L200.57 423.896C200.012 424.377 199.231 424.786 198.226 425.122C197.274 425.494 196.35 425.768 195.453 425.943L188.728 391.503Z" fill="#3A4B18"/>
<path d="M271.339 413.666C271.095 413.927 270.707 414.136 270.174 414.295C269.647 414.499 269.18 414.626 268.772 414.677L231.813 375.291C232.299 378.822 232.78 382.307 233.255 385.747C233.775 389.182 234.273 392.619 234.748 396.059C235.269 399.494 235.795 402.973 236.326 406.499C236.898 409.973 237.506 413.557 238.151 417.253C237.697 417.677 236.986 418.065 236.017 418.417C235.048 418.768 234.11 419 233.203 419.113C232.802 415.157 232.415 411.315 232.042 407.585C231.663 403.811 231.279 399.991 230.889 396.126C230.493 392.216 230.084 388.192 229.66 384.055C229.23 379.872 228.789 375.415 228.337 370.682C229.063 370.224 229.888 369.821 230.811 369.476C231.781 369.125 232.741 368.89 233.693 368.771L267.108 404.663C266.181 397.964 265.245 391.381 264.3 384.915C263.401 378.442 262.479 372.341 261.534 366.612C262.248 366.062 263.048 365.64 263.932 365.346C264.856 365 265.703 364.779 266.474 364.683C267.152 371.966 267.914 379.744 268.762 388.019C269.61 396.293 270.469 404.842 271.339 413.666Z" fill="#3A4B18"/>
<path d="M287.664 393.398C287.835 396.271 288.325 398.759 289.137 400.862C289.994 402.963 291.035 404.709 292.262 406.101C293.532 407.445 294.941 408.437 296.489 409.077C298.083 409.715 299.724 409.984 301.412 409.884C305.061 409.667 307.771 408.294 309.543 405.763C311.313 403.186 312.052 399.435 311.76 394.509C311.619 392.138 311.214 389.942 310.545 387.922C309.876 385.902 308.95 384.171 307.766 382.731C306.628 381.288 305.258 380.179 303.655 379.405C302.053 378.63 300.249 378.302 298.242 378.421C296.782 378.508 295.385 378.865 294.049 379.494C292.713 380.122 291.556 381.06 290.577 382.309C289.596 383.511 288.817 385.045 288.241 386.91C287.708 388.726 287.516 390.889 287.664 393.398ZM282.043 395.859C281.878 393.077 282.227 390.47 283.09 388.039C283.95 385.562 285.174 383.43 286.761 381.642C288.392 379.806 290.319 378.342 292.543 377.249C294.809 376.107 297.243 375.46 299.842 375.306C302.67 375.138 305.139 375.472 307.248 376.308C309.403 377.142 311.189 378.317 312.606 379.835C314.069 381.351 315.183 383.161 315.949 385.267C316.76 387.37 317.236 389.608 317.377 391.979C317.542 394.761 317.263 397.387 316.539 399.856C315.816 402.324 314.688 404.52 313.154 406.441C311.663 408.315 309.785 409.845 307.522 411.032C305.258 412.219 302.643 412.9 299.679 413.076C297.489 413.206 295.367 412.92 293.311 412.218C291.256 411.516 289.407 410.435 287.764 408.977C286.167 407.515 284.846 405.694 283.801 403.513C282.8 401.284 282.214 398.733 282.043 395.859Z" fill="#3A4B18"/>
<path d="M343.194 409.841C342.64 410.199 341.882 410.461 340.92 410.63C339.958 410.844 339.042 410.945 338.174 410.932C337.159 408.495 336.125 405.807 335.072 402.866C334.066 399.881 333.082 396.851 332.123 393.775C331.209 390.654 330.341 387.58 329.518 384.552C328.741 381.478 328.098 378.59 327.59 375.887C329.111 374.995 330.9 374.565 332.955 374.595C333.288 376.794 333.755 379.199 334.356 381.813C334.958 384.381 335.649 387.064 336.43 389.863C337.211 392.662 338.061 395.485 338.978 398.332C339.896 401.133 340.815 403.865 341.735 406.529C342.729 404.214 343.702 401.783 344.654 399.239C345.606 396.648 346.513 394.057 347.373 391.465C348.234 388.873 349.027 386.303 349.75 383.755C350.474 381.161 351.104 378.703 351.641 376.38C352.425 375.935 353.275 375.628 354.191 375.459C355.107 375.289 355.954 375.211 356.731 375.222C357.109 377.421 357.622 379.85 358.268 382.51C358.959 385.171 359.718 387.924 360.544 390.769C361.371 393.569 362.243 396.392 363.16 399.239C364.124 402.041 365.089 404.751 366.055 407.37C367.051 404.963 367.98 402.418 368.842 399.734C369.75 397.052 370.567 394.345 371.293 391.614C372.064 388.884 372.721 386.198 373.263 383.555C373.851 380.868 374.346 378.339 374.746 375.969C375.85 375.483 377.065 375.249 378.39 375.269C379.166 375.281 379.691 375.334 379.964 375.43C379.284 378.116 378.489 380.914 377.577 383.825C376.712 386.737 375.731 389.692 374.635 392.692C373.586 395.692 372.445 398.668 371.213 401.62C370.027 404.573 368.796 407.433 367.521 410.202C366.968 410.559 366.187 410.822 365.179 410.99C364.171 411.203 363.278 411.304 362.502 411.293C361.663 409.27 360.805 407.064 359.927 404.674C359.094 402.286 358.262 399.829 357.431 397.303C356.646 394.778 355.884 392.254 355.145 389.73C354.406 387.16 353.758 384.66 353.2 382.23C352.667 384.232 352.018 386.416 351.252 388.781C350.485 391.146 349.65 393.555 348.745 396.009C347.841 398.463 346.914 400.872 345.965 403.234C345.016 405.596 344.092 407.798 343.194 409.841Z" fill="#3A4B18"/>
<path d="M392.027 409.738C391.46 410.614 390.691 411.428 389.72 412.183C388.798 412.895 387.936 413.405 387.135 413.713C386.341 413.289 385.54 412.659 384.73 411.821C383.923 410.938 383.302 410.023 382.867 409.075C383.431 408.246 384.176 407.452 385.101 406.695C386.075 405.895 386.963 405.34 387.764 405.032C388.649 405.463 389.493 406.142 390.296 407.071C391.102 407.954 391.679 408.843 392.027 409.738Z" fill="#3A4B18"/>
<path d="M463.475 372.2C463.244 373.088 462.861 373.907 462.327 374.656C461.839 375.412 461.341 375.935 460.833 376.225C458.83 375.726 456.473 375.126 453.762 374.423C451.058 373.676 448.459 372.991 445.967 372.369L438.879 417.599C438.093 417.892 437.193 418.029 436.178 418.008C435.202 418.04 434.195 417.975 433.157 417.812L440.415 371.499C439.039 371.422 437.548 371.351 435.939 371.284C434.338 371.171 432.76 371.063 431.204 370.958C429.648 370.852 428.16 370.758 426.739 370.674C425.371 370.552 424.209 370.439 423.254 370.336C423.5 369.357 423.838 368.531 424.267 367.859C424.748 367.148 425.269 366.628 425.829 366.3L463.475 372.2Z" fill="#3A4B18"/>
<path d="M494.026 407.955C494.939 404.181 494.828 401.239 493.693 399.131C492.569 396.979 490.585 395.559 487.743 394.871C486.722 394.624 485.652 394.576 484.534 394.729C483.427 394.837 482.326 395.111 481.232 395.552C480.194 395.958 479.172 396.487 478.169 397.137C477.176 397.743 476.256 398.437 475.409 399.219L469.541 423.467C468.833 423.671 467.953 423.717 466.899 423.603C465.879 423.544 464.925 423.407 464.037 423.192L476.32 372.433C477.172 372.216 478.063 372.126 478.994 372.164C479.97 372.212 480.924 372.349 481.856 372.574L476.344 395.356C477.148 394.751 478.091 394.157 479.173 393.572C480.254 392.988 481.431 392.497 482.702 392.1C483.974 391.702 485.302 391.459 486.686 391.371C488.126 391.25 489.601 391.371 491.111 391.737C494.708 392.607 497.287 394.383 498.847 397.064C500.452 399.756 500.766 403.123 499.788 407.164L494.388 429.479C493.68 429.684 492.799 429.729 491.746 429.615C490.726 429.557 489.772 429.42 488.884 429.205L494.026 407.955Z" fill="#3A4B18"/>
<path d="M536.991 441.032C536.789 441.206 536.486 441.394 536.081 441.596C535.72 441.813 535.316 442.016 534.868 442.204C534.435 442.349 533.965 442.458 533.46 442.53C532.997 442.617 532.578 442.646 532.203 442.618C530.844 442.07 529.846 441.16 529.21 439.889C528.588 438.575 528.5 437.101 528.947 435.468C528.384 436.003 527.633 436.523 526.694 437.03C525.77 437.493 524.708 437.862 523.509 438.137C522.367 438.384 521.111 438.471 519.738 438.4C518.351 438.372 516.92 438.113 515.446 437.623C512.368 436.599 510.178 435.004 508.876 432.837C507.617 430.685 507.421 428.309 508.286 425.707C509.18 423.019 510.949 421.104 513.592 419.96C516.235 418.817 520.172 418.634 525.403 419.411L533.596 420.619L534.44 418.082C535.478 414.961 535.534 412.331 534.608 410.193C533.725 408.07 531.853 406.533 528.992 405.581C527.214 404.99 525.545 404.94 523.985 405.433C522.483 405.896 521.443 406.995 520.866 408.729C520.607 409.509 520.636 410.29 520.955 411.07C520.391 411.46 519.604 411.728 518.593 411.873C517.582 412.018 516.606 411.983 515.667 411.767C515.522 411.478 515.37 411.066 515.211 410.532C515.052 409.997 515.095 409.361 515.34 408.624C515.787 407.28 516.595 406.153 517.765 405.242C518.935 404.331 520.285 403.672 521.816 403.267C523.362 402.818 525.038 402.629 526.844 402.7C528.65 402.771 530.442 403.102 532.22 403.693C536.382 405.077 539.013 407.012 540.112 409.496C541.227 411.937 541.221 414.849 540.097 418.23L534.668 434.554C534.077 436.331 534.056 437.697 534.606 438.65C535.17 439.56 535.95 440.253 536.948 440.729L536.991 441.032ZM518.673 434.868C520.928 435.618 523.009 435.732 524.915 435.21C526.866 434.703 528.462 433.742 529.703 432.325L532.818 422.96L523.584 421.622C521.099 421.277 519.054 421.416 517.451 422.038C515.891 422.675 514.787 423.969 514.138 425.92C513.417 428.088 513.512 429.973 514.423 431.577C515.392 433.151 516.809 434.248 518.673 434.868Z" fill="#3A4B18"/>
<path d="M576.684 433.767C577.815 430.052 577.875 427.109 576.864 424.938C575.867 422.724 573.969 421.191 571.172 420.34C570.166 420.034 569.101 419.924 567.976 420.012C566.908 420.069 565.822 420.263 564.718 420.596C563.657 420.942 562.607 421.41 561.568 422.001C560.541 422.548 559.589 423.166 558.711 423.854L551.406 447.851C550.687 448.014 549.806 448.008 548.76 447.833C547.745 447.715 546.801 447.523 545.927 447.257L556.146 413.688C557.815 413.384 559.545 413.505 561.337 414.05L559.361 420.541C560.156 419.971 561.116 419.404 562.243 418.84C563.427 418.245 564.672 417.764 565.978 417.398C567.327 417.044 568.724 416.849 570.169 416.811C571.67 416.742 573.185 416.941 574.715 417.407C578.256 418.485 580.727 420.407 582.13 423.174C583.576 425.955 583.693 429.334 582.482 433.311L575.796 455.276C575.077 455.439 574.196 455.433 573.15 455.258C572.136 455.14 571.191 454.948 570.317 454.682L576.684 433.767Z" fill="#3A4B18"/>
<path d="M599.524 408.766C600.38 408.565 601.273 408.491 602.203 408.545C603.178 408.611 604.129 408.765 605.057 409.008L596.496 441.764C598.03 441.315 599.627 440.717 601.286 439.97C602.99 439.235 604.7 438.383 606.417 437.415C608.178 436.458 609.94 435.408 611.703 434.263C613.478 433.074 615.192 431.845 616.846 430.578C617.357 430.428 618.006 430.385 618.792 430.449C619.578 430.512 620.347 430.643 621.099 430.839C621.85 431.035 622.452 431.263 622.903 431.523C621.707 432.486 620.295 433.462 618.666 434.454C617.038 435.445 615.349 436.396 613.599 437.309C611.905 438.188 610.201 439.018 608.486 439.797C606.771 440.577 605.207 441.231 603.794 441.759C604.885 442.28 605.713 443.087 606.278 444.179C606.887 445.283 607.537 446.68 608.228 448.372L611.808 457.171C612.294 458.384 612.726 459.441 613.104 460.343C613.494 461.201 613.857 461.98 614.193 462.682C614.541 463.34 614.861 463.919 615.155 464.421C615.449 464.923 615.777 465.386 616.138 465.811L616.051 466.143C615.396 466.302 614.498 466.304 613.358 466.147C612.218 465.991 611.295 465.821 610.587 465.636C610.071 465.265 609.535 464.605 608.979 463.657C608.48 462.677 607.831 461.185 607.032 459.181L603.424 449.95C603.025 448.948 602.663 448.075 602.338 447.329C602.058 446.594 601.743 445.992 601.393 445.523C601.088 445.066 600.737 444.691 600.341 444.398C599.99 444.118 599.549 443.908 599.018 443.769C598.488 443.631 597.95 443.608 597.406 443.702C596.874 443.752 596.374 443.857 595.907 444.019L591.817 459.667C591.106 459.859 590.224 459.889 589.173 459.756C588.154 459.678 587.203 459.524 586.319 459.293L599.524 408.766Z" fill="#3A4B18"/>
<path d="M651.015 454.948C650.503 457.828 650.405 460.339 650.72 462.484C651.088 464.591 651.79 466.386 652.826 467.87C653.907 469.361 655.273 470.555 656.923 471.451C658.582 472.303 660.491 472.921 662.65 473.304C665.484 473.808 667.862 473.743 669.785 473.11C671.715 472.432 673.335 471.281 674.644 469.658C675.998 468.042 677.083 465.984 677.899 463.484C678.722 460.939 679.418 458.069 679.985 454.875C680.601 451.411 681.201 447.643 681.785 443.57C682.414 439.505 683.039 435.208 683.658 430.677C684.487 430.453 685.34 430.35 686.219 430.367C687.151 430.346 688.044 430.412 688.899 430.564C688.305 433.382 687.781 436.073 687.325 438.638C686.878 441.157 686.411 443.65 685.927 446.116C685.442 448.582 684.935 451.044 684.406 453.503C683.884 455.916 683.302 458.411 682.658 460.988C681.741 464.584 680.5 467.519 678.936 469.794C677.379 472.023 675.611 473.751 673.629 474.977C671.656 476.157 669.467 476.859 667.06 477.081C664.699 477.311 662.236 477.198 659.672 476.743C657.288 476.319 655.076 475.578 653.037 474.52C651.042 473.469 649.359 472.103 647.987 470.421C646.624 468.693 645.665 466.644 645.112 464.271C644.567 461.854 644.57 459.094 645.122 455.99L650.625 425.017C652.298 424.479 654.215 424.402 656.374 424.785L651.015 454.948Z" fill="#3A4B18"/>
<path d="M687.774 472.799C688.206 472.202 688.861 471.676 689.738 471.219C690.66 470.768 691.603 470.548 692.566 470.561C692.633 472.912 693.537 474.963 695.278 476.714C697.068 478.425 699.463 479.442 702.461 479.767C705.323 480.077 707.501 479.693 708.997 478.614C710.543 477.495 711.417 476.004 711.619 474.141C711.82 472.279 711.319 470.754 710.115 469.567C708.956 468.384 706.852 467.237 703.801 466.125L699.892 464.668C698.477 464.147 697.204 463.595 696.073 463.013C694.986 462.436 694.046 461.782 693.252 461.053C692.508 460.283 691.958 459.419 691.602 458.461C691.246 457.504 691.14 456.366 691.283 455.049C691.435 453.641 691.946 452.317 692.816 451.079C693.69 449.795 694.82 448.699 696.205 447.792C697.636 446.89 699.223 446.235 700.968 445.827C702.763 445.378 704.66 445.261 706.658 445.478C708.703 445.699 710.402 446.136 711.756 446.788C713.115 447.395 714.209 448.111 715.039 448.937C715.919 449.721 716.519 450.545 716.839 451.407C717.205 452.273 717.376 453.027 717.352 453.668C716.966 454.27 716.359 454.778 715.533 455.194C714.711 455.565 713.841 455.746 712.923 455.739C712.792 453.978 712.069 452.383 710.753 450.954C709.437 449.525 707.326 448.652 704.418 448.337C703.464 448.234 702.496 448.267 701.512 448.436C700.579 448.565 699.722 448.84 698.941 449.261C698.16 449.682 697.503 450.231 696.97 450.908C696.442 451.541 696.127 452.334 696.023 453.287C695.856 454.832 696.266 456.14 697.253 457.212C698.244 458.239 700.069 459.218 702.725 460.149L706.771 461.621C710.614 463.049 713.293 464.626 714.806 466.352C716.37 468.038 717.024 470.062 716.768 472.424C716.606 473.923 716.105 475.363 715.266 476.743C714.432 478.077 713.295 479.241 711.855 480.234C710.419 481.181 708.713 481.869 706.736 482.299C704.755 482.773 702.538 482.878 700.085 482.612C697.95 482.381 696.117 481.906 694.586 481.189C693.05 480.517 691.759 479.711 690.712 478.77C689.71 477.834 688.966 476.858 688.479 475.84C687.996 474.776 687.762 473.763 687.774 472.799Z" fill="#3A4B18"/>
<path d="M748.07 482.004C751.77 481.859 755.608 481.667 759.582 481.429C763.557 481.191 768.034 480.906 773.013 480.574C772.925 481.625 772.675 482.563 772.266 483.386C771.857 484.164 771.401 484.69 770.899 484.966L742.457 485.033L742.341 436.373C743.893 435.547 745.765 435.131 747.958 435.126L748.07 482.004Z" fill="#3A4B18"/>
<path d="M810.492 478.407C810.378 478.648 810.177 478.943 809.89 479.293C809.649 479.638 809.362 479.988 809.03 480.342C808.693 480.651 808.308 480.941 807.876 481.213C807.489 481.481 807.118 481.678 806.764 481.805C805.3 481.858 804.018 481.433 802.919 480.532C801.816 479.585 801.135 478.275 800.878 476.601C800.582 477.319 800.108 478.1 799.457 478.945C798.801 479.745 797.982 480.514 796.999 481.254C796.057 481.944 794.944 482.536 793.662 483.03C792.384 483.569 790.971 483.915 789.425 484.067C786.197 484.386 783.547 483.821 781.476 482.373C779.45 480.92 778.303 478.829 778.033 476.101C777.755 473.282 778.59 470.812 780.539 468.692C782.488 466.571 786.009 464.8 791.102 463.379L799.077 461.146L798.815 458.486C798.492 455.212 797.472 452.787 795.755 451.212C794.084 449.632 791.748 448.991 788.747 449.287C786.883 449.471 785.339 450.105 784.114 451.19C782.931 452.225 782.429 453.652 782.609 455.471C782.689 456.29 783.034 456.99 783.643 457.573C783.287 458.159 782.677 458.724 781.813 459.269C780.948 459.813 780.043 460.178 779.097 460.363C778.847 460.158 778.541 459.844 778.178 459.421C777.815 458.997 777.595 458.399 777.518 457.626C777.379 456.217 777.658 454.858 778.356 453.549C779.053 452.241 780.018 451.09 781.252 450.096C782.481 449.056 783.934 448.201 785.613 447.53C787.291 446.86 789.062 446.432 790.927 446.248C795.292 445.817 798.482 446.512 800.499 448.334C802.51 450.109 803.691 452.77 804.041 456.317L805.731 473.436C805.915 475.301 806.452 476.556 807.342 477.203C808.228 477.804 809.223 478.119 810.328 478.148L810.492 478.407ZM791.251 480.237C793.616 480.004 795.562 479.261 797.092 478.008C798.666 476.751 799.732 475.222 800.289 473.422L799.32 463.601L790.342 466.14C787.931 466.837 786.121 467.796 784.91 469.018C783.744 470.235 783.263 471.866 783.465 473.912C783.689 476.186 784.544 477.869 786.029 478.962C787.555 480.005 789.296 480.43 791.251 480.237Z" fill="#3A4B18"/>
<path d="M806.964 448.025C807.23 447.464 807.707 446.91 808.395 446.362C809.119 445.762 809.953 445.373 810.896 445.196L813.051 444.792L811.233 435.092C811.842 434.373 812.593 433.791 813.486 433.345C814.415 432.845 815.328 432.511 816.227 432.343L818.373 443.795L831.576 441.32C831.674 442.091 831.572 442.785 831.269 443.399C831.002 443.961 830.577 444.296 829.993 444.406L818.878 446.489L823.02 468.584C823.289 470.021 823.665 471.159 824.148 471.998C824.667 472.784 825.265 473.369 825.941 473.754C826.618 474.139 827.355 474.349 828.152 474.386C828.949 474.422 829.752 474.365 830.56 474.213C832.042 473.935 833.222 473.412 834.101 472.643C834.979 471.874 835.674 471.116 836.185 470.37C836.847 470.431 837.323 470.737 837.612 471.287C837.455 471.689 837.184 472.228 836.799 472.904C836.415 473.581 835.873 474.286 835.174 475.022C834.467 475.712 833.59 476.365 832.543 476.979C831.496 477.594 830.276 478.032 828.884 478.293C827.627 478.528 826.407 478.594 825.226 478.49C824.044 478.386 822.959 478.055 821.971 477.497C821.028 476.93 820.196 476.086 819.475 474.966C818.753 473.846 818.224 472.388 817.888 470.592L813.557 447.487L807.09 448.699L806.964 448.025Z" fill="#3A4B18"/>
<path d="M842.447 456.436C843.243 458.776 844.246 460.749 845.454 462.356C846.694 463.907 848.052 465.117 849.529 465.985C851.005 466.853 852.577 467.386 854.245 467.584C855.946 467.726 857.654 467.557 859.37 467.077C861.526 466.474 863.294 465.671 864.674 464.669C866.098 463.654 867.276 462.352 868.208 460.763C868.861 460.723 869.396 461.024 869.813 461.667C869.64 462.237 869.3 462.972 868.793 463.873C868.33 464.762 867.618 465.696 866.659 466.676C865.743 467.644 864.555 468.569 863.094 469.452C861.689 470.366 859.952 471.113 857.884 471.691C855.684 472.306 853.527 472.482 851.414 472.219C849.3 471.956 847.33 471.273 845.504 470.17C843.677 469.068 842.039 467.533 840.588 465.567C839.18 463.588 838.089 461.213 837.314 458.44C836.601 455.888 836.371 453.367 836.623 450.877C836.864 448.343 837.498 446.03 838.527 443.94C839.6 441.837 841.013 440.019 842.766 438.485C844.552 436.895 846.61 435.774 848.942 435.122C851.451 434.421 853.636 434.261 855.497 434.641C857.359 435.022 858.937 435.744 860.23 436.806C861.567 437.855 862.633 439.123 863.428 440.608C864.267 442.082 864.895 443.567 865.313 445.063C865.109 445.689 864.754 446.286 864.249 446.855C863.787 447.411 863.236 447.897 862.593 448.314L842.447 456.436ZM848.057 438.572C846.692 438.953 845.484 439.552 844.431 440.368C843.378 441.184 842.554 442.221 841.956 443.479C841.359 444.738 840.996 446.239 840.867 447.983C840.782 449.714 841.031 451.708 841.614 453.965L859.692 446.847C859.675 446.615 859.635 446.389 859.574 446.169C859.512 445.949 859.457 445.751 859.408 445.575C859.026 444.211 858.5 443.006 857.828 441.96C857.156 440.915 856.329 440.078 855.348 439.451C854.41 438.812 853.323 438.404 852.088 438.228C850.896 438.039 849.553 438.154 848.057 438.572Z" fill="#3A4B18"/>
<path d="M867.798 431.154C868.944 429.904 870.417 428.947 872.218 428.283L875.631 437.544C875.586 436.099 875.714 434.664 876.016 433.238C876.303 431.769 876.773 430.403 877.427 429.139C878.124 427.859 878.999 426.733 880.053 425.761C881.091 424.745 882.36 423.961 883.861 423.408C885.018 422.981 886.097 422.803 887.096 422.873C888.08 422.9 888.953 423.089 889.716 423.441C890.463 423.75 891.092 424.2 891.602 424.791C892.155 425.366 892.571 425.968 892.851 426.595C892.729 427.322 892.319 428.057 891.619 428.802C890.963 429.531 890.243 430.088 889.46 430.474C888.819 429.396 887.968 428.541 886.907 427.909C885.847 427.277 884.459 427.278 882.744 427.91C881.501 428.368 880.478 429.159 879.675 430.283C878.914 431.391 878.372 432.759 878.047 434.389C877.707 435.975 877.611 437.763 877.76 439.753C877.952 441.728 878.379 443.811 879.04 446.002L884.658 461.242C884.184 461.806 883.478 462.335 882.539 462.827C881.659 463.346 880.79 463.763 879.933 464.079L867.798 431.154Z" fill="#3A4B18"/>
<path d="M908.861 449.192C908.752 450.229 908.436 451.304 907.912 452.416C907.413 453.469 906.876 454.314 906.302 454.952C905.402 454.934 904.402 454.735 903.3 454.356C902.181 453.934 901.213 453.4 900.396 452.752C900.522 451.757 900.826 450.712 901.308 449.618C901.814 448.463 902.354 447.567 902.928 446.929C903.912 446.911 904.972 447.135 906.109 447.598C907.228 448.02 908.146 448.551 908.861 449.192Z" fill="#3A4B18"/>
<path d="M913.858 398.24C915.257 396.757 917.011 395.119 919.123 393.325C921.234 391.531 923.714 389.907 926.563 388.455C929.331 387.043 931.807 386.166 933.991 385.822C936.175 385.478 938.085 385.504 939.723 385.9C941.361 386.295 942.746 387 943.878 388.013C945.009 389.026 945.897 390.163 946.54 391.425C947.267 392.849 947.697 394.297 947.831 395.767C947.985 397.176 947.914 398.546 947.618 399.876C947.301 401.166 946.8 402.396 946.114 403.566C945.429 404.736 944.609 405.795 943.656 406.742C947.632 405.587 950.972 405.5 953.677 406.48C956.382 407.46 958.419 409.293 959.789 411.98C960.847 414.056 961.324 416.198 961.219 418.405C961.092 420.572 960.455 422.692 959.307 424.765C958.158 426.838 956.518 428.802 954.387 430.658C952.318 432.534 949.858 434.198 947.009 435.65C944.933 436.709 942.907 437.614 940.93 438.365C938.954 439.116 937.069 439.743 935.275 440.248L913.858 398.24ZM936.717 413.049C935.211 413.817 933.888 414.543 932.75 415.226C931.631 415.848 930.644 416.479 929.791 417.119L938.756 434.704C940.123 434.468 941.622 434.089 943.253 433.565C944.904 432.98 946.441 432.324 947.866 431.598C949.616 430.706 951.1 429.693 952.317 428.559C953.575 427.405 954.536 426.172 955.2 424.859C955.843 423.505 956.149 422.093 956.117 420.622C956.105 419.089 955.684 417.509 954.854 415.881C953.941 414.09 952.807 412.77 951.451 411.923C950.096 411.075 948.601 410.606 946.965 410.517C945.35 410.366 943.665 410.533 941.912 411.016C940.158 411.5 938.427 412.178 936.717 413.049ZM937.544 409.089C938.786 408.405 939.852 407.579 940.743 406.612C941.614 405.604 942.25 404.536 942.649 403.409C943.069 402.221 943.233 400.983 943.141 399.696C943.07 398.348 942.681 396.982 941.975 395.598C940.502 392.708 938.424 390.947 935.742 390.314C933.101 389.66 929.827 390.329 925.919 392.322C924.576 393.006 923.356 393.731 922.258 394.496C921.14 395.22 920.165 395.922 919.332 396.603L928.359 414.31C929.355 413.648 930.525 412.924 931.867 412.137C933.21 411.35 934.797 410.49 936.629 409.556L937.544 409.089Z" fill="#3A4B18"/>
<path d="M1000.37 403.142C1000.36 403.408 1000.29 403.757 1000.16 404.19C1000.07 404.602 999.935 405.035 999.764 405.49C999.572 405.904 999.328 406.32 999.034 406.737C998.779 407.133 998.513 407.458 998.234 407.711C996.903 408.322 995.556 408.423 994.195 408.013C992.813 407.562 991.681 406.614 990.801 405.168C990.803 405.944 990.666 406.848 990.389 407.878C990.091 408.868 989.63 409.893 989.007 410.954C988.402 411.953 987.603 412.926 986.608 413.875C985.635 414.864 984.464 415.726 983.096 416.461C980.238 417.995 977.574 418.492 975.105 417.95C972.677 417.387 970.814 415.898 969.517 413.483C968.177 410.987 968 408.386 968.984 405.679C969.968 402.973 972.539 399.985 976.696 396.716L983.2 391.59L981.936 389.235C980.38 386.337 978.507 384.49 976.317 383.695C974.167 382.879 971.764 383.184 969.107 384.61C967.457 385.496 966.275 386.675 965.561 388.148C964.866 389.558 964.951 391.068 965.815 392.678C966.205 393.403 966.792 393.917 967.577 394.222C967.475 394.899 967.129 395.655 966.54 396.49C965.951 397.325 965.255 398.01 964.453 398.544C964.144 398.451 963.74 398.278 963.242 398.027C962.744 397.776 962.311 397.308 961.944 396.624C961.274 395.376 961.01 394.014 961.151 392.538C961.292 391.062 961.741 389.628 962.497 388.237C963.233 386.805 964.246 385.457 965.538 384.193C966.83 382.929 968.301 381.854 969.952 380.967C973.816 378.893 977.029 378.309 979.59 379.215C982.13 380.082 984.243 382.085 985.928 385.225L994.065 400.381C994.952 402.032 995.93 402.984 997 403.24C998.049 403.454 999.089 403.363 1000.12 402.965L1000.37 403.142ZM983.31 412.223C985.403 411.099 986.915 409.665 987.845 407.921C988.816 406.155 989.213 404.335 989.036 402.459L984.368 393.764L977.054 399.557C975.097 401.127 973.793 402.708 973.145 404.301C972.536 405.872 972.718 407.564 973.691 409.375C974.771 411.388 976.207 412.614 977.998 413.052C979.808 413.429 981.579 413.153 983.31 412.223Z" fill="#3A4B18"/>
<path d="M1021.63 370.786C1019.85 367.334 1017.84 365.182 1015.61 364.331C1013.35 363.439 1010.92 363.663 1008.32 365.003C1007.39 365.485 1006.55 366.149 1005.8 366.996C1005.07 367.781 1004.43 368.678 1003.87 369.686C1003.35 370.674 1002.93 371.741 1002.59 372.89C1002.24 373.998 1001.99 375.104 1001.84 376.21L1013.33 398.506C1012.93 399.124 1012.29 399.735 1011.42 400.338C1010.61 400.961 1009.8 401.482 1008.99 401.9L992.911 370.71C993.895 369.329 995.22 368.209 996.885 367.351L999.993 373.382C1000.17 372.419 1000.46 371.343 1000.87 370.152C1001.31 368.9 1001.86 367.688 1002.55 366.515C1003.27 365.321 1004.13 364.207 1005.14 363.172C1006.17 362.077 1007.39 361.163 1008.82 360.43C1012.11 358.734 1015.22 358.389 1018.15 359.396C1021.13 360.381 1023.57 362.721 1025.47 366.417L1035.99 386.825C1035.59 387.443 1034.95 388.054 1034.08 388.657C1033.27 389.28 1032.46 389.801 1031.65 390.219L1021.63 370.786Z" fill="#3A4B18"/>
<path d="M1062.99 351.307C1061.4 347.765 1059.51 345.51 1057.32 344.541C1055.11 343.531 1052.67 343.626 1050.01 344.825C1049.05 345.257 1048.17 345.875 1047.38 346.682C1046.58 347.446 1045.88 348.338 1045.28 349.356C1044.71 350.315 1044.23 351.358 1043.83 352.488C1043.42 353.575 1043.12 354.688 1042.93 355.825L1053.17 378.575C1052.73 379.171 1052.07 379.747 1051.16 380.303C1050.32 380.882 1049.49 381.359 1048.65 381.734L1027.22 334.109C1027.76 333.415 1028.41 332.798 1029.17 332.256C1029.97 331.696 1030.81 331.219 1031.68 330.825L1041.3 352.2C1041.56 351.229 1041.94 350.181 1042.44 349.056C1042.94 347.931 1043.56 346.822 1044.33 345.728C1045.09 344.635 1045.99 343.628 1047.03 342.71C1048.09 341.731 1049.33 340.922 1050.74 340.285C1054.12 338.766 1057.25 338.587 1060.12 339.748C1063.04 340.89 1065.35 343.356 1067.06 347.148L1076.48 368.086C1076.05 368.681 1075.38 369.257 1074.48 369.814C1073.64 370.393 1072.8 370.87 1071.96 371.245L1062.99 351.307Z" fill="#3A4B18"/>
<path d="M1131.97 340.339C1131.82 340.622 1131.57 340.909 1131.23 341.2C1130.87 341.447 1130.47 341.707 1130.03 341.98C1129.63 342.24 1129.2 342.484 1128.74 342.713C1128.27 342.898 1127.84 343.049 1127.45 343.164L1103.08 312.876C1103.78 316.387 1104.49 319.962 1105.22 323.604C1105.99 327.189 1106.74 330.752 1107.5 334.293C1108.28 337.778 1109.05 341.219 1109.8 344.615C1110.59 347.955 1111.36 351.158 1112.12 354.222C1111.57 354.809 1110.82 355.316 1109.85 355.743C1108.93 356.201 1107.99 356.571 1107.03 356.853C1105.72 348.954 1104.44 340.925 1103.19 332.768C1101.95 324.611 1100.74 316.491 1099.56 308.409C1100.07 307.878 1100.8 307.356 1101.74 306.841C1102.68 306.283 1103.58 305.875 1104.46 305.618L1129.17 336.874C1129.77 330.606 1130.38 324.238 1131.01 317.77C1131.68 311.288 1132.3 304.848 1132.85 298.449C1133.45 297.893 1134.18 297.392 1135.05 296.947C1135.97 296.489 1136.86 296.132 1137.74 295.875L1156.99 341.156C1156.48 341.686 1155.74 342.165 1154.77 342.591C1153.81 343.062 1152.85 343.439 1151.89 343.721L1135.32 304.439C1134.73 310.562 1134.14 316.663 1133.54 322.743C1132.98 328.809 1132.46 334.674 1131.97 340.339Z" fill="#3A4B18"/>
<path d="M1167.31 292.645C1167.06 293.443 1166.58 294.331 1165.89 295.308C1165.2 296.241 1164.54 296.932 1163.93 297.381C1163.2 297.203 1162.33 296.819 1161.32 296.229C1160.31 295.594 1159.51 294.964 1158.92 294.337C1159.21 293.486 1159.7 292.571 1160.39 291.593C1161.08 290.616 1161.72 289.88 1162.32 289.386C1163.07 289.609 1163.95 290.038 1164.96 290.673C1166.02 291.298 1166.8 291.956 1167.31 292.645ZM1162.68 305.743C1163.36 305.187 1164.13 304.729 1164.99 304.369C1165.9 304 1166.82 303.721 1167.76 303.531L1174.72 338.064C1174.17 338.549 1173.39 338.962 1172.38 339.304C1171.43 339.682 1170.51 339.961 1169.62 340.142L1162.68 305.743Z" fill="#3A4B18"/>
<path d="M1245.22 329.36C1244.97 329.612 1244.57 329.809 1244.03 329.95C1243.5 330.136 1243.03 330.248 1242.62 330.285L1206.99 289.695C1207.36 293.24 1207.72 296.739 1208.08 300.193C1208.49 303.643 1208.87 307.095 1209.23 310.549C1209.64 313.999 1210.05 317.494 1210.46 321.035C1210.92 324.526 1211.41 328.129 1211.93 331.844C1211.46 332.253 1210.74 332.618 1209.76 332.936C1208.78 333.255 1207.83 333.456 1206.92 333.539C1206.65 329.572 1206.39 325.719 1206.14 321.979C1205.89 318.194 1205.63 314.364 1205.37 310.488C1205.11 306.567 1204.83 302.531 1204.54 298.382C1204.25 294.188 1203.96 289.718 1203.67 284.974C1204.41 284.539 1205.24 284.165 1206.18 283.85C1207.16 283.531 1208.13 283.328 1209.08 283.241L1241.29 320.221C1240.58 313.495 1239.87 306.885 1239.14 300.391C1238.45 293.892 1237.73 287.764 1236.98 282.006C1237.71 281.48 1238.52 281.085 1239.42 280.82C1240.35 280.506 1241.21 280.313 1241.98 280.243C1242.42 287.544 1242.92 295.343 1243.49 303.641C1244.07 311.939 1244.64 320.512 1245.22 329.36Z" fill="#3A4B18"/>
<path d="M1263.31 309.921C1263.33 312.799 1263.68 315.31 1264.38 317.453C1265.13 319.596 1266.07 321.395 1267.23 322.85C1268.42 324.259 1269.78 325.325 1271.29 326.046C1272.85 326.768 1274.47 327.123 1276.16 327.113C1279.82 327.09 1282.6 325.863 1284.5 323.429C1286.4 320.95 1287.34 317.243 1287.31 312.309C1287.3 309.933 1287.01 307.719 1286.45 305.666C1285.89 303.614 1285.05 301.837 1283.95 300.336C1282.89 298.834 1281.58 297.654 1280.02 296.796C1278.46 295.937 1276.68 295.514 1274.66 295.527C1273.2 295.536 1271.79 295.819 1270.42 296.375C1269.05 296.932 1267.85 297.808 1266.8 299.002C1265.76 300.151 1264.9 301.641 1264.23 303.473C1263.6 305.259 1263.29 307.408 1263.31 309.921ZM1257.56 312.081C1257.55 309.294 1258.03 306.709 1259.02 304.327C1260.01 301.899 1261.35 299.835 1263.03 298.134C1264.76 296.387 1266.76 295.027 1269.04 294.054C1271.36 293.034 1273.82 292.516 1276.43 292.5C1279.26 292.483 1281.71 292.947 1283.77 293.894C1285.88 294.841 1287.6 296.11 1288.93 297.701C1290.31 299.291 1291.33 301.158 1291.98 303.302C1292.68 305.445 1293.04 307.705 1293.05 310.08C1293.07 312.867 1292.65 315.474 1291.8 317.901C1290.95 320.328 1289.7 322.46 1288.07 324.298C1286.48 326.09 1284.53 327.518 1282.2 328.584C1279.88 329.649 1277.23 330.191 1274.26 330.209C1272.07 330.222 1269.96 329.824 1267.95 329.014C1265.93 328.204 1264.14 327.027 1262.58 325.483C1261.06 323.939 1259.84 322.05 1258.91 319.817C1258.03 317.538 1257.58 314.959 1257.56 312.081Z" fill="#3A4B18"/>
<path d="M1317.94 329.378C1317.37 329.705 1316.6 329.927 1315.63 330.044C1314.66 330.206 1313.74 330.258 1312.87 330.199C1311.99 327.711 1311.1 324.971 1310.2 321.979C1309.36 318.944 1308.54 315.866 1307.74 312.743C1307 309.578 1306.3 306.461 1305.64 303.394C1305.02 300.283 1304.54 297.365 1304.17 294.638C1305.74 293.829 1307.55 293.495 1309.6 293.635C1309.82 295.848 1310.15 298.276 1310.61 300.918C1311.08 303.514 1311.62 306.23 1312.25 309.067C1312.88 311.904 1313.58 314.768 1314.35 317.66C1315.11 320.506 1315.88 323.284 1316.66 325.993C1317.78 323.734 1318.88 321.359 1319.96 318.869C1321.05 316.333 1322.1 313.794 1323.1 311.251C1324.09 308.709 1325.02 306.185 1325.88 303.679C1326.74 301.128 1327.5 298.707 1328.16 296.416C1328.97 296.013 1329.84 295.752 1330.76 295.632C1331.68 295.512 1332.53 295.479 1333.31 295.532C1333.57 297.748 1333.95 300.201 1334.45 302.892C1335 305.586 1335.61 308.375 1336.29 311.261C1336.96 314.1 1337.68 316.966 1338.45 319.858C1339.26 322.707 1340.08 325.465 1340.9 328.132C1342.02 325.782 1343.09 323.29 1344.09 320.656C1345.14 318.026 1346.1 315.367 1346.97 312.679C1347.89 309.994 1348.69 307.346 1349.37 304.737C1350.1 302.085 1350.73 299.586 1351.26 297.24C1352.39 296.814 1353.61 296.646 1354.93 296.736C1355.71 296.789 1356.23 296.871 1356.5 296.981C1355.67 299.626 1354.73 302.378 1353.67 305.236C1352.65 308.098 1351.51 310.997 1350.25 313.933C1349.05 316.873 1347.75 319.784 1346.36 322.666C1345.02 325.551 1343.64 328.342 1342.21 331.038C1341.64 331.366 1340.85 331.586 1339.83 331.7C1338.81 331.859 1337.92 331.912 1337.14 331.859C1336.41 329.794 1335.68 327.546 1334.93 325.113C1334.22 322.683 1333.52 320.185 1332.83 317.619C1332.18 315.056 1331.55 312.494 1330.95 309.934C1330.35 307.328 1329.84 304.797 1329.41 302.341C1328.77 304.312 1328 306.458 1327.11 308.778C1326.22 311.099 1325.26 313.46 1324.22 315.862C1323.19 318.265 1322.14 320.62 1321.06 322.928C1319.99 325.236 1318.95 327.386 1317.94 329.378Z" fill="#3A4B18"/>
<path d="M1365.82 331.538C1365.22 332.39 1364.41 333.172 1363.41 333.887C1362.46 334.561 1361.58 335.036 1360.77 335.311C1359.99 334.856 1359.22 334.193 1358.44 333.323C1357.67 332.408 1357.09 331.469 1356.69 330.504C1357.29 329.698 1358.07 328.935 1359.02 328.216C1360.03 327.456 1360.94 326.938 1361.75 326.663C1362.62 327.129 1363.43 327.842 1364.2 328.802C1364.97 329.717 1365.51 330.629 1365.82 331.538Z" fill="#3A4B18"/>
<path d="M1437.07 295.299C1436.83 296.185 1436.44 297 1435.89 297.744C1435.4 298.495 1434.9 299.014 1434.38 299.299C1432.39 298.781 1430.04 298.158 1427.33 297.429C1424.63 296.656 1422.04 295.946 1419.56 295.301L1412.03 340.46C1411.25 340.745 1410.34 340.873 1409.33 340.843C1408.35 340.866 1407.35 340.791 1406.31 340.618L1414.01 294.377C1412.64 294.287 1411.15 294.201 1409.54 294.118C1407.94 293.991 1406.36 293.867 1404.81 293.747C1403.25 293.627 1401.77 293.518 1400.35 293.42C1398.98 293.285 1397.82 293.162 1396.86 293.049C1397.12 292.072 1397.47 291.25 1397.9 290.581C1398.39 289.875 1398.92 289.361 1399.48 289.038L1437.07 295.299Z" fill="#3A4B18"/>
<path d="M1465.55 329.637C1466.34 325.834 1466.13 322.898 1464.93 320.828C1463.73 318.714 1461.71 317.36 1458.84 316.765C1457.81 316.552 1456.74 316.539 1455.63 316.728C1454.53 316.873 1453.44 317.183 1452.36 317.659C1451.33 318.099 1450.33 318.661 1449.35 319.344C1448.38 319.982 1447.48 320.706 1446.66 321.515L1441.59 345.941C1440.89 346.169 1440.01 346.244 1438.95 346.164C1437.93 346.139 1436.97 346.033 1436.08 345.848L1446.69 294.714C1447.54 294.469 1448.42 294.35 1449.36 294.357C1450.33 294.373 1451.29 294.478 1452.23 294.673L1447.47 317.623C1448.25 316.993 1449.17 316.368 1450.23 315.748C1451.3 315.129 1452.46 314.599 1453.71 314.161C1454.97 313.722 1456.29 313.436 1457.67 313.302C1459.11 313.133 1460.58 313.207 1462.11 313.523C1465.73 314.275 1468.37 315.965 1470.01 318.594C1471.71 321.232 1472.13 324.586 1471.28 328.657L1466.62 351.137C1465.92 351.365 1465.04 351.44 1463.98 351.36C1462.96 351.335 1462 351.229 1461.11 351.044L1465.55 329.637Z" fill="#3A4B18"/>
<defs>
<filter id="filter0_f_52_165" x="-130.4" y="0.566803" width="1700.8" height="1043.8" filterUnits="userSpaceOnUse" color-interpolation-filters="sRGB">
<feFlood flood-opacity="0" result="BackgroundImageFix"/>
<feBlend mode="normal" in="SourceGraphic" in2="BackgroundImageFix" result="shape"/>
<feGaussianBlur stdDeviation="178.2" result="effect1_foregroundBlur_52_165"/>
</filter>
</defs>
</svg>
